<?xml version="1.0" encoding="utf-8" ?>
<svg xmlns="http://www.w3.org/2000/svg" xmlns:xlink="http://www.w3.org/1999/xlink" width="1024" height="1031">
	<path fill="#819097" d="M413.974 65.215C428.559 57.2498 443.102 49.4706 458.373 42.8487Q463.075 40.8211 467.829 38.9157Q472.582 37.0104 477.383 35.2287Q482.184 33.4469 487.03 31.79Q491.875 30.133 496.762 28.6019Q501.649 27.0708 506.574 25.6666Q511.498 24.2625 516.458 22.9861Q521.417 21.7098 526.408 20.5622Q531.399 19.4146 536.417 18.3964Q541.436 17.3783 546.48 16.4903Q551.523 15.6023 556.588 14.845Q561.652 14.0878 566.735 13.4618Q571.818 12.8358 576.915 12.3415Q582.012 11.8471 587.12 11.4848Q592.228 11.1225 597.344 10.8924Q602.46 10.6624 607.58 10.5647Q612.7 10.467 617.821 10.5018C657.376 10.4398 683.772 13.1981 722.138 24.4848Q731.49 27.2919 740.671 30.617Q749.852 33.942 758.833 37.7747Q767.813 41.6074 776.566 45.9356Q785.319 50.2639 793.816 55.0743C801.235 59.2027 812.173 67.9276 819.071 70.5546C816.638 72.0171 814.373 72.9446 811.679 73.8123C808.74 74.1231 805.76 74.6882 802.972 75.6909C801.89 76.8737 800.745 78.0286 799.807 79.3287C792.814 77.1697 785.654 71.5563 779.168 68.0967C689.866 20.4643 588.98 19.948 494.09 50.1675C480.048 54.6395 466.126 60.0321 452.551 65.7596C441.256 70.5254 429.943 75.7862 418.212 79.396C417.12 77.2473 417.524 74.1717 417.254 71.7885C416.991 69.4589 415.841 66.679 413.974 65.215Z"/>
	<path fill="#010A14" d="M418.212 79.396C429.943 75.7862 441.256 70.5254 452.551 65.7596C466.126 60.0321 480.048 54.6395 494.09 50.1675C588.98 19.948 689.866 20.4643 779.168 68.0967C785.654 71.5563 792.814 77.1697 799.807 79.3287C800.745 78.0286 801.89 76.8737 802.972 75.6909C805.76 74.6882 808.74 74.1231 811.679 73.8123C814.373 72.9446 816.638 72.0171 819.071 70.5546C861.4 78.3188 903.029 111.158 927.06 146.073C936.682 160.053 945.795 174.988 953.103 190.332C955.315 191.271 957.166 190.221 959.438 190.318L962.189 189.698C964.9 189.756 967.795 189.511 970.479 189.725C979.9 188.441 1001.89 188.499 1011.49 190.113C1014.28 201.154 1013.01 222.696 1013.01 234.818C1013.02 245.841 1013.58 257.158 1012.65 268.131C1011.79 278.346 1010.47 287.955 1007.36 297.776C1005.49 303.71 1003.3 309.68 1000.87 315.408C998.379 321.258 993.198 328.591 992.58 334.842C991.841 342.323 997.089 369.809 998.355 379.137L998.385 379.651C998.761 385.4 999.817 391.145 1000.49 396.868C1001.97 409.381 1003.46 422.211 1004.08 434.798C1007.33 499.842 997.256 587.445 958.101 641.314C952.858 650.608 942.29 664.651 939.056 673.493C945.875 671.333 952.354 668.91 958.805 665.781C959.579 675.871 959.496 685.907 959.414 696.02L959.521 783.549C959.543 802.804 960.611 822.708 958.916 841.87C955.223 883.597 933.481 923.058 904.429 952.56C870.163 987.357 825.471 1006.28 776.682 1006.48L456.885 1006.53L333.668 1006.56C313.136 1006.54 292.162 1007.41 271.673 1006.39C263.328 1007.21 182.872 1007.09 177.484 1005.1L176.354 1005.33C140.109 999.262 115.597 990.42 86.2312 968.294Q84.3521 966.878 82.5087 965.416Q80.6654 963.954 78.859 962.447Q77.0527 960.939 75.2844 959.387Q73.5161 957.835 71.787 956.24Q70.0579 954.644 68.369 953.006Q66.6801 951.368 65.0326 949.688Q63.385 948.009 61.7798 946.289Q60.1745 944.569 58.6126 942.809Q57.0506 941.05 55.533 939.252Q54.0153 937.454 52.5429 935.619Q51.0704 933.784 49.6441 931.913Q48.2178 930.042 46.8385 928.136Q45.4592 926.23 44.1277 924.29Q42.7963 922.35 41.5135 920.378Q40.2308 918.406 38.9975 916.402Q37.7643 914.399 36.5813 912.365Q35.3983 910.331 34.2663 908.269Q33.1342 906.206 32.0539 904.116Q30.9736 902.026 29.9456 899.91Q28.9176 897.794 27.9426 895.653Q26.9676 893.511 26.0463 891.346Q25.1249 889.182 24.2576 886.995Q23.3904 884.808 22.5779 882.6Q21.7654 880.392 21.0081 878.164Q20.2508 875.937 19.5491 873.691Q18.8475 871.445 18.202 869.183Q17.5564 866.921 16.9674 864.643Q16.3784 862.365 15.8463 860.073Q15.3141 857.782 14.8392 855.477Q14.3643 853.173 13.9469 850.858Q13.5294 848.542 13.1698 846.217Q12.8101 843.892 12.5084 841.559L10.9873 427.928L10.9039 291.999C11.1226 267.668 9.8276 242.863 13.7322 218.767C18.4521 189.638 31.1962 161.741 48.9665 138.296C77.8854 100.142 124.668 72.4149 172.444 67.4278C179.867 66.6529 187.573 66.7775 195.036 66.6332Q220.454 66.3366 245.873 66.5254L356.208 66.393Q374.87 66.4952 393.531 66.2415C399.413 66.1379 405.577 66.3489 411.405 65.4994C411.6 65.471 411.794 65.4377 411.989 65.4069L413.974 65.215C415.841 66.679 416.991 69.4589 417.254 71.7885C417.524 74.1717 417.12 77.2473 418.212 79.396Z"/>
	<path fill="#980333" d="M737.724 640.386L747.115 636.786L747.541 643.422C744.965 641.961 740.657 641.344 737.724 640.386Z"/>
	<path fill="#0F3B25" d="M366.391 834.083C367.385 832.103 368.321 830.05 369.483 828.163C370.051 830.418 370.454 833.907 371.839 835.735C371.2 838.353 370.529 840.922 370.265 843.61L369.567 842.081C369.31 842.058 368.521 842.001 368.304 841.917C367.231 841.5 367.368 841.174 367.025 840.24C367.219 839.16 367.469 838.035 367.535 836.94C367.618 835.577 367.239 835.086 366.391 834.083Z"/>
	<path fill="#0C5AB8" d="M709.038 616.227C704.238 616.994 690.505 617.5 686.522 614.787C685.852 614.33 686.062 614.376 685.914 613.473C688.258 611.295 696.827 612.458 700.031 612.564C698.499 613.123 697.781 613.122 696.874 614.515C698.199 615.984 701.252 615.852 703.186 615.951C705.13 616.049 707.103 616.041 709.038 616.227Z"/>
	<path fill="#ADE8F0" d="M89.3742 503.007L89.8401 503.938C90.5168 504.168 91.1241 504.372 91.8325 504.488C93.0847 504.694 97.124 505.378 98.0539 504.739C97.9215 503.45 98.2254 502.386 98.4883 501.131C99.0649 508.128 97.6723 515.164 97.4494 522.156C97.3256 526.038 98.1635 530.01 97.7455 533.823C92.683 539.494 89.0486 545.168 85.2634 551.704C85.836 535.688 86.2633 518.754 89.3742 503.007Z"/>
	<defs>
		<linearGradient id="gradient_0" gradientUnits="userSpaceOnUse" x1="593.39648" y1="274.12381" x2="579.01605" y2="283.72446">
			<stop offset="0" stop-color="#647185"/>
			<stop offset="1" stop-color="#7D8B92"/>
		</linearGradient>
	</defs>
	<path fill="url(#gradient_0)" d="M554.588 250.694C572.443 255.502 588.752 263.002 598.193 279.591C604.081 289.938 605.41 301.616 604.917 313.304C603.824 310.216 601.624 306.956 600.076 304.005C593.079 290.668 585.937 275.987 573.97 266.364C568.636 262.075 561.362 259.943 557.335 254.166C556.476 252.933 555.58 251.823 554.588 250.694Z"/>
	<path fill="#F8F9F9" d="M942.966 244.748C946.94 244.365 950.115 244.519 953.762 246.291C957.757 248.232 961.057 251.777 962.486 256.004C963.719 259.655 963.518 263.652 961.742 267.092C959.494 271.447 955.27 274.353 950.689 275.804C948.093 276.07 945.558 276.424 943.007 275.659C938.538 274.319 935.061 270.994 932.969 266.887C931.027 263.076 930.363 258.71 931.899 254.639C933.857 249.449 938.115 246.798 942.966 244.748Z"/>
	<path fill="#1F860F" d="M246.769 318.392C247.513 326.637 247.698 334.934 248.381 343.191C249.263 353.859 250.707 364.501 252.017 375.124C248.444 375.86 245.225 376.771 241.835 378.137C240.895 376.977 239.99 376.749 238.628 376.323L239.241 375.556C239.886 368.976 234.47 349.878 231.957 343.572C229.819 338.207 226.945 333.035 224.36 327.869C232.679 323.192 237.165 320.199 246.769 318.392Z"/>
	<defs>
		<linearGradient id="gradient_1" gradientUnits="userSpaceOnUse" x1="753.94562" y1="605.98602" x2="743.039" y2="586.82495">
			<stop offset="0" stop-color="#078CEF"/>
			<stop offset="1" stop-color="#3669B1"/>
		</linearGradient>
	</defs>
	<path fill="url(#gradient_1)" d="M700.031 612.564L700.934 612.492C722.007 610.703 751.863 596.796 769.303 585.043C775.694 580.736 782.582 573.992 789.627 571.139C792.689 569.899 796.44 570.053 799.664 568.986C799.927 569.617 799.941 569.329 799.698 569.933C798.163 573.741 795.252 576.779 792.494 579.744C781.513 591.547 768.647 600.371 753.769 606.536C741.995 611.415 721.807 616.41 709.038 616.227C707.103 616.041 705.13 616.049 703.186 615.951C701.252 615.852 698.199 615.984 696.874 614.515C697.781 613.122 698.499 613.123 700.031 612.564Z"/>
	<defs>
		<linearGradient id="gradient_2" gradientUnits="userSpaceOnUse" x1="103.28335" y1="427.72391" x2="131.46503" y2="433.44907">
			<stop offset="0" stop-color="#DFF4F9"/>
			<stop offset="1" stop-color="#D1FFFE"/>
		</linearGradient>
	</defs>
	<path fill="url(#gradient_2)" d="M150.826 349.985C151.655 350.33 152.804 350.535 153.196 351.351C148.162 360.618 141.988 369.006 137.171 378.489C122.296 407.774 111.811 439.813 104.296 471.736C102.02 481.403 100.61 491.391 98.4883 501.131C98.2254 502.386 97.9215 503.45 98.0539 504.739C97.124 505.378 93.0847 504.694 91.8325 504.488C91.1241 504.372 90.5168 504.168 89.8401 503.938L89.3742 503.007C90.6059 474.333 99.1665 446.35 110.007 419.984C113.079 412.512 116.058 405.004 119.82 397.844C128.581 381.173 139.388 364.909 150.826 349.985Z"/>
	<path fill="#980333" d="M893.935 274.062C895.627 273.883 897.392 273.645 899.092 273.8C905.034 274.342 909.572 279.187 913.19 283.5C925.289 297.924 925.451 309.003 924.887 326.935C924.703 332.798 924.962 338.653 924.425 344.503C922.372 339.444 920.36 334.942 917.175 330.481C907.175 316.632 896.785 303.051 885.099 290.557C880.39 285.523 875.086 281.086 870.377 276.026C878.236 275.65 886.101 274.782 893.935 274.062Z"/>
	<path fill="#F8F9F9" d="M276.362 210.086C281.533 209.711 287.15 210.514 291.691 213.101Q292.152 213.367 292.598 213.656Q293.045 213.945 293.476 214.256Q293.907 214.567 294.322 214.9Q294.737 215.232 295.135 215.585Q295.532 215.939 295.911 216.312Q296.29 216.685 296.65 217.077Q297.009 217.468 297.349 217.878Q297.688 218.287 298.006 218.714Q298.324 219.14 298.62 219.582Q298.916 220.023 299.189 220.48Q299.462 220.936 299.712 221.406Q299.961 221.875 300.187 222.357Q300.412 222.838 300.613 223.331Q300.814 223.823 300.989 224.325Q301.165 224.827 301.315 225.338Q301.464 225.848 301.588 226.365C302.976 232.055 302.014 238.387 298.901 243.358C295.221 249.235 289.964 251.707 283.445 253.113C277.861 253.824 273.428 253.576 268.411 250.604Q267.9 250.304 267.405 249.978Q266.91 249.651 266.432 249.301Q265.954 248.95 265.495 248.575Q265.036 248.2 264.596 247.802Q264.157 247.404 263.738 246.984Q263.319 246.564 262.923 246.124Q262.526 245.683 262.153 245.223Q261.779 244.762 261.429 244.283Q261.08 243.805 260.755 243.309Q260.431 242.812 260.132 242.3Q259.833 241.788 259.561 241.262Q259.288 240.735 259.043 240.195Q258.798 239.656 258.581 239.104Q258.364 238.552 258.175 237.99Q257.987 237.428 257.827 236.857Q257.667 236.286 257.537 235.708C256.292 230.088 257.585 223.767 260.835 219.025C264.53 213.636 270.139 211.199 276.362 210.086Z"/>
	<defs>
		<linearGradient id="gradient_3" gradientUnits="userSpaceOnUse" x1="107.55921" y1="613.91449" x2="87.402847" y2="610.90509">
			<stop offset="0" stop-color="#DEFEFD"/>
			<stop offset="1" stop-color="#F4FCFE"/>
		</linearGradient>
	</defs>
	<path fill="url(#gradient_3)" d="M124.154 519.187C124.977 521.727 120.601 528.847 119.586 531.88C110.609 545.953 102.748 584.437 102.186 601.376C98.7743 619.538 96.6442 638.324 94.6431 656.695C94.1566 661.161 94.1413 665.69 93.5904 670.139C92.9347 675.433 91.3978 680.57 90.741 685.921C89.8194 693.43 90.2517 701.488 88.8245 708.851L87.8745 709.128C87.0636 708.148 86.8888 707.367 86.571 706.164C78.2456 645.28 84.24 571.807 122.179 521.108L124.154 519.187Z"/>
	<defs>
		<linearGradient id="gradient_4" gradientUnits="userSpaceOnUse" x1="223.92932" y1="287.13159" x2="200.08386" y2="340.65927">
			<stop offset="0" stop-color="#052B64"/>
			<stop offset="1" stop-color="#004AAA"/>
		</linearGradient>
	</defs>
	<path fill="url(#gradient_4)" d="M168.369 329.784C175.845 317.699 205.953 289.318 218.589 283.355C225.007 288.565 229.025 296.113 234.337 302.354C237.987 306.643 242.645 310.702 245.773 315.332C246.452 316.337 246.616 317.206 246.769 318.392C237.165 320.199 232.679 323.192 224.36 327.869L220.237 329.583L219.395 329.699C205.027 326.789 183.405 329.484 168.369 329.784Z"/>
	<path fill="#ABB3B6" d="M948.218 626.235C950.785 631.138 956.525 637.702 958.101 641.314C952.858 650.608 942.29 664.651 939.056 673.493C945.875 671.333 952.354 668.91 958.805 665.781C959.579 675.871 959.496 685.907 959.414 696.02C959.198 694.723 958.972 693.459 958.625 692.188L957.742 691.589C955.114 693.016 953.751 697.75 951.886 700.194C946.751 706.923 933.317 722.325 926.795 727.111C924.528 728.774 922.029 729.983 919.199 730.022L918.266 731.238C918.753 711.652 918.796 691.706 917.766 672.146C923.064 662.523 930.371 653.911 936.715 644.963C940.956 638.98 944.55 632.577 948.218 626.235Z"/>
	<path fill="#DA2F01" d="M310.185 329.843C311.326 306.847 311.92 282.907 319.763 261.013C324.274 248.419 331.736 239.562 343.901 233.836C349.753 231.081 355.747 229.689 362.116 228.708C375.02 226.721 421.834 224.692 432.728 228.738C433.678 229.09 433.258 228.99 434.262 229.2C434.45 229.239 434.641 229.27 434.83 229.305C428.825 230.738 423.184 233.351 417.478 235.667C404.269 241.03 386.901 247.037 377.421 258.134C365.434 268.152 354.356 278.495 345.438 291.441C337.064 293.798 314.393 320.077 310.74 327.724C310.387 328.464 310.304 329.041 310.185 329.843Z"/>
	<path fill="#023F88" d="M177.904 924.088C178.589 918.89 180.483 913.477 181.843 908.401C189.265 880.691 200.39 860.331 217.26 837.367C220.699 832.686 224.251 826.861 228.538 822.99C232.46 830.337 236.111 843.614 237.828 851.884C239.033 857.688 238.55 863.719 238.97 869.61C239.569 878.029 240.711 887 242.395 895.265C243.749 901.905 248.722 918.347 247.404 924.132C246.49 925.09 246.339 924.931 245.071 924.979C237.066 925.284 228.792 924.302 220.736 924.289C207.854 924.269 190.068 925.681 177.904 924.088Z"/>
	<path fill="#023F88" d="M366.391 834.083C367.239 835.086 367.618 835.577 367.535 836.94C367.469 838.035 367.219 839.16 367.025 840.24C367.368 841.174 367.231 841.5 368.304 841.917C368.521 842.001 369.31 842.058 369.567 842.081L370.265 843.61C370.035 851.053 370.6 858.152 371.909 865.481C373.425 872.064 374.778 878.757 376.758 885.217C376.441 886.557 376.081 887.738 375.579 889.021C375.035 890.411 374.867 891.527 374.854 893.008C377.314 898.642 378.836 908.829 384.47 911.72Q386.75 917.935 388.894 924.197Q376.492 924.046 364.09 924.262C355.023 924.746 345.784 924.266 336.691 924.318C330.463 925.339 322.583 924.369 316.176 924.306L277.062 924.239C282.305 918.694 288.375 913.934 294.042 908.83C304.104 899.768 314.573 891.102 324.573 882.001C328.48 878.445 332.102 874.581 335.927 870.937C339.779 867.267 344.027 864.029 347.833 860.305C353.934 854.337 358.742 846.965 363.073 839.659C363.885 837.758 365.3 835.85 366.391 834.083Z"/>
	<path fill="#0C3F55" d="M366.391 834.083C367.239 835.086 367.618 835.577 367.535 836.94C367.469 838.035 367.219 839.16 367.025 840.24C367.368 841.174 367.231 841.5 368.304 841.917C368.521 842.001 369.31 842.058 369.567 842.081L370.265 843.61C370.035 851.053 370.6 858.152 371.909 865.481C365.012 859.096 369.76 848.522 366.096 841.768C365.309 840.317 364.496 840.228 363.073 839.659C363.885 837.758 365.3 835.85 366.391 834.083Z"/>
	<path fill="#0C5AB8" d="M364.123 897.148C365.717 894.734 367.937 891.12 370.258 889.433C371.391 888.609 371.976 888.579 373.317 888.777C374.547 890.164 374.51 891.211 374.854 893.008C377.314 898.642 378.836 908.829 384.47 911.72Q386.75 917.935 388.894 924.197Q376.492 924.046 364.09 924.262C355.023 924.746 345.784 924.266 336.691 924.318C339.523 922.116 342.629 920.292 345.48 918.07C353.099 912.132 358.606 905.004 364.123 897.148Z"/>
	<path fill="#0A8BF1" d="M364.123 897.148C364.243 897.081 364.365 897.017 364.483 896.946C367.11 895.361 368.508 892.073 371.062 890.786C371.178 891.327 371.221 891.373 371.17 892.015C370.793 896.776 366.463 901.782 365.478 906.625C364.862 909.652 363.212 915.634 363.78 918.524C364.157 920.444 365.797 921.011 365.57 923.248L364.09 924.262C355.023 924.746 345.784 924.266 336.691 924.318C339.523 922.116 342.629 920.292 345.48 918.07C353.099 912.132 358.606 905.004 364.123 897.148Z"/>
	<defs>
		<linearGradient id="gradient_5" gradientUnits="userSpaceOnUse" x1="162.20442" y1="720.09344" x2="76.11937" y2="730.44196">
			<stop offset="0" stop-color="#0777F0"/>
			<stop offset="1" stop-color="#119AFB"/>
		</linearGradient>
	</defs>
	<path fill="url(#gradient_5)" d="M86.571 706.164C86.8888 707.367 87.0636 708.148 87.8745 709.128L88.8245 708.851C90.2517 701.488 89.8194 693.43 90.741 685.921C91.3978 680.57 92.9347 675.433 93.5904 670.139C94.1413 665.69 94.1566 661.161 94.6431 656.695C96.6442 638.324 98.7743 619.538 102.186 601.376L102.256 602.281C102.52 605.883 101.364 609.461 101.697 612.841C103.262 613.38 103.863 613.585 105.523 613.104C106.462 612.165 106.5 612.161 106.656 610.849C106.529 610.585 106.396 610.322 106.274 610.055C105.749 608.913 105.913 609.384 105.697 608.147L106.207 607.704C109.625 621.95 112.694 636.467 117.06 650.45C118.395 654.727 120.186 658.778 121.689 662.986C122.335 664.792 123.112 669.441 124.529 670.357C125.901 671.243 128.411 671.363 129.822 670.611C131.471 669.731 132.12 668.102 132.824 666.488C134.834 665.177 136.904 663.612 139.414 664.068L139.948 663.808Q144.305 662.545 148.617 661.138C148.8 661.307 148.984 661.473 149.164 661.645C150.618 663.032 149.194 661.627 150.297 662.923C152.727 665.779 157.683 665.967 158.439 670.015C152.83 679.944 145.824 688.174 139.105 697.282C126.057 714.971 110.609 739.632 104.462 760.593C101.14 771.923 99.6312 784.648 98.3243 796.404C97.3718 804.972 96.313 841.927 93.2329 846.839C89.8213 837.512 86.776 824.719 85.7218 814.841C84.9153 807.284 85.2471 799.338 85.1573 791.736Q84.9678 761.62 85.8087 731.515C85.9899 723.148 87.3974 714.482 86.571 706.164Z"/>
	<path fill="#F8F9F9" d="M819.071 70.5546C861.4 78.3188 903.029 111.158 927.06 146.073C936.682 160.053 945.795 174.988 953.103 190.332L955.229 203.037C947.924 202.915 940.489 202.56 933.191 202.942L911.059 202.497C892.052 167.059 874.706 139.773 844.248 112.69C839.086 108.101 834.031 103.327 828.365 99.3591C818.775 92.7471 809.834 85.3298 799.807 79.3287C800.745 78.0286 801.89 76.8737 802.972 75.6909C805.76 74.6882 808.74 74.1231 811.679 73.8123C814.373 72.9446 816.638 72.0171 819.071 70.5546Z"/>
	<path fill="#ABB3B6" d="M802.972 75.6909C805.76 74.6882 808.74 74.1231 811.679 73.8123C811.503 73.9856 811.335 74.1672 811.151 74.3321C809.755 75.5851 807.219 75.5264 805.512 76.2858C807.311 77.079 809.639 77.6164 811.239 78.6947C814.13 80.6426 816.082 83.4957 819.106 85.4393C815.297 85.3849 810.933 84.8902 807.641 82.7907C804.452 80.7577 803.758 79.3605 802.972 75.6909Z"/>
	<path fill="#BCC5C8" d="M802.972 75.6909C803.758 79.3605 804.452 80.7577 807.641 82.7907C810.933 84.8902 815.297 85.3849 819.106 85.4393C822.046 87.9031 828.528 92.3427 828.925 96.3448C829.021 97.3069 828.631 98.4401 828.365 99.3591C818.775 92.7471 809.834 85.3298 799.807 79.3287C800.745 78.0286 801.89 76.8737 802.972 75.6909Z"/>
	<path fill="#F8B30E" d="M310.185 329.843C310.304 329.041 310.387 328.464 310.74 327.724C314.393 320.077 337.064 293.798 345.438 291.441C341.216 301.967 336.214 312.429 333.091 323.341C326.201 347.41 328.589 379.248 338.407 402.264C348.704 426.402 369.452 451.026 392.284 464.375C399.051 468.332 406.432 471.222 413.712 474.084C419.178 476.234 424.556 478.146 430.33 479.317C456.869 484.702 495.832 482.105 520.571 471.215C536.805 464.069 555.775 449.748 567.088 436.097C575.343 426.137 583.021 414.297 589.254 402.987C591.976 398.046 593.997 392.792 596.989 387.986C597.925 386.483 598.697 385.357 600.281 384.46C597.011 411.858 584.855 438.092 565.006 457.343C538.631 482.925 498.634 489.724 463.138 489.229C448.117 489.019 433.445 487.882 418.523 486.152C390.001 482.846 360.113 477.539 339.215 455.877C307.894 423.41 309.282 371.818 310.185 329.843Z"/>
	<path fill="#023F88" d="M186.985 648.428C187.2 648.448 187.413 648.472 187.628 648.489C193.533 648.973 200.321 648.415 206.214 647.828C206.953 647.754 206.723 647.797 207.576 648.138L207.685 648.826C206.272 649.973 204.512 651.042 204.111 652.908C195.276 660.791 185.649 667.716 176.875 675.741C171.593 680.572 167.304 686.529 162.039 691.31C157.086 696.373 153.865 701.113 150.562 707.319L150.158 708.737C147.184 714.498 143.685 722.636 142.724 729C140.713 738.132 137.867 747.055 136.371 756.3C130.948 789.818 131.735 824.423 134.639 858.135C135.514 868.298 136.293 878.461 137.968 888.532C139.075 895.184 141.025 901.548 142.385 908.125Q140.375 907.047 138.431 905.855C120.811 894.963 98.0271 867.151 93.2329 846.839C96.313 841.927 97.3718 804.972 98.3243 796.404C99.6312 784.648 101.14 771.923 104.462 760.593C110.609 739.632 126.057 714.971 139.105 697.282C145.824 688.174 152.83 679.944 158.439 670.015C157.683 665.967 152.727 665.779 150.297 662.923C149.194 661.627 150.618 663.032 149.164 661.645C148.984 661.473 148.8 661.307 148.617 661.138C153.254 658.85 157.859 656.462 162.697 654.622C170.643 652.45 178.758 649.112 186.985 648.428Z"/>
	<path fill="#0F3B25" d="M150.562 707.319C150.463 706.954 150.364 706.588 150.283 706.219C149.706 703.58 150.555 699.554 152.151 697.36C153.565 695.415 156.21 693.141 158.623 692.691C159.779 692.475 160.588 692.103 161.62 691.543C161.761 691.466 161.9 691.387 162.039 691.31C157.086 696.373 153.865 701.113 150.562 707.319Z"/>
	<path fill="#0C5AB8" d="M162.697 654.622C163.806 655.724 164.966 658.22 164.911 659.823C164.761 664.163 160.757 666.806 158.439 670.015C157.683 665.967 152.727 665.779 150.297 662.923C149.194 661.627 150.618 663.032 149.164 661.645C148.984 661.473 148.8 661.307 148.617 661.138C153.254 658.85 157.859 656.462 162.697 654.622Z"/>
	<defs>
		<linearGradient id="gradient_6" gradientUnits="userSpaceOnUse" x1="1034.1444" y1="431.03653" x2="891.55139" y2="384.91275">
			<stop offset="0" stop-color="#363F49"/>
			<stop offset="1" stop-color="#647480"/>
		</linearGradient>
	</defs>
	<path fill="url(#gradient_6)" d="M970.479 189.725C979.9 188.441 1001.89 188.499 1011.49 190.113C1014.28 201.154 1013.01 222.696 1013.01 234.818C1013.02 245.841 1013.58 257.158 1012.65 268.131C1011.79 278.346 1010.47 287.955 1007.36 297.776C1005.49 303.71 1003.3 309.68 1000.87 315.408C998.379 321.258 993.198 328.591 992.58 334.842C991.841 342.323 997.089 369.809 998.355 379.137L998.385 379.651C998.761 385.4 999.817 391.145 1000.49 396.868C1001.97 409.381 1003.46 422.211 1004.08 434.798C1007.33 499.842 997.256 587.445 958.101 641.314C956.525 637.702 950.785 631.138 948.218 626.235C949.597 621.623 953.31 617.233 955.31 612.786C959.262 604.004 962.768 594.397 965.798 585.244C983.117 532.929 986.614 474.763 982.279 420.105C981.07 404.854 979.586 389.279 977.45 374.137C975.942 363.45 971.798 346.467 972.391 336.297C972.693 331.114 980.815 316.821 983.255 310.884C985.726 304.874 987.971 298.592 989.733 292.337C995.187 272.973 994.46 254.204 994.29 234.383C994.204 224.395 994.512 214.414 994.309 204.425C980.378 203.977 966.39 203.817 952.45 203.511C946.061 203.371 939.545 203.647 933.191 202.942C940.489 202.56 947.924 202.915 955.229 203.037L953.103 190.332C955.315 191.271 957.166 190.221 959.438 190.318L962.189 189.698C964.9 189.756 967.795 189.511 970.479 189.725Z"/>
	<path fill="#819097" d="M962.189 189.698C964.9 189.756 967.795 189.511 970.479 189.725C970.661 189.745 970.843 189.766 971.025 189.783C973.512 190.016 986.955 189.265 987.746 189.944C985.908 191.575 981.118 191.161 978.68 191.027C975.611 190.857 972.566 190.469 969.489 190.42C966.198 190.367 962.68 190.728 959.438 190.318L962.189 189.698Z"/>
	<defs>
		<linearGradient id="gradient_7" gradientUnits="userSpaceOnUse" x1="504.06448" y1="792.87524" x2="393.79111" y2="924.86847">
			<stop offset="0" stop-color="#207B05"/>
			<stop offset="1" stop-color="#59C104"/>
		</linearGradient>
	</defs>
	<path fill="url(#gradient_7)" d="M371.839 835.735C373.861 830.065 375.349 824.193 377.505 818.567C379.405 813.61 398.2 770.203 400.286 768.006L403.409 768.825L403.563 769.624C404.614 775.257 404.89 781.197 405.556 786.902C406.497 794.955 407.776 803.002 409.092 811.002Q411.003 822.264 413.501 833.41Q415.999 844.556 419.077 855.556Q422.156 866.556 425.806 877.38Q429.456 888.204 433.668 898.822C436.397 905.719 438.993 912.698 442.637 919.179C446.636 913.869 450.636 908.536 454.961 903.486C460.503 897.017 466.441 890.823 471.675 884.102C490.436 860.009 510.704 824.243 516.216 794.082C517.326 813.04 522.784 832.11 526.974 850.589C525.925 851.494 525.484 851.564 525.454 853.026C525.366 857.269 527.024 862.366 526.834 867.988C526.193 886.971 522.383 905.812 519.822 924.57C507.96 924.812 496.101 924.66 484.242 924.896C473.552 925.109 462.778 925.733 452.092 925.606L402.796 924.789C398.169 924.696 393.511 924.176 388.894 924.197Q386.75 917.935 384.47 911.72C378.836 908.829 377.314 898.642 374.854 893.008C374.867 891.527 375.035 890.411 375.579 889.021C376.081 887.738 376.441 886.557 376.758 885.217C374.778 878.757 373.425 872.064 371.909 865.481C370.6 858.152 370.035 851.053 370.265 843.61C370.529 840.922 371.2 838.353 371.839 835.735Z"/>
	<path fill="#0C3F55" d="M376.758 885.217C379.118 894.142 381.453 902.986 384.47 911.72C378.836 908.829 377.314 898.642 374.854 893.008C374.867 891.527 375.035 890.411 375.579 889.021C376.081 887.738 376.441 886.557 376.758 885.217Z"/>
	<path fill="#0A8BF1" d="M220.237 329.583L224.36 327.869C226.945 333.035 229.819 338.207 231.957 343.572C234.47 349.878 239.886 368.976 239.241 375.556L238.628 376.323C239.99 376.749 240.895 376.977 241.835 378.137L241.424 378.682C220.858 389.028 203.061 400.293 186.359 416.324C183.915 416.149 180.944 419.162 178.933 420.683Q179.62 419.831 180.264 418.947C178.144 420.453 176.709 422.623 174.698 424.05C171 427.971 164.564 433.4 162.937 438.559C163.103 439.38 163.266 440.171 163.504 440.976L162.775 441.958C156.208 450.312 150.027 458.886 144.94 468.23C141.33 474.868 132.512 489.862 132.234 497.081C132.659 497.545 133.009 497.949 133.528 498.309C128.842 502.669 122.012 507.319 118.553 512.543C111.103 518.761 104.061 526.458 97.7455 533.823C98.1635 530.01 97.3256 526.038 97.4494 522.156C97.6723 515.164 99.0649 508.128 98.4883 501.131C100.61 491.391 102.02 481.403 104.296 471.736C111.811 439.813 122.296 407.774 137.171 378.489C141.988 369.006 148.162 360.618 153.196 351.351C152.804 350.535 151.655 350.33 150.826 349.985C155.724 342.508 162.236 336.243 168.369 329.784C183.405 329.484 205.027 326.789 219.395 329.699L220.237 329.583Z"/>
	<path fill="#8FFB7F" d="M210.302 338.928C211.549 339.556 212.026 339.909 212.73 341.122C211.29 342.777 209.684 345.171 207.965 346.469C207.8 345.845 207.811 346.113 207.891 345.439C207.976 344.724 207.775 344.597 207.446 343.972C206.228 344.907 205.234 345.52 203.797 346.068C203.658 346.121 203.518 346.171 203.379 346.223C205.371 343.543 207.926 341.264 210.302 338.928Z"/>
	<path fill="#74E88D" d="M219.395 329.699L220.237 329.583C219.591 334.17 215.712 337.791 212.73 341.122C212.026 339.909 211.549 339.556 210.302 338.928C213.249 335.749 216.248 332.68 219.395 329.699Z"/>
	<path fill="#AFF64A" d="M203.379 346.223C203.518 346.171 203.658 346.121 203.797 346.068C205.234 345.52 206.228 344.907 207.446 343.972C207.775 344.597 207.976 344.724 207.891 345.439C207.811 346.113 207.8 345.845 207.965 346.469C202.664 353.764 196.756 360.55 191.523 367.911Q185.909 375.798 180.431 383.781C178.645 386.416 176.777 389.984 174.589 392.232C173.769 393.075 172.482 393.346 171.365 393.526C170.86 393.608 170.35 393.661 169.842 393.719C177.88 377.615 191.099 359.411 203.379 346.223Z"/>
	<path fill="#3EA20B" d="M158.399 417.952L159.685 419.563C161.005 419.674 161.775 419.558 162.883 418.749C163.186 418.528 163.868 417.885 164.132 417.645C165.532 416.378 167.465 414.99 169.433 414.947C167.78 416.061 166.252 417.259 164.72 418.533L164.622 419.428C164.799 419.448 164.976 419.466 165.152 419.488C168.226 419.865 172.335 421.215 174.413 423.64C174.521 423.767 174.603 423.913 174.698 424.05C171 427.971 164.564 433.4 162.937 438.559C163.103 439.38 163.266 440.171 163.504 440.976L162.775 441.958C156.208 450.312 150.027 458.886 144.94 468.23C143.397 457.37 154.829 452.461 157.332 443.001C158.926 436.977 157.625 429.292 156.921 423.14C156.662 420.88 157.245 419.923 158.399 417.952Z"/>
	<path fill="#5CC106" d="M220.237 329.583L224.36 327.869C226.945 333.035 229.819 338.207 231.957 343.572C234.47 349.878 239.886 368.976 239.241 375.556L238.628 376.323C239.99 376.749 240.895 376.977 241.835 378.137L241.424 378.682C220.858 389.028 203.061 400.293 186.359 416.324C183.915 416.149 180.944 419.162 178.933 420.683Q179.62 419.831 180.264 418.947C178.144 420.453 176.709 422.623 174.698 424.05C174.603 423.913 174.521 423.767 174.413 423.64C172.335 421.215 168.226 419.865 165.152 419.488C164.976 419.466 164.799 419.448 164.622 419.428L164.72 418.533C166.252 417.259 167.78 416.061 169.433 414.947C167.465 414.99 165.532 416.378 164.132 417.645C163.868 417.885 163.186 418.528 162.883 418.749C161.775 419.558 161.005 419.674 159.685 419.563L158.399 417.952C159.644 415.62 160.675 413.141 161.779 410.739C161.574 410.305 161.395 409.978 161.289 409.495C160.775 407.163 168.517 396.021 169.842 393.719C170.35 393.661 170.86 393.608 171.365 393.526C172.482 393.346 173.769 393.075 174.589 392.232C176.777 389.984 178.645 386.416 180.431 383.781Q185.909 375.798 191.523 367.911C196.756 360.55 202.664 353.764 207.965 346.469C209.684 345.171 211.29 342.777 212.73 341.122C215.712 337.791 219.591 334.17 220.237 329.583Z"/>
	<defs>
		<linearGradient id="gradient_8" gradientUnits="userSpaceOnUse" x1="205.96896" y1="413.99597" x2="198.60373" y2="387.62653">
			<stop offset="0" stop-color="#159528"/>
			<stop offset="1" stop-color="#056700"/>
		</linearGradient>
	</defs>
	<path fill="url(#gradient_8)" d="M161.779 410.739C163.945 411.847 165.183 411.809 167.363 410.769C171.482 408.806 178.569 403.149 182.916 400.388C204.81 386.48 213.012 382.462 238.628 376.323C239.99 376.749 240.895 376.977 241.835 378.137L241.424 378.682C220.858 389.028 203.061 400.293 186.359 416.324C183.915 416.149 180.944 419.162 178.933 420.683Q179.62 419.831 180.264 418.947C178.144 420.453 176.709 422.623 174.698 424.05C174.603 423.913 174.521 423.767 174.413 423.64C172.335 421.215 168.226 419.865 165.152 419.488C164.976 419.466 164.799 419.448 164.622 419.428L164.72 418.533C166.252 417.259 167.78 416.061 169.433 414.947C167.465 414.99 165.532 416.378 164.132 417.645C163.868 417.885 163.186 418.528 162.883 418.749C161.775 419.558 161.005 419.674 159.685 419.563L158.399 417.952C159.644 415.62 160.675 413.141 161.779 410.739Z"/>
	<path fill="#F8F9F9" d="M223.766 153.872C235.124 155.453 246.734 155.1 258.165 155.873C263.257 156.217 268.294 157.132 273.375 157.596C281.514 158.338 289.721 158.463 297.878 159C304.965 159.466 333.454 162.794 338.574 161.341C343.923 159.823 349.515 155.52 354.333 152.763Q362.428 148.22 370.706 144.019Q406.293 126.088 442.954 110.471C543.806 68.5516 646.524 48.7492 749.625 96.7604C782.245 111.951 813.46 134.646 835.309 163.508C837.409 166.281 839.747 169.174 841.421 172.224C841.405 172.459 841.378 172.693 841.372 172.929C841.308 175.293 844.145 177.443 844.522 179.934C843.521 180.052 842.775 180.02 842.005 179.287C840.197 177.564 839.889 176.163 837.227 175.312C825.815 163.951 813.699 154.352 800.507 145.15C793.307 137.266 775.699 128.539 765.86 123.092C753.882 116.459 740.888 111.807 727.816 107.844C687.321 95.5668 646.436 92.251 604.297 92.9553C593.713 93.1321 582.98 93.1126 572.447 94.2247C553.312 96.2446 533.452 100.494 514.955 105.795C500.049 108.116 486.016 113.132 471.714 117.706C457.485 122.256 443.137 126.56 429.429 132.56C428.333 132.917 427.106 133.199 426.096 133.749C425.02 134.773 421.654 136.024 421.476 136.587C420.272 140.388 420.931 143.091 415.215 143.004C411.728 142.951 409.167 141.472 405.701 142.761C401.93 144.164 397.243 145.713 393.925 147.907C394.31 148.824 394.61 149.071 394.39 150.066C394.035 151.683 393.688 152.815 394.251 154.401C395.862 156.26 397.409 155.503 399.288 156.57C400.292 157.139 408.369 165.801 410.091 167.307C409.806 168.797 409.219 170.669 409.582 172.142C410.837 172.037 411.752 171.723 412.771 172.663C412.966 172.843 413.091 173.086 413.251 173.297L405.247 172.707C393.564 172.765 382.088 171.877 370.464 170.837Q365.194 170.664 359.934 170.301C356.638 170.242 353.409 170.169 350.139 169.726C337.648 168.667 325.249 168.545 312.752 167.934L227.038 164.01C208.052 179.318 190.113 195.968 171.641 211.895C158.331 223.371 144.372 234.084 130.938 245.408C126.241 249.367 100.755 271.789 97.7455 272.528L97.5713 271.931C99.7063 269.463 102.565 267.342 104.96 265.076Q113.693 256.833 122.266 248.424C142.501 228.48 162.928 208.886 183.502 189.295C193.497 179.777 212.649 160.645 223.766 153.872Z"/>
	<path fill="#F5408B" d="M391.903 147.675C402.46 142.215 414.757 137.351 426.096 133.749C425.02 134.773 421.654 136.024 421.476 136.587C420.272 140.388 420.931 143.091 415.215 143.004C411.728 142.951 409.167 141.472 405.701 142.761C401.93 144.164 397.243 145.713 393.925 147.907C394.31 148.824 394.61 149.071 394.39 150.066C394.035 151.683 393.688 152.815 394.251 154.401C395.862 156.26 397.409 155.503 399.288 156.57C400.292 157.139 408.369 165.801 410.091 167.307C409.806 168.797 409.219 170.669 409.582 172.142C410.837 172.037 411.752 171.723 412.771 172.663C412.966 172.843 413.091 173.086 413.251 173.297L405.247 172.707C393.564 172.765 382.088 171.877 370.464 170.837Q365.194 170.664 359.934 170.301C356.638 170.242 353.409 170.169 350.139 169.726C353.423 164.517 358.409 162.117 364.065 160.317C373.505 156.707 382.285 150.641 391.903 147.675Z"/>
	<path fill="#D86D99" d="M350.139 169.726C353.423 164.517 358.409 162.117 364.065 160.317C363.816 160.543 363.572 160.775 363.318 160.996C361.587 162.501 358.306 163.014 357.214 164.93C357.229 166.213 357.236 166.488 358.285 167.41C359.714 168.665 362.293 169.363 364.064 169.971C362.685 170.121 361.323 170.255 359.934 170.301C356.638 170.242 353.409 170.169 350.139 169.726Z"/>
	<path fill="#D86D99" d="M370.464 170.837C378.903 168.91 396.854 167.406 404.343 172.106Q404.801 172.397 405.247 172.707C393.564 172.765 382.088 171.877 370.464 170.837Z"/>
	<path fill="#BCC5C8" d="M796.07 497.408C788.646 499.195 781.913 502.253 774.226 503.464C749.514 507.358 727.594 499.552 707.685 485.07C684.901 468.498 671.281 441.259 667.04 413.804Q666.818 412.35 666.631 410.892Q666.444 409.433 666.293 407.97Q666.141 406.508 666.026 405.042Q665.911 403.576 665.831 402.107Q665.751 400.639 665.707 399.169Q665.663 397.699 665.655 396.229Q665.647 394.758 665.675 393.288Q665.703 391.818 665.767 390.349Q665.83 388.879 665.93 387.412Q666.029 385.945 666.165 384.481Q666.3 383.017 666.471 381.556Q666.642 380.095 666.848 378.639Q667.055 377.184 667.297 375.733Q667.539 374.283 667.816 372.838Q668.093 371.394 668.406 369.957Q668.718 368.52 669.065 367.091Q669.413 365.662 669.795 364.242Q670.177 362.822 670.594 361.412Q671.01 360.002 671.461 358.602Q671.912 357.202 672.397 355.814Q672.882 354.426 673.4 353.05Q673.919 351.674 674.471 350.311Q675.023 348.948 675.608 347.599Q676.193 346.249 676.811 344.915Q677.429 343.581 678.079 342.262Q678.729 340.943 679.411 339.64Q680.093 338.337 680.807 337.051Q681.521 335.766 682.266 334.498Q683.01 333.23 683.786 331.98Q684.562 330.731 685.367 329.501Q686.173 328.271 687.009 327.06Q687.844 325.85 688.709 324.661C713.276 291.224 750.798 274.614 790.914 268.577C794.893 270.018 798.751 272.416 802.471 274.419C776.669 282.771 744.02 304.847 727.124 326.022C722.065 332.361 717.83 339.801 714.161 347.03C703.619 367.794 698.414 393.565 705.791 416.179C709.871 428.686 719.569 442.752 731.552 448.775C742.253 454.154 752.062 453.701 763.495 451.307C767.369 450.495 771.222 449.485 775.215 449.989C780.811 450.696 786.717 454.594 791.408 457.489C819.482 474.808 844.663 508.897 855.183 540.067C863.989 566.158 870.826 609.201 865.106 636.265C864.035 641.33 862.171 646.01 859.916 650.652C862.576 649.175 865.771 647.738 867.954 645.611C873.771 639.943 878.31 630.815 882.465 623.828C900.963 592.726 912.996 569.184 923.019 534.144Q926.069 523.066 928.391 511.813C929.869 504.397 930.697 496.339 933.744 489.362C934.311 488.062 934.895 487.686 935.891 486.777C935.977 486.699 936.014 486.581 936.075 486.482C938.726 493.163 936.23 516.782 935.34 525.102C930.808 567.471 917.661 597.002 893.285 631.4C886.044 641.618 878.057 652.515 869.213 661.381C857.982 672.64 845.345 682.177 833.003 692.145C843.015 674.691 849.604 648.875 851.41 628.898C852.1 621.274 851.958 613.608 851.86 605.963C851.749 597.406 851.549 589.049 849.745 580.641C842.991 549.159 823.611 515.211 796.07 497.408Z"/>
	<defs>
		<linearGradient id="gradient_9" gradientUnits="userSpaceOnUse" x1="229.62578" y1="817.28296" x2="125.90916" y2="768.94739">
			<stop offset="0" stop-color="#0054F3"/>
			<stop offset="1" stop-color="#0ACEFB"/>
		</linearGradient>
	</defs>
	<path fill="url(#gradient_9)" d="M225.006 637.622C228.557 637.024 230.78 634.279 233.94 632.745L234.373 633.378C235.462 634.94 236.225 636.12 237.986 636.944C239.336 637.576 241.243 638.131 242.033 639.37C241.848 639.501 241.661 639.63 241.477 639.763C240.919 640.167 240.424 640.577 239.917 641.038L240.552 641.754L239.268 643.413L239.448 644.125L240.505 643.837C239.091 647.324 236.661 651.798 236.255 655.487C233.551 661.296 231.382 667.354 229.16 673.36L226.67 681.597C224.285 689.213 223.642 697.904 222.583 705.785C222.282 708.02 222.29 711.059 221.578 713.166C220.948 714.294 220.333 715.431 219.684 716.548C216.435 722.137 217.842 729.983 217.369 736.201C217.447 747.586 218.011 760.447 222.971 770.924C223.522 776.449 224.442 781.914 225.196 787.412C226.857 797.618 229.539 807.629 231.336 817.824C230.552 819.772 229.849 821.341 228.538 822.99C224.251 826.861 220.699 832.686 217.26 837.367C200.39 860.331 189.265 880.691 181.843 908.401C180.483 913.477 178.589 918.89 177.904 924.088Q171.948 922.523 166.071 920.681C157.638 918.469 149.304 913.254 142.385 908.125C141.025 901.548 139.075 895.184 137.968 888.532C136.293 878.461 135.514 868.298 134.639 858.135C131.735 824.423 130.948 789.818 136.371 756.3C137.867 747.055 140.713 738.132 142.724 729C143.685 722.636 147.184 714.498 150.158 708.737L150.562 707.319C153.865 701.113 157.086 696.373 162.039 691.31C167.304 686.529 171.593 680.572 176.875 675.741C185.649 667.716 195.276 660.791 204.111 652.908L222.549 639.156L225.006 637.622Z"/>
	<path fill="#0A8BF1" d="M216.443 743.863C217.3 741.881 216.771 738.518 217.369 736.201C217.447 747.586 218.011 760.447 222.971 770.924C223.522 776.449 224.442 781.914 225.196 787.412C226.857 797.618 229.539 807.629 231.336 817.824C230.552 819.772 229.849 821.341 228.538 822.99C224.251 826.861 220.699 832.686 217.26 837.367C200.39 860.331 189.265 880.691 181.843 908.401C180.483 913.477 178.589 918.89 177.904 924.088Q171.948 922.523 166.071 920.681C169.791 919.265 173.304 922.601 177.677 921.047C178.357 916.392 180.098 911.722 181.335 907.174C188.171 882.055 197.423 862.78 212.748 841.809C216.551 836.605 227.26 824.555 228.735 819.197C229.124 817.786 226.916 814.401 226.451 812.944C225.056 808.579 223.123 800.048 222.904 795.515Q223.796 794.783 224.671 794.029C224.976 792.002 223.75 790.39 223.849 788.373C223.863 788.091 223.89 787.809 223.91 787.527C223.579 786.436 223.418 785.513 222.655 784.64L222.339 789.313C220.017 779.561 215.42 753.245 216.443 743.863Z"/>
	<path fill="#0C5AB8" d="M217.65 678.107C218.913 676.643 220.624 674.561 222.531 673.96C224.062 673.478 224.523 673.833 225.872 674.491C226.169 676.841 226.579 679.231 226.67 681.597C224.285 689.213 223.642 697.904 222.583 705.785C222.282 708.02 222.29 711.059 221.578 713.166C220.948 714.294 220.333 715.431 219.684 716.548C216.435 722.137 217.842 729.983 217.369 736.201C216.771 738.518 217.3 741.881 216.443 743.863L216.263 743.269L214.792 743.88C210.486 740.834 207.583 717.282 202.768 710.04C200.147 715.373 189.551 738.604 186.593 741.73C186.811 740.224 187.375 739.055 188.025 737.693C189.789 733.997 192.056 730.597 193.919 726.95C198.616 717.754 202.996 708.306 207.589 699.04C211.001 692.159 213.644 684.638 217.65 678.107Z"/>
	<path fill="#1F860F" d="M225.006 637.622C228.557 637.024 230.78 634.279 233.94 632.745L234.373 633.378C235.462 634.94 236.225 636.12 237.986 636.944C239.336 637.576 241.243 638.131 242.033 639.37C241.848 639.501 241.661 639.63 241.477 639.763C240.919 640.167 240.424 640.577 239.917 641.038L240.552 641.754L239.268 643.413L239.448 644.125L240.505 643.837C239.091 647.324 236.661 651.798 236.255 655.487C233.551 661.296 231.382 667.354 229.16 673.36L226.67 681.597C226.579 679.231 226.169 676.841 225.872 674.491C224.523 673.833 224.062 673.478 222.531 673.96C220.624 674.561 218.913 676.643 217.65 678.107C216.457 677.54 215.746 676.294 214.971 675.263C203.446 682.641 190.942 689.139 179.993 697.283C173.446 702.152 167.681 708.144 161.449 713.404C157.653 717.725 149.8 728.683 143.61 728.977C143.315 728.991 143.019 728.992 142.724 729C143.685 722.636 147.184 714.498 150.158 708.737L150.562 707.319C153.865 701.113 157.086 696.373 162.039 691.31C167.304 686.529 171.593 680.572 176.875 675.741C185.649 667.716 195.276 660.791 204.111 652.908L222.549 639.156L225.006 637.622Z"/>
	<path fill="#31BFC1" d="M214.971 675.263C217.72 672.987 222.996 669.703 226.584 669.547L227.069 670.017C226.724 671.527 226.306 673.004 225.872 674.491C224.523 673.833 224.062 673.478 222.531 673.96C220.624 674.561 218.913 676.643 217.65 678.107C216.457 677.54 215.746 676.294 214.971 675.263Z"/>
	<path fill="#3EA20B" d="M142.724 729C143.685 722.636 147.184 714.498 150.158 708.737C150.556 712.192 147.732 716.631 146.616 719.914C148.032 721.037 149.417 722.177 150.77 723.374C153.394 720.383 157.524 714.491 161.449 713.404C157.653 717.725 149.8 728.683 143.61 728.977C143.315 728.991 143.019 728.992 142.724 729Z"/>
	<defs>
		<linearGradient id="gradient_10" gradientUnits="userSpaceOnUse" x1="677.09863" y1="793.73914" x2="790.15381" y2="744.00568">
			<stop offset="0" stop-color="#A1002F"/>
			<stop offset="1" stop-color="#CF0539"/>
		</linearGradient>
	</defs>
	<path fill="url(#gradient_10)" d="M618.773 631.518C619.057 631.607 619.342 631.691 619.624 631.784C622.724 632.81 625.773 635.074 628.721 636.545Q636.911 640.564 645.52 643.583C674.453 653.974 709.388 651.819 737.724 640.386C740.657 641.344 744.965 641.961 747.541 643.422C747.806 654.733 750.023 665.284 751.874 676.369C752.824 682.06 753.521 687.81 754.646 693.47C757.55 708.077 761.641 722.476 765.814 736.759Q770.421 753.057 775.898 769.083Q781.375 785.11 787.707 800.819Q794.038 816.527 801.205 831.873Q808.373 847.218 816.355 862.156C823.995 876.178 832.985 888.813 841.916 901.99C830.803 914.729 802.482 924.047 785.766 925.15C780.822 925.476 775.081 925.782 770.2 924.844C771.644 924.792 772.985 924.675 774.407 924.412C776.297 920.326 756.527 901.003 752.876 896.824Q745.459 888.351 738.357 879.611Q731.255 870.872 724.478 861.879Q717.701 852.885 711.258 843.649Q704.815 834.413 698.715 824.947Q692.615 815.482 686.866 805.799Q681.117 796.116 675.727 786.229Q670.336 776.342 665.311 766.264Q660.287 756.186 655.635 745.931C643.439 719.681 632.639 692.256 625.681 664.124C623.022 653.375 619.199 642.66 618.773 631.518Z"/>
	<path fill="#BCC5C8" d="M918.266 731.238L919.199 730.022C922.029 729.983 924.528 728.774 926.795 727.111C933.317 722.325 946.751 706.923 951.886 700.194C953.751 697.75 955.114 693.016 957.742 691.589L958.625 692.188C958.972 693.459 959.198 694.723 959.414 696.02L959.521 783.549C959.543 802.804 960.611 822.708 958.916 841.87C955.223 883.597 933.481 923.058 904.429 952.56C870.163 987.357 825.471 1006.28 776.682 1006.48L456.885 1006.53L333.668 1006.56C313.136 1006.54 292.162 1007.41 271.673 1006.39C277.458 1004.68 319.645 1005.8 328.491 1005.82C331.462 1005.83 336.625 1006.56 339.286 1005.6C340.167 1005.29 340.273 1004.47 340.657 1003.68L343.054 1003.28L343.3 1002.45C338.242 999.143 330.995 1000.22 325.384 999.049C325.952 997.963 325.736 998.483 326.072 997.507C322.149 998.439 318.762 999.591 314.71 1000.15C310.449 1000.73 298.52 995.929 291.884 995.566C286.241 995.258 280.367 995.331 274.752 995.951C270.774 996.39 265.485 998.086 261.635 997.684C258.983 997.407 256.91 993.847 254.4 993.939C253.402 995.078 253.355 996.727 253.111 998.173L252.39 997.141L252.523 997.622C251.447 996.106 249.905 994.249 248.124 993.576C243.834 991.954 236.219 992.94 232.203 995.019C230.519 995.89 228.97 997.279 227.216 997.97C224.218 999.152 216.632 1001.9 213.777 1000.53C212.758 1000.05 211.722 999.602 210.692 999.139L209.26 999.81C208.309 999.79 207.722 999.775 206.867 999.318C202.835 997.166 194.832 999.355 192.186 997.518C190.089 996.062 189.283 993.345 186.842 991.966C176.571 991.268 166.302 988.658 156.188 986.824C153.236 986.288 149.979 986.429 147.128 985.57L147.921 983.696L147.244 982.923C146.937 983.086 146.595 983.282 146.265 983.385C145.046 983.765 144.43 983.82 143.368 984.619C143.636 985.771 145.034 986.629 145.913 987.424L145.463 988.417C141.315 988.486 138.804 990.198 134.777 988.22L134.457 987.199C134.646 986.583 134.848 986.059 135.19 985.509C135.517 984.981 135.882 984.451 136.13 983.879C138.242 979.003 134.153 974.985 132.655 970.707C132.848 970.128 132.98 969.858 132.89 969.242C131.155 968.84 129.369 968.559 127.841 967.601C128.317 966.634 128.556 965.879 128.721 964.813C125.854 962.252 118.92 965.784 115.156 962.294C115.217 961.108 115.932 960.413 116.581 959.441L116.32 958.982C115.444 958.818 114.961 958.668 114.131 958.277C114.135 956.548 115.974 954.839 117.022 953.446L116.721 952.723C115.975 952.255 115.11 951.789 114.446 951.217C113.406 950.321 113.312 950.177 113.29 948.903C113.981 948.833 113.73 948.793 114.366 948.967C115.681 949.326 116.899 949.627 118.249 949.837L118.667 949.209C118.061 947.741 117.54 946.179 117.696 944.575C118.797 944.572 119.534 944.497 120.517 944.009C120.803 943.867 121.084 943.718 121.368 943.572C142.406 956.586 166.605 965.372 191.447 966.472C206.678 967.147 222.016 966.763 237.265 966.738L314.491 966.644L568.412 966.57L717.001 966.781L760.192 966.579C773.232 966.462 786.689 966.664 799.556 964.398C826.001 959.742 851.596 946.457 871.284 928.245C880.233 919.966 887.736 910.226 894.355 900.038C907.041 880.509 915.446 858.82 917.313 835.464C918.234 823.944 917.851 812.23 917.892 800.678C917.928 790.358 918.207 780.039 918.169 769.719C918.122 756.88 917.775 744.075 918.266 731.238Z"/>
	<path fill="#F8F9F9" d="M859.916 650.652C862.171 646.01 864.035 641.33 865.106 636.265C870.826 609.201 863.989 566.158 855.183 540.067C844.663 508.897 819.482 474.808 791.408 457.489C786.717 454.594 780.811 450.696 775.215 449.989C771.222 449.485 767.369 450.495 763.495 451.307C752.062 453.701 742.253 454.154 731.552 448.775C719.569 442.752 709.871 428.686 705.791 416.179C698.414 393.565 703.619 367.794 714.161 347.03C717.83 339.801 722.065 332.361 727.124 326.022C744.02 304.847 776.669 282.771 802.471 274.419C817.253 280.706 831.245 290.12 843.736 300.161C878.809 328.357 903.476 362.641 920.312 404.352C928.895 425.617 933.299 447.236 935.206 470.048C935.664 475.526 935.688 481.011 936.075 486.482C936.014 486.581 935.977 486.699 935.891 486.777C934.895 487.686 934.311 488.062 933.744 489.362C930.697 496.339 929.869 504.397 928.391 511.813Q926.069 523.066 923.019 534.144C912.996 569.184 900.963 592.726 882.465 623.828C878.31 630.815 873.771 639.943 867.954 645.611C865.771 647.738 862.576 649.175 859.916 650.652Z"/>
	<defs>
		<linearGradient id="gradient_11" gradientUnits="userSpaceOnUse" x1="637.17096" y1="256.92661" x2="618.15948" y2="101.04724">
			<stop offset="0" stop-color="#E40028"/>
			<stop offset="1" stop-color="#FF1885"/>
		</linearGradient>
	</defs>
	<path fill="url(#gradient_11)" d="M514.955 105.795C533.452 100.494 553.312 96.2446 572.447 94.2247C582.98 93.1126 593.713 93.1321 604.297 92.9553C646.436 92.251 687.321 95.5668 727.816 107.844C740.888 111.807 753.882 116.459 765.86 123.092C775.699 128.539 793.307 137.266 800.507 145.15C813.699 154.352 825.815 163.951 837.227 175.312C839.889 176.163 840.197 177.564 842.005 179.287C842.775 180.02 843.521 180.052 844.522 179.934C844.145 177.443 841.308 175.293 841.372 172.929C841.378 172.693 841.405 172.459 841.421 172.224C845.979 178.369 850.526 185.176 853.604 192.207C859.587 200.92 864.961 217.798 865.604 228.377C861.271 229.588 856.454 229.909 852.007 230.675C843.921 232.068 834.616 235.303 826.368 234.37C818.807 233.515 810.918 228.25 803.734 225.627C785.574 218.996 764.275 219.835 745.22 221.338C723.06 223.087 693.684 233.301 672.839 241.413C664.76 244.557 657.203 248.513 648.804 250.843C646.402 248.112 644.488 244.782 642.363 241.827C638.455 236.391 633.433 232.035 628.109 228.028C617.995 220.416 605.696 215.214 594.016 210.521C550.873 193.187 505.62 184.092 459.625 178.248C451.09 177.164 442.36 176.272 433.791 175.584C427.361 175.068 420.386 175.124 414.113 173.53C413.825 173.456 413.539 173.375 413.251 173.297C413.091 173.086 412.966 172.843 412.771 172.663C411.752 171.723 410.837 172.037 409.582 172.142C409.219 170.669 409.806 168.797 410.091 167.307C408.369 165.801 400.292 157.139 399.288 156.57C397.409 155.503 395.862 156.26 394.251 154.401C393.688 152.815 394.035 151.683 394.39 150.066C394.61 149.071 394.31 148.824 393.925 147.907C397.243 145.713 401.93 144.164 405.701 142.761C409.167 141.472 411.728 142.951 415.215 143.004C420.931 143.091 420.272 140.388 421.476 136.587C421.654 136.024 425.02 134.773 426.096 133.749C427.106 133.199 428.333 132.917 429.429 132.56C443.137 126.56 457.485 122.256 471.714 117.706C486.016 113.132 500.049 108.116 514.955 105.795Z"/>
	<path fill="#F9D2E7" d="M841.421 172.224C845.979 178.369 850.526 185.176 853.604 192.207L853.132 192.435C850.25 191.093 840.176 178.669 837.227 175.312C839.889 176.163 840.197 177.564 842.005 179.287C842.775 180.02 843.521 180.052 844.522 179.934C844.145 177.443 841.308 175.293 841.372 172.929C841.378 172.693 841.405 172.459 841.421 172.224Z"/>
	<path fill="#F9D2E7" d="M660.949 140.022C664.236 140.199 667.72 141.302 670.614 142.896C674.603 145.092 677.821 148.443 679.117 152.885C680.091 156.225 679.798 159.847 677.986 162.853C674.939 167.91 669.697 169.424 664.329 170.673C660.25 170.785 656.303 170.4 652.614 168.503C649.077 166.683 646.38 163.741 645.26 159.888C644.206 156.261 644.596 152.318 646.594 149.085C649.65 144.143 655.483 141.364 660.949 140.022Z"/>
	<path fill="#F5408B" d="M514.955 105.795C533.452 100.494 553.312 96.2446 572.447 94.2247C582.98 93.1126 593.713 93.1321 604.297 92.9553C646.436 92.251 687.321 95.5668 727.816 107.844C740.888 111.807 753.882 116.459 765.86 123.092C775.699 128.539 793.307 137.266 800.507 145.15C800.194 145.566 799.918 145.86 799.741 146.352C796.328 155.869 821.243 187.557 826.625 197.045C825.622 196.413 824.166 194.081 823.226 193.932C819.43 193.329 817.219 195.657 813.079 192.839C807.672 189.159 803.463 184.22 798.697 179.834C794.061 175.566 788.965 171.589 784.032 167.666C763.268 151.154 737.991 142.62 713.511 133.182C712.779 134.12 711.724 135.601 710.658 136.159C709.513 136.759 708.621 136.521 707.439 136.213C700.022 135.177 693.599 131.572 686.784 128.666C680.783 126.107 674.751 123.878 668.425 122.242C645.904 116.414 622.432 113.805 599.223 112.501C593.041 112.154 586.837 112.321 580.649 112.013C564.295 111.2 546.668 109.9 530.411 111.897C529.086 112.873 526.503 112.815 524.818 112.921C520.647 113.185 515.884 116.693 511.539 117.812C511.298 117.874 511.06 117.944 510.819 118.003C507.939 118.698 505.422 117.089 502.675 118.303C497.23 120.71 490.773 122.667 484.767 122.672C478.146 122.677 468.843 116.201 464.012 127.412C460.643 128.127 449.33 130.49 446.693 128.527C446.413 128.319 445.936 127.836 445.674 127.578C440.193 128.152 434.854 133.264 429.429 132.56C443.137 126.56 457.485 122.256 471.714 117.706C486.016 113.132 500.049 108.116 514.955 105.795Z"/>
	<defs>
		<linearGradient id="gradient_12" gradientUnits="userSpaceOnUse" x1="614.25146" y1="124.61054" x2="616.87885" y2="101.13781">
			<stop offset="0" stop-color="#FDB8D3"/>
			<stop offset="1" stop-color="#FEFFFF"/>
		</linearGradient>
	</defs>
	<path fill="url(#gradient_12)" d="M520.271 111.839C521.151 110.708 521.4 110.166 522.794 109.711C526.724 108.429 531.174 108.202 535.239 107.338C541.522 106.003 547.658 103.943 554.047 103.134C568.985 101.241 581.394 100.746 596.438 100.7C626.215 100.609 647.896 103.142 675.848 113.614C684.055 116.688 692.427 119.731 699.401 125.205C702.193 127.397 707.917 132.132 708.737 135.59C707.927 136.224 708.368 136.034 707.439 136.213C700.022 135.177 693.599 131.572 686.784 128.666C680.783 126.107 674.751 123.878 668.425 122.242C645.904 116.414 622.432 113.805 599.223 112.501C593.041 112.154 586.837 112.321 580.649 112.013C564.295 111.2 546.668 109.9 530.411 111.897C527.045 111.407 523.67 112.078 520.271 111.839Z"/>
	<defs>
		<linearGradient id="gradient_13" gradientUnits="userSpaceOnUse" x1="850.74835" y1="801.41565" x2="381.62021" y2="498.65405">
			<stop offset="0" stop-color="#FF0F02"/>
			<stop offset="1" stop-color="#F68001"/>
		</linearGradient>
	</defs>
	<path fill="url(#gradient_13)" d="M361.853 527.831C371.886 530.622 382.347 533.387 392.598 535.205C427.689 541.43 482.584 543.301 517.448 535.852Q524.672 534.364 531.752 532.3Q538.833 530.237 545.725 527.612Q552.618 524.987 559.277 521.817Q565.936 518.648 572.32 514.954Q575.901 512.946 579.356 510.728Q582.811 508.511 586.128 506.091Q589.444 503.671 592.611 501.058Q595.778 498.445 598.783 495.648Q601.788 492.851 604.621 489.879Q607.454 486.908 610.105 483.773Q612.756 480.638 615.215 477.351Q617.674 474.063 619.933 470.635C624.719 463.225 628.936 454.474 634.698 447.844C633.298 456.496 630.695 464.291 628.218 472.647C625.806 480.786 623.637 489.153 621.552 497.39Q620.515 501.49 619.595 505.617Q618.676 509.745 617.873 513.897Q617.071 518.049 616.386 522.222Q615.702 526.396 615.136 530.586Q614.57 534.777 614.124 538.982Q613.677 543.188 613.35 547.404Q613.023 551.62 612.815 555.844Q612.608 560.068 612.52 564.296Q612.433 568.524 612.465 572.752Q612.497 576.981 612.65 581.207Q612.802 585.433 613.074 589.654Q613.346 593.874 613.738 598.084Q614.129 602.295 614.64 606.493Q615.151 610.691 615.781 614.873Q616.411 619.054 617.159 623.217Q617.907 627.379 618.773 631.518C619.199 642.66 623.022 653.375 625.681 664.124C632.639 692.256 643.439 719.681 655.635 745.931Q660.287 756.186 665.312 766.264Q670.336 776.342 675.727 786.229Q681.117 796.116 686.866 805.799Q692.615 815.482 698.715 824.948Q704.815 834.413 711.258 843.649Q717.701 852.885 724.478 861.879Q731.255 870.872 738.357 879.611Q745.459 888.351 752.876 896.824C756.527 901.003 776.297 920.326 774.407 924.412C772.985 924.675 771.644 924.792 770.2 924.844C751.858 924.481 733.581 925.553 715.245 924.799C715.606 923.534 715.739 922.56 715.716 921.244C713.583 916.309 705.237 913.46 700.691 910.921C684.587 901.926 669.372 890.709 654.67 879.599C644.848 872.177 635.83 863.339 626.849 854.923C618.169 848.13 610.472 838.408 603.31 830.08Q601.44 827.917 599.609 825.721Q597.778 823.525 595.986 821.297Q594.194 819.07 592.441 816.811Q590.689 814.552 588.976 812.262Q587.264 809.972 585.593 807.653Q583.921 805.333 582.291 802.984Q580.66 800.636 579.071 798.258Q577.483 795.881 575.936 793.476Q574.39 791.072 572.886 788.64Q571.382 786.208 569.922 783.75Q568.461 781.292 567.044 778.809Q565.627 776.325 564.255 773.817Q562.882 771.309 561.553 768.778Q560.225 766.246 558.942 763.691Q557.658 761.136 556.42 758.559Q555.182 755.982 553.989 753.383Q552.797 750.784 551.651 748.165Q550.504 745.546 549.404 742.907Q548.305 740.268 547.251 737.61Q546.198 734.952 545.192 732.275Q544.186 729.599 543.228 726.905Q542.269 724.212 541.358 721.502Q540.447 718.791 539.584 716.066Q538.721 713.34 537.907 710.599Q537.092 707.859 536.326 705.104Q535.56 702.349 534.843 699.582Q534.125 696.814 533.457 694.034Q532.789 691.254 532.169 688.463Q531.55 685.672 530.981 682.87Q530.411 680.068 529.891 677.257Q529.37 674.445 528.9 671.625Q528.43 668.805 528.009 665.977C526.611 657.112 525.684 648.054 524.949 639.109C524.473 633.313 525.04 619.282 522.973 614.506C521.962 615.176 521.768 617.118 521.442 618.294C519.828 624.124 516.151 629.626 513.668 635.172C512.425 637.949 511.597 640.899 510.326 643.661C508.535 647.554 506.286 651.243 504.451 655.121C491.959 681.517 479.202 707.406 463.215 731.931C458.453 720.485 456.557 707.264 454.634 695.07Q453.503 688.185 452.632 681.263Q451.76 674.341 451.15 667.391Q450.54 660.44 450.192 653.472Q449.844 646.504 449.758 639.527Q449.673 632.551 449.85 625.576Q450.027 618.602 450.466 611.639Q450.905 604.676 451.606 597.734Q452.307 590.792 453.269 583.882C454.452 575.373 456.755 567.179 458.055 558.727C455.749 558.881 453.444 559.142 451.143 559.36C435.146 560.286 406.656 557.339 390.576 554.366C380.496 552.502 370.34 549.734 360.214 548.31L359.725 548.245C359.558 543.596 360.304 532.03 361.853 527.831Z"/>
	<defs>
		<linearGradient id="gradient_14" gradientUnits="userSpaceOnUse" x1="506.38901" y1="887.3902" x2="-3.0679479" y2="165.75203">
			<stop offset="0" stop-color="#B7BEBF"/>
			<stop offset="1" stop-color="white"/>
		</linearGradient>
	</defs>
	<path fill="url(#gradient_14)" d="M413.974 65.215C415.841 66.679 416.991 69.4589 417.254 71.7885C417.524 74.1717 417.12 77.2473 418.212 79.396C406.881 83.8738 396.22 89.7378 385.482 95.4546C379.168 98.816 368.783 105.604 362.037 106.961C355.356 108.306 347.397 107.167 340.551 107.043C333.365 106.914 326.169 107.072 318.982 107.131L231.447 107.34C211.243 107.385 187.602 105.995 167.796 109.236C123.019 116.562 84.4537 150.715 66.5296 191.646Q65.127 194.86 63.8611 198.131Q62.5952 201.401 61.4683 204.722Q60.3413 208.043 59.3552 211.409Q58.3691 214.774 57.5257 218.178Q56.6823 221.582 55.983 225.019Q55.2838 228.455 54.7299 231.918Q54.176 235.381 53.7686 238.865Q53.3611 242.348 53.1007 245.845C52.2718 257.457 53.1948 269.28 53.3355 280.913Q53.5045 307.579 53.2605 334.244L52.851 552.45L52.5853 729.572L52.4869 789.735C52.4869 802.858 52.1908 816.141 52.9089 829.245C53.6711 843.157 56.3578 856.432 61.4995 869.406C74.8094 902.99 92.1766 922.82 121.368 943.572C121.084 943.718 120.803 943.867 120.517 944.009C119.534 944.497 118.797 944.572 117.696 944.575C117.54 946.179 118.061 947.741 118.667 949.209L118.249 949.837C116.899 949.627 115.681 949.326 114.366 948.967C113.73 948.793 113.981 948.833 113.29 948.903C113.312 950.177 113.406 950.321 114.446 951.217C115.11 951.789 115.975 952.255 116.721 952.723L117.022 953.446C115.974 954.839 114.135 956.548 114.131 958.277C114.961 958.668 115.444 958.818 116.32 958.982L116.581 959.441C115.932 960.413 115.217 961.108 115.156 962.294C118.92 965.784 125.854 962.252 128.721 964.813C128.556 965.879 128.317 966.634 127.841 967.601C129.369 968.559 131.155 968.84 132.89 969.242C132.98 969.858 132.848 970.128 132.655 970.707C134.153 974.985 138.242 979.003 136.13 983.879C135.882 984.451 135.517 984.981 135.19 985.509C134.848 986.059 134.646 986.583 134.457 987.199L134.777 988.22C138.804 990.198 141.315 988.486 145.463 988.417L145.913 987.424C145.034 986.629 143.636 985.771 143.368 984.619C144.43 983.82 145.046 983.765 146.265 983.385C146.595 983.282 146.937 983.086 147.244 982.923L147.921 983.696L147.128 985.57C149.979 986.429 153.236 986.288 156.188 986.824C166.302 988.658 176.571 991.268 186.842 991.966C189.283 993.345 190.089 996.062 192.186 997.518C194.832 999.355 202.835 997.166 206.867 999.318C207.722 999.775 208.309 999.79 209.26 999.81L210.692 999.139C211.722 999.602 212.758 1000.05 213.777 1000.53C216.632 1001.9 224.218 999.152 227.216 997.97C228.97 997.279 230.519 995.89 232.203 995.019C236.219 992.94 243.834 991.954 248.124 993.576C249.905 994.249 251.447 996.106 252.523 997.622L252.39 997.141L253.111 998.173C253.355 996.727 253.402 995.078 254.4 993.939C256.91 993.847 258.983 997.407 261.635 997.684C265.485 998.086 270.774 996.39 274.752 995.951C280.367 995.331 286.241 995.258 291.884 995.566C298.52 995.929 310.449 1000.73 314.71 1000.15C318.762 999.591 322.149 998.439 326.072 997.507C325.736 998.483 325.952 997.963 325.384 999.049C330.995 1000.22 338.242 999.143 343.3 1002.45L343.054 1003.28L340.657 1003.68C340.273 1004.47 340.167 1005.29 339.286 1005.6C336.625 1006.56 331.462 1005.83 328.491 1005.82C319.645 1005.8 277.458 1004.68 271.673 1006.39C263.328 1007.21 182.872 1007.09 177.484 1005.1L176.354 1005.33C140.109 999.262 115.597 990.42 86.2312 968.294Q84.3521 966.878 82.5087 965.416Q80.6654 963.954 78.859 962.447Q77.0527 960.939 75.2844 959.387Q73.5161 957.835 71.787 956.24Q70.0579 954.644 68.369 953.006Q66.6801 951.368 65.0326 949.688Q63.385 948.009 61.7798 946.289Q60.1745 944.569 58.6126 942.809Q57.0506 941.05 55.533 939.252Q54.0153 937.454 52.5429 935.619Q51.0704 933.784 49.6441 931.913Q48.2178 930.042 46.8385 928.136Q45.4592 926.23 44.1277 924.29Q42.7963 922.35 41.5135 920.378Q40.2308 918.406 38.9975 916.402Q37.7643 914.399 36.5813 912.365Q35.3983 910.331 34.2663 908.269Q33.1342 906.206 32.0539 904.116Q30.9736 902.026 29.9456 899.91Q28.9176 897.794 27.9426 895.653Q26.9676 893.511 26.0463 891.346Q25.1249 889.182 24.2576 886.995Q23.3904 884.808 22.5779 882.6Q21.7654 880.392 21.0081 878.164Q20.2508 875.937 19.5491 873.691Q18.8475 871.445 18.202 869.183Q17.5564 866.921 16.9674 864.643Q16.3784 862.365 15.8463 860.073Q15.3141 857.782 14.8392 855.477Q14.3643 853.173 13.9469 850.858Q13.5294 848.542 13.1698 846.217Q12.8101 843.892 12.5084 841.559L10.9873 427.928L10.9039 291.999C11.1226 267.668 9.8276 242.863 13.7322 218.767C18.4521 189.638 31.1962 161.741 48.9665 138.296C77.8854 100.142 124.668 72.4149 172.444 67.4278C179.867 66.6529 187.573 66.7775 195.036 66.6332Q220.454 66.3366 245.873 66.5254L356.208 66.393Q374.87 66.4952 393.531 66.2415C399.413 66.1379 405.577 66.3489 411.405 65.4994C411.6 65.471 411.794 65.4377 411.989 65.4069L413.974 65.215Z"/>
	<path fill="#BCC5C8" d="M259.135 1001.45C260.128 1001.35 261.041 1001.3 262.038 1001.36L262.031 1002.23C261.477 1002.67 261.271 1002.62 260.593 1002.73L259.135 1001.45Z"/>
	<path fill="#BCC5C8" d="M74.9934 933.239C76.2708 933.121 77.5212 933.124 78.8015 933.138C80.0857 933.861 80.1903 934.12 80.9183 935.424C80.2977 935.614 79.3695 935.99 78.7298 935.966C77.062 935.903 76.0754 934.336 74.9934 933.239Z"/>
	<path fill="#BCC5C8" d="M200.834 999.053L203.123 999.076L203.582 999.8C202.804 1000.75 202.37 1000.49 201.195 1000.61L202.91 1001.29C203.158 1002.92 203.491 1003.74 202.842 1005.28C200.427 1006.57 188.263 1005.63 184.609 1005.62C187.805 1004.83 191.27 1005.63 194.579 1005.2C195.003 1004.37 194.993 1004.77 194.738 1003.99C192.969 1003.45 191.221 1002.89 189.479 1002.27C192.906 1001.77 198.518 1001.65 200.834 999.053Z"/>
	<path fill="#F8F9F9" d="M434.83 229.305C439.18 228.939 443.455 228.649 447.812 229.095C467.528 230.372 486.855 232.457 506.234 236.411C511.318 237.448 516.816 238.269 521.64 240.211C527.06 241.71 532.557 243.11 537.887 244.904C543.47 246.783 548.919 249.081 554.588 250.694C555.58 251.823 556.476 252.933 557.335 254.166C561.362 259.943 568.636 262.075 573.97 266.364C585.937 275.987 593.079 290.668 600.076 304.005C601.624 306.956 603.824 310.216 604.917 313.304C607.517 322.002 606.063 331.944 605.773 340.877C605.635 345.134 605.994 349.79 605.169 353.962C604.525 364.217 602.6 374.463 600.281 384.46C598.697 385.357 597.925 386.483 596.989 387.986C593.997 392.792 591.976 398.046 589.254 402.987C583.021 414.297 575.343 426.137 567.088 436.097C555.775 449.748 536.805 464.069 520.571 471.215C495.832 482.105 456.869 484.702 430.33 479.317C424.556 478.146 419.178 476.234 413.712 474.084C406.432 471.222 399.051 468.332 392.284 464.375C369.452 451.026 348.704 426.402 338.407 402.264C328.589 379.248 326.201 347.41 333.091 323.341C336.214 312.429 341.216 301.967 345.438 291.441C354.356 278.495 365.434 268.152 377.421 258.134C386.901 247.037 404.269 241.03 417.478 235.667C423.184 233.351 428.825 230.738 434.83 229.305Z"/>
	<defs>
		<linearGradient id="gradient_15" gradientUnits="userSpaceOnUse" x1="498.50919" y1="233.49724" x2="491.36563" y2="323.2851">
			<stop offset="0" stop-color="#9EACB6"/>
			<stop offset="1" stop-color="#E4DCD8"/>
		</linearGradient>
	</defs>
	<path fill="url(#gradient_15)" d="M434.83 229.305C439.18 228.939 443.455 228.649 447.812 229.095C467.528 230.372 486.855 232.457 506.234 236.411C511.318 237.448 516.816 238.269 521.64 240.211C527.06 241.71 532.557 243.11 537.887 244.904C543.47 246.783 548.919 249.081 554.588 250.694C555.58 251.823 556.476 252.933 557.335 254.166C561.362 259.943 568.636 262.075 573.97 266.364C585.937 275.987 593.079 290.668 600.076 304.005C601.624 306.956 603.824 310.216 604.917 313.304C607.517 322.002 606.063 331.944 605.773 340.877C605.635 345.134 605.994 349.79 605.169 353.962C604.669 349.923 605.275 345.656 605.219 341.576C605.167 337.73 603.371 333.839 602.161 330.214C595.954 311.616 585.207 289.71 571.048 275.897C562.786 267.837 553.498 262.505 543.243 257.455C511.303 241.726 481.907 237.599 446.574 241.213C437.178 242.174 427.708 243.2 418.615 245.833C409.961 248.34 399.971 250.732 391.864 254.576C388.624 256.113 383.068 260.424 379.583 260.193C378.717 260.135 377.923 258.766 377.421 258.134C386.901 247.037 404.269 241.03 417.478 235.667C423.184 233.351 428.825 230.738 434.83 229.305Z"/>
	<path fill="#819097" d="M447.812 229.095C467.528 230.372 486.855 232.457 506.234 236.411C511.318 237.448 516.816 238.269 521.64 240.211C516.823 241.324 510.737 237.689 505.777 237.414C501.615 237.183 496.37 238.242 492.085 238.588C489.801 237.444 487.912 235.119 485.709 234.194C477.576 230.78 452.94 232.669 447.812 229.095Z"/>
	<path fill="#BCC5C8" d="M375.24 370.133C384.579 398.092 398.998 417.677 425.983 431.085C448.208 442.127 473.862 443.079 497.219 435.042C522.247 426.43 542.11 407.958 553.599 384.263L553.901 383.633C554.28 384.146 554.78 384.751 555.047 385.343C557.445 390.661 552.487 401.938 550.581 407.144C548.944 411.61 546.34 415.691 543.682 419.605C533.98 433.89 521.482 444.647 505.63 451.728C482.579 462.026 451.406 460.435 428.219 451.36C405.954 442.645 389.788 422.64 380.423 401.265C377.469 394.523 372.612 383.59 373.45 376.11C373.679 374.065 374.496 372.036 375.24 370.133Z"/>
	<path fill="#010A14" d="M375.24 370.133C368.477 350.274 373.721 323.289 382.741 305.061C393.615 283.089 412.286 268.164 435.404 260.511Q436.524 260.129 437.652 259.775Q438.781 259.422 439.918 259.096Q441.055 258.771 442.2 258.474Q443.345 258.176 444.497 257.908Q445.649 257.64 446.808 257.4Q447.966 257.16 449.13 256.95Q450.294 256.739 451.463 256.557Q452.632 256.376 453.805 256.224Q454.978 256.071 456.154 255.948Q457.331 255.825 458.51 255.731Q459.689 255.638 460.87 255.573Q462.051 255.509 463.234 255.474Q464.416 255.439 465.599 255.434Q466.782 255.429 467.965 255.453Q469.147 255.477 470.329 255.531Q471.51 255.584 472.69 255.667Q473.87 255.751 475.048 255.863Q476.225 255.976 477.4 256.117Q478.574 256.259 479.745 256.43Q480.915 256.601 482.081 256.801Q483.247 257.002 484.407 257.231Q485.568 257.46 486.722 257.718Q487.876 257.976 489.024 258.263Q490.172 258.55 491.312 258.865Q492.452 259.18 493.584 259.524Q494.716 259.867 495.838 260.239Q496.961 260.611 498.075 261.01Q499.188 261.41 500.291 261.837Q501.394 262.264 502.486 262.719Q503.578 263.174 504.659 263.655Q505.739 264.137 506.807 264.646Q507.875 265.154 508.93 265.689C529.983 276.378 547.751 295.314 555.138 317.943C561.756 338.218 562.589 363.806 553.901 383.633L553.599 384.263C542.11 407.958 522.247 426.43 497.219 435.042C473.862 443.079 448.208 442.127 425.983 431.085C398.998 417.677 384.579 398.092 375.24 370.133Z"/>
	<path fill="#F8F9F9" d="M436.128 295.166C443.485 294.605 450.516 296.013 456.717 300.08C463.759 304.698 469.278 312.048 470.873 320.405C472.346 328.123 470.774 336.815 466.428 343.358C461.339 351.017 453.867 355.15 445.002 356.942C436.115 357.352 428.568 356.146 421.327 350.643C414.204 345.23 409.876 337.331 408.712 328.509C407.678 320.667 409.862 313.161 414.669 306.931C419.932 300.109 427.668 296.205 436.128 295.166Z"/>
	<defs>
		<linearGradient id="gradient_16" gradientUnits="userSpaceOnUse" x1="714.92114" y1="751.02386" x2="115.46265" y2="588.62964">
			<stop offset="0" stop-color="#FFB304"/>
			<stop offset="1" stop-color="#FADD03"/>
		</linearGradient>
	</defs>
	<path fill="url(#gradient_16)" d="M241.835 378.137C245.225 376.771 248.444 375.86 252.017 375.124C258.781 424.483 272.584 472.542 313.932 503.944C327.907 514.558 344.771 523.504 361.853 527.831C360.304 532.03 359.558 543.596 359.725 548.245L360.214 548.31C370.34 549.734 380.496 552.502 390.576 554.366C406.656 557.339 435.146 560.286 451.143 559.36C453.444 559.142 455.749 558.881 458.055 558.727C456.755 567.179 454.452 575.373 453.269 583.882Q452.307 590.792 451.606 597.734Q450.905 604.676 450.466 611.639Q450.027 618.602 449.85 625.576Q449.673 632.551 449.758 639.527Q449.844 646.504 450.192 653.472Q450.54 660.44 451.15 667.391Q451.76 674.341 452.632 681.263Q453.503 688.185 454.634 695.07C456.557 707.264 458.453 720.485 463.215 731.931C479.202 707.406 491.959 681.517 504.451 655.121C506.286 651.243 508.535 647.554 510.326 643.661C511.597 640.899 512.425 637.949 513.668 635.172C516.151 629.626 519.828 624.124 521.442 618.294C521.768 617.118 521.962 615.176 522.973 614.506C525.04 619.282 524.473 633.313 524.949 639.109C525.684 648.054 526.611 657.112 528.009 665.977Q528.43 668.805 528.9 671.625Q529.37 674.445 529.891 677.257Q530.411 680.068 530.981 682.87Q531.55 685.672 532.169 688.463Q532.789 691.254 533.457 694.034Q534.125 696.814 534.843 699.582Q535.56 702.349 536.326 705.104Q537.092 707.859 537.907 710.599Q538.721 713.34 539.584 716.066Q540.447 718.791 541.358 721.502Q542.269 724.212 543.228 726.905Q544.186 729.599 545.192 732.275Q546.198 734.952 547.251 737.61Q548.305 740.268 549.404 742.907Q550.504 745.546 551.651 748.165Q552.797 750.784 553.989 753.383Q555.182 755.982 556.42 758.559Q557.658 761.136 558.942 763.691Q560.225 766.246 561.553 768.778Q562.882 771.309 564.255 773.817Q565.627 776.325 567.044 778.809Q568.461 781.292 569.922 783.75Q571.382 786.208 572.886 788.64Q574.39 791.072 575.936 793.476Q577.483 795.881 579.071 798.258Q580.66 800.636 582.29 802.984Q583.921 805.333 585.593 807.653Q587.264 809.972 588.976 812.262Q590.689 814.552 592.441 816.811Q594.194 819.07 595.986 821.297Q597.778 823.525 599.609 825.721Q601.44 827.917 603.31 830.08C610.472 838.408 618.169 848.13 626.849 854.923C635.83 863.339 644.848 872.177 654.67 879.599C669.372 890.709 684.587 901.926 700.691 910.921C705.237 913.46 713.583 916.309 715.716 921.244C715.739 922.56 715.606 923.534 715.245 924.799L678.892 924.294C664.434 924.229 649.959 924.454 635.505 924.179C623.397 924.663 611.428 924.284 599.334 924.363C584.255 924.461 569.138 924.949 554.065 925.42C550.472 919.347 547.935 912.751 545.267 906.238C537.779 887.96 532.074 869.642 526.974 850.589C522.784 832.11 517.326 813.04 516.216 794.082C510.704 824.243 490.436 860.009 471.675 884.102C466.441 890.823 460.503 897.017 454.961 903.486C450.636 908.536 446.636 913.869 442.637 919.179C438.993 912.698 436.397 905.719 433.668 898.822Q429.456 888.204 425.806 877.38Q422.156 866.556 419.077 855.556Q415.999 844.556 413.501 833.41Q411.003 822.264 409.092 811.002C407.776 803.002 406.497 794.955 405.556 786.902C404.89 781.197 404.614 775.257 403.563 769.624L403.409 768.825C402.659 759.349 403.58 749.425 403.975 739.924L403.376 738.792C399.058 739.837 386.715 760.493 382.302 764.814Q368.337 785.011 352.78 804.009C350.455 806.88 347.91 810.914 345.176 813.238C338.392 822.172 330.507 830.549 322.95 838.827Q309.831 853.319 296.355 867.48C287.125 877.007 269.916 893.671 263.558 904.189C259.771 898.37 257.23 891.907 254.5 885.55C245.029 863.496 238.211 840.794 231.336 817.824C229.539 807.629 226.857 797.618 225.196 787.412C224.442 781.914 223.522 776.449 222.971 770.924C218.011 760.447 217.447 747.586 217.369 736.201C217.842 729.983 216.435 722.137 219.684 716.548C220.333 715.431 220.948 714.294 221.578 713.166C222.29 711.059 222.282 708.02 222.583 705.785C223.642 697.904 224.285 689.213 226.67 681.597L229.16 673.36C231.382 667.354 233.551 661.296 236.255 655.487C236.661 651.798 239.091 647.324 240.505 643.837L239.448 644.125L239.268 643.413L240.552 641.754L239.917 641.038C240.424 640.577 240.919 640.167 241.477 639.763C241.661 639.63 241.848 639.501 242.033 639.37C241.243 638.131 239.336 637.576 237.986 636.944C236.225 636.12 235.462 634.94 234.373 633.378L233.94 632.745C230.78 634.279 228.557 637.024 225.006 637.622L222.549 639.156L204.111 652.908C204.512 651.042 206.272 649.973 207.685 648.826L207.576 648.138C206.723 647.797 206.953 647.754 206.214 647.828C200.321 648.415 193.533 648.973 187.628 648.489C187.413 648.472 187.2 648.448 186.985 648.428C178.758 649.112 170.643 652.45 162.697 654.622C157.859 656.462 153.254 658.85 148.617 661.138Q144.305 662.545 139.948 663.808L139.414 664.068C136.904 663.612 134.834 665.177 132.824 666.488C132.12 668.102 131.471 669.731 129.822 670.611C128.411 671.363 125.901 671.243 124.529 670.357C123.112 669.441 122.335 664.792 121.689 662.986C120.186 658.778 118.395 654.727 117.06 650.45C112.694 636.467 109.625 621.95 106.207 607.704L105.697 608.147C105.913 609.384 105.749 608.913 106.274 610.055C106.396 610.322 106.529 610.585 106.656 610.849C106.5 612.161 106.462 612.165 105.523 613.104C103.863 613.585 103.262 613.38 101.697 612.841C101.364 609.461 102.52 605.883 102.256 602.281L102.186 601.376C102.748 584.437 110.609 545.953 119.586 531.88C120.601 528.847 124.977 521.727 124.154 519.187L122.179 521.108C121.993 520.004 122.204 520.543 121.457 519.53C118.729 518.912 115.808 519.209 113.026 519.281C114.779 517.547 117.984 514.917 118.553 512.543C122.012 507.319 128.842 502.669 133.528 498.309C133.009 497.949 132.659 497.545 132.234 497.081C132.512 489.862 141.33 474.868 144.94 468.23C150.027 458.886 156.208 450.312 162.775 441.958L163.504 440.976C163.266 440.171 163.103 439.38 162.937 438.559C164.564 433.4 171 427.971 174.698 424.05C176.709 422.623 178.144 420.453 180.264 418.947Q179.62 419.831 178.933 420.683C180.944 419.162 183.915 416.149 186.359 416.324C203.061 400.293 220.858 389.028 241.424 378.682L241.835 378.137Z"/>
	<path fill="#1F860F" d="M174.698 424.05C176.709 422.623 178.144 420.453 180.264 418.947Q179.62 419.831 178.933 420.683C180.944 419.162 183.915 416.149 186.359 416.324C178.539 424.532 170.71 432.177 163.504 440.976C163.266 440.171 163.103 439.38 162.937 438.559C164.564 433.4 171 427.971 174.698 424.05Z"/>
	<path fill="#FDFDCA" d="M233.982 435.374L238.759 435.673C238.296 438.857 232.796 446.35 230.309 448.43C230.214 448.509 230.091 448.549 229.982 448.608C229.817 447.267 230.415 446.79 231.092 445.674L230.679 445.762L231.83 444.834C231.084 443.884 230.352 443.116 229.133 442.792C227.204 442.279 224.802 443.487 223.211 444.468C222.413 444.96 221.705 445.404 220.813 445.712C220.565 445.797 220.315 445.875 220.066 445.956C223.903 441.488 228.637 439.296 233.282 435.891L233.982 435.374Z"/>
	<path fill="#AFF64A" d="M144.94 468.23C150.027 458.886 156.208 450.312 162.775 441.958L162.75 442.696C162.485 448.981 158.923 448.323 157.032 453.115C155.854 456.101 156.001 459.976 154.435 462.713C151.737 467.428 143.182 471.495 148.763 477.805C149.588 478.737 150.293 479.322 151.38 479.906C154.856 478.895 163.343 471.12 166.39 468.466C168.074 467 170.55 465.461 172.819 465.402L173.136 465.391C174.732 464.62 176.224 463.304 177.662 462.255L178.263 463.401C176.228 468.086 172.145 472.238 169.53 476.709L165.49 483.284C162.766 481.394 159.586 478.944 156.331 478.187L154.982 479.401C154.101 484.596 149.793 487.112 146.367 490.625C145.011 491.699 143.8 492.974 141.996 493.076C141.325 492.633 141.057 492.431 140.573 491.761L133.528 498.309C133.009 497.949 132.659 497.545 132.234 497.081C132.512 489.862 141.33 474.868 144.94 468.23Z"/>
	<path fill="#186506" d="M154.982 479.401C154.101 484.596 149.793 487.112 146.367 490.625C145.011 491.699 143.8 492.974 141.996 493.076C141.325 492.633 141.057 492.431 140.573 491.761C145.06 487.253 149.99 483.322 154.982 479.401Z"/>
	<path fill="#186506" d="M177.662 462.255L178.263 463.401C176.228 468.086 172.145 472.238 169.53 476.709L165.49 483.284C162.766 481.394 159.586 478.944 156.331 478.187C161.61 473.444 167.457 469.614 173.136 465.391C174.732 464.62 176.224 463.304 177.662 462.255Z"/>
	<defs>
		<linearGradient id="gradient_17" gradientUnits="userSpaceOnUse" x1="223.56369" y1="489.95096" x2="187.32169" y2="483.55444">
			<stop offset="0" stop-color="#F8F9C2"/>
			<stop offset="1" stop-color="#FBFFFF"/>
		</linearGradient>
	</defs>
	<path fill="url(#gradient_17)" d="M220.066 445.956C220.315 445.875 220.565 445.797 220.813 445.712C221.705 445.404 222.413 444.96 223.211 444.468C224.802 443.487 227.204 442.279 229.133 442.792C230.352 443.116 231.084 443.884 231.83 444.834L230.679 445.762L231.092 445.674C230.415 446.79 229.817 447.267 229.982 448.608C225.135 455.792 219.019 462.236 214.453 469.565C211.824 473.787 209.79 478.499 207.627 482.977C199.486 499.826 192.951 517.196 187.163 534.986C187.018 534.094 186.899 533.196 186.749 532.305C185.92 527.408 189.188 522.347 188.297 517.138C187.943 515.066 187.13 513.609 185.407 512.398C184.777 511.956 184.343 511.76 183.939 511.073C183.865 510.947 183.823 510.804 183.766 510.67C182.957 510.608 183.264 510.649 182.492 510.524L181.967 510.434C185.9 489.098 203.329 460.008 220.066 445.956Z"/>
	<path fill="#5CC106" d="M177.662 462.255C178.139 461.392 179.253 460.641 180.014 460.02C192.525 449.8 207.958 443.201 223.091 438.048C226.109 437.02 230.871 435.055 233.982 435.374L233.282 435.891C228.637 439.296 223.903 441.488 220.066 445.956C203.329 460.008 185.9 489.098 181.967 510.434C180.904 513.954 180.094 517.526 179.265 521.106C179.222 520.809 179.195 520.509 179.135 520.215C178.097 515.155 183.031 501.768 184.991 496.653C185.974 494.09 187.94 490.512 188.014 487.836L187.337 487.675C184.539 490.468 180.343 491.737 176.416 492.019C170.936 492.413 174.071 480.788 169.53 476.709C172.145 472.238 176.228 468.086 178.263 463.401L177.662 462.255Z"/>
	<path fill="#186506" d="M392.375 698.714C398.749 691.277 405.433 683.696 411.001 675.638C413.68 671.761 415.694 666.705 418.679 663.203C417.32 669.279 415.422 675.206 414.002 681.266C411.431 692.245 409.33 703.505 407.354 714.606C406.167 721.274 405.654 734.635 403.975 739.924L403.376 738.792C399.058 739.837 386.715 760.493 382.302 764.814C380.839 763.995 380.582 766.044 379.143 766.067C376.59 756.518 394.032 715.742 395.263 703.101C395.443 701.248 394.72 700.818 393.577 699.505L393.012 699.342L392.375 698.714Z"/>
	<path fill="#F98302" d="M626.849 854.923C635.83 863.339 644.848 872.177 654.67 879.599C669.372 890.709 684.587 901.926 700.691 910.921C705.237 913.46 713.583 916.309 715.716 921.244C715.739 922.56 715.606 923.534 715.245 924.799L678.892 924.294C664.434 924.229 649.959 924.454 635.505 924.179C637.677 921.889 662.126 925.067 667.962 922.601C668.833 922.233 668.703 922.095 669.071 921.301C667.381 913.034 649.358 896.917 643.599 888.73C643.7 886.767 643.627 884.651 644.141 882.755C644.43 885.541 644.495 889.369 646.441 891.537C647.281 892.473 648.037 892.664 649.225 892.653C651.066 891.263 653.173 887.452 653.862 885.241C654.327 883.749 654.285 882.027 653.501 880.646C649.866 874.243 631.334 864.246 626.849 854.923Z"/>
	<defs>
		<linearGradient id="gradient_18" gradientUnits="userSpaceOnUse" x1="301.97162" y1="646.74011" x2="268.57578" y2="639.2121">
			<stop offset="0" stop-color="#FAFBCB"/>
			<stop offset="1" stop-color="#FDFDFF"/>
		</linearGradient>
	</defs>
	<path fill="url(#gradient_18)" d="M310.524 558.561C312.397 557.132 325.538 545.886 325.569 545.878C325.849 545.807 326.147 545.909 326.435 545.924C327.336 548.841 324.579 553.986 323.17 556.642C320.831 561.046 317.816 565.148 315.224 569.413C310.925 576.485 306.48 584.366 303.044 591.873C299.962 598.61 297.834 605.955 295.58 613.006C283.111 652.015 276.431 696.831 278.434 737.798C278.514 739.445 279.505 748.469 279.047 749.238C278.903 749.48 278.601 749.583 278.378 749.756C277.916 749.569 277.058 749.283 276.638 749.036C267.284 710.395 259.891 670.865 269.781 631.496C272.813 619.429 277.591 607.615 281.782 595.909C288.524 581.728 299.055 569.143 310.524 558.561Z"/>
	<path fill="#3EA20B" d="M180.347 593.703C184.189 591.112 225.491 583.531 233.574 581.415Q262.302 574.059 290.684 565.469C297.348 563.455 303.752 560.076 310.524 558.561C299.055 569.143 288.524 581.728 281.782 595.909C279.862 595.525 279.21 595.728 277.41 596.333C277.031 596.46 276.645 596.565 276.261 596.678C274.825 596.168 274.419 596.198 273.021 596.81C268.648 598.723 264.482 601.306 260.155 603.361C250.462 607.966 240.601 612.157 230.964 616.898C226.254 619.216 220.971 622.908 216.037 624.452C212.934 623.828 209.539 627.174 206.522 627.859C204.472 628.324 201.544 627.071 199.397 626.975C197.512 626.89 195.455 627.633 193.622 627.347C186.927 626.304 179.733 619.025 176.42 613.314C174.846 610.601 171.977 603.117 172.996 600.027C173.55 598.345 176.071 596.248 177.664 595.543C178.446 595.196 178.978 594.898 179.634 594.332C179.874 594.125 180.109 593.913 180.347 593.703Z"/>
	<path fill="#3EA20B" d="M392.375 698.714L393.012 699.342L393.577 699.505C394.72 700.818 395.443 701.248 395.263 703.101C394.032 715.742 376.59 756.518 379.143 766.067C380.582 766.044 380.839 763.995 382.302 764.814Q368.337 785.011 352.78 804.009C350.455 806.88 347.91 810.914 345.176 813.238L344.519 813.101C345.421 810.096 350.611 805.088 352.751 802.434Q359.863 793.752 366.685 784.841C368.721 782.14 370.387 779.207 372.551 776.616L372.215 775.61C370.677 776.254 370.544 775.846 369.307 776.02C362.362 776.997 351.702 790.348 346.349 794.867C342.51 798.108 338.052 800.117 333.934 802.872C331.924 804.218 330.083 806.641 327.779 807.356C326.112 807.873 325.28 809.154 324.273 810.482C323.549 808.743 322.957 806.98 322.367 805.192L321.603 804.89C320.705 805.582 320.157 806.144 318.993 806.277C316.702 806.539 313.422 803.103 311.596 801.88C307.45 799.105 303.543 796.737 299.577 793.618C296.847 791.471 294.215 788.655 291.374 786.759C289.75 785.676 287.758 785.321 286.293 784.027L287.379 782.146C289.511 779.834 296.131 776.62 298.983 774.655C309.648 767.308 320.19 759.584 330.641 751.937C337.732 746.749 344.978 741.628 351.795 736.085C365.918 724.603 379.432 711.515 392.375 698.714Z"/>
	<path fill="#F98302" d="M241.835 378.137C245.225 376.771 248.444 375.86 252.017 375.124C258.781 424.483 272.584 472.542 313.932 503.944C327.907 514.558 344.771 523.504 361.853 527.831C360.304 532.03 359.558 543.596 359.725 548.245L360.214 548.31C370.34 549.734 380.496 552.502 390.576 554.366C406.656 557.339 435.146 560.286 451.143 559.36C450.57 559.512 449.308 559.669 448.855 559.967C447.307 560.985 445.636 563.322 444.219 564.665C441.369 567.367 438.316 569.742 435.176 572.087C418.492 584.55 402.247 598.441 384.56 609.485C373.842 616.177 361.373 620.84 349.391 624.61C349.009 616.923 349.88 609.524 350.712 601.899C351.503 594.65 352.124 587.358 353.273 580.154C354.959 569.581 357.268 559.129 358.73 548.516C351.743 546.807 345.33 544.156 338.59 541.716C332.188 539.397 325.455 537.422 319.37 534.34C306.858 528.001 291.506 513.53 281.987 502.949C275.714 495.975 268.909 488.366 264.784 479.903C256.859 463.643 240.473 396.447 241.424 378.682L241.835 378.137Z"/>
	<defs>
		<linearGradient id="gradient_19" gradientUnits="userSpaceOnUse" x1="137.97762" y1="565.55157" x2="202.51004" y2="565.67999">
			<stop offset="0" stop-color="#8EEA18"/>
			<stop offset="1" stop-color="#279A00"/>
		</linearGradient>
	</defs>
	<path fill="url(#gradient_19)" d="M169.53 476.709C174.071 480.788 170.936 492.413 176.416 492.019C180.343 491.737 184.539 490.468 187.337 487.675L188.014 487.836C187.94 490.512 185.974 494.09 184.991 496.653C183.031 501.768 178.097 515.155 179.135 520.215C179.195 520.509 179.222 520.809 179.265 521.106C180.094 517.526 180.904 513.954 181.967 510.434L182.492 510.524C183.264 510.649 182.957 510.608 183.766 510.67C183.823 510.804 183.865 510.947 183.939 511.073C184.343 511.76 184.777 511.956 185.407 512.398C187.13 513.609 187.943 515.066 188.297 517.138C189.188 522.347 185.92 527.408 186.749 532.305C186.899 533.196 187.018 534.094 187.163 534.986C185.378 541.395 181.674 562.978 177.363 566.544L176.467 566.542C175.128 565.171 175.188 563.901 175.061 562.095C174.488 568.257 174.306 574.42 174.091 580.602C174.177 584.167 173.132 591.935 175.682 594.549C177.349 595.014 178.788 594.26 180.347 593.703C180.109 593.913 179.874 594.125 179.634 594.332C178.978 594.898 178.446 595.196 177.664 595.543C176.071 596.248 173.55 598.345 172.996 600.027C171.977 603.117 174.846 610.601 176.42 613.314C179.733 619.025 186.927 626.304 193.622 627.347C195.455 627.633 197.512 626.89 199.397 626.975C201.544 627.071 204.472 628.324 206.522 627.859C209.539 627.174 212.934 623.828 216.037 624.452C220.971 622.908 226.254 619.216 230.964 616.898C240.601 612.157 250.462 607.966 260.155 603.361C264.482 601.306 268.648 598.723 273.021 596.81C274.419 596.198 274.825 596.168 276.261 596.678C267.566 602.879 255.925 614.297 250.575 623.529C247.023 630.203 243.844 637.056 240.505 643.837L239.448 644.125L239.268 643.413L240.552 641.754L239.917 641.038C240.424 640.577 240.919 640.167 241.477 639.763C241.661 639.63 241.848 639.501 242.033 639.37C241.243 638.131 239.336 637.576 237.986 636.944C236.225 636.12 235.462 634.94 234.373 633.378L233.94 632.745C230.78 634.279 228.557 637.024 225.006 637.622L222.549 639.156L204.111 652.908C204.512 651.042 206.272 649.973 207.685 648.826L207.576 648.138C206.723 647.797 206.953 647.754 206.214 647.828C200.321 648.415 193.533 648.973 187.628 648.489C187.413 648.472 187.2 648.448 186.985 648.428C178.758 649.112 170.643 652.45 162.697 654.622C157.859 656.462 153.254 658.85 148.617 661.138Q144.305 662.545 139.948 663.808L139.414 664.068C136.904 663.612 134.834 665.177 132.824 666.488C132.12 668.102 131.471 669.731 129.822 670.611C128.411 671.363 125.901 671.243 124.529 670.357C123.112 669.441 122.335 664.792 121.689 662.986C120.186 658.778 118.395 654.727 117.06 650.45C112.694 636.467 109.625 621.95 106.207 607.704L105.697 608.147C105.913 609.384 105.749 608.913 106.274 610.055C106.396 610.322 106.529 610.585 106.656 610.849C106.5 612.161 106.462 612.165 105.523 613.104C103.863 613.585 103.262 613.38 101.697 612.841C101.364 609.461 102.52 605.883 102.256 602.281L102.186 601.376C102.748 584.437 110.609 545.953 119.586 531.88C120.601 528.847 124.977 521.727 124.154 519.187L122.179 521.108C121.993 520.004 122.204 520.543 121.457 519.53C118.729 518.912 115.808 519.209 113.026 519.281C114.779 517.547 117.984 514.917 118.553 512.543C122.012 507.319 128.842 502.669 133.528 498.309L140.573 491.761C141.057 492.431 141.325 492.633 141.996 493.076C143.8 492.974 145.011 491.699 146.367 490.625C149.793 487.112 154.101 484.596 154.982 479.401L156.331 478.187C159.586 478.944 162.766 481.394 165.49 483.284L169.53 476.709Z"/>
	<path fill="#165D48" d="M154.982 479.401L156.331 478.187C159.586 478.944 162.766 481.394 165.49 483.284C162.198 488.903 158.438 494.309 155.321 500.013C148.725 512.087 144.478 525.464 142.16 539.002C142.012 538.004 142.097 538.337 141.881 537.557C139.178 527.769 145.583 523.071 147.395 514.49C148.099 511.153 147.251 507.344 148.636 504.148C150.014 500.967 152.29 498.178 153.725 495.015C154.442 493.434 154.232 492.502 153.609 490.948C152.085 489.713 151.698 489.665 149.841 489.36L146.367 490.625C149.793 487.112 154.101 484.596 154.982 479.401Z"/>
	<path fill="#5CC106" d="M171.019 497.241L172.502 497.139C173.64 498.411 174.215 500.185 174.433 501.865C175.126 507.183 172.664 512.77 169.638 516.988C168.818 518.13 167.437 519.507 166.97 520.805C165.663 524.437 167.47 530.352 165.276 533.252L164.453 531.715C164.116 532.78 164.34 532.263 163.773 533.263C163.675 533.282 163.578 533.308 163.479 533.32C161.403 533.571 159.454 534.076 157.672 535.235C157.477 535.362 157.288 535.497 157.095 535.628L156.75 535.752C155.662 538.779 155.314 541.91 154.452 544.991L154.195 544.589C154.243 541.238 155.409 537.813 156.195 534.556C157.61 528.69 158.72 522.657 160.543 516.904C162.106 511.972 164.311 507.285 165.708 502.291L165.899 501.596C167.469 500 169.278 498.645 171.019 497.241Z"/>
	<path fill="#FDFDCA" d="M179.265 521.106C180.094 517.526 180.904 513.954 181.967 510.434L182.492 510.524C183.264 510.649 182.957 510.608 183.766 510.67C183.823 510.804 183.865 510.947 183.939 511.073C184.343 511.76 184.777 511.956 185.407 512.398C187.13 513.609 187.943 515.066 188.297 517.138C189.188 522.347 185.92 527.408 186.749 532.305C186.899 533.196 187.018 534.094 187.163 534.986C185.378 541.395 181.674 562.978 177.363 566.544L176.467 566.542C175.128 565.171 175.188 563.901 175.061 562.095C175.993 548.463 176.009 534.458 179.265 521.106Z"/>
	<path fill="#5CC106" d="M165.336 604.3C165.718 602.694 166.043 600.474 166.92 599.073C167.781 597.698 168.597 597.106 170.151 596.76C176.764 595.287 171.274 584.238 174.091 580.602C174.177 584.167 173.132 591.935 175.682 594.549C177.349 595.014 178.788 594.26 180.347 593.703C180.109 593.913 179.874 594.125 179.634 594.332C178.978 594.898 178.446 595.196 177.664 595.543C176.071 596.248 173.55 598.345 172.996 600.027C171.977 603.117 174.846 610.601 176.42 613.314C179.733 619.025 186.927 626.304 193.622 627.347C195.455 627.633 197.512 626.89 199.397 626.975C201.544 627.071 204.472 628.324 206.522 627.859C209.539 627.174 212.934 623.828 216.037 624.452C203.284 630.81 189.563 636.418 176.337 641.742L176.424 641.074C179.503 638.058 196.952 632.687 202.514 629.338C198.289 629.091 196.15 629.782 192.978 632.58L192.476 633.03C191.474 632.277 190.436 631.543 189.373 630.881C186.109 628.849 180.148 626.075 176.324 627.02C175.065 627.332 175.161 625.75 174.297 625.574C172.972 625.303 170.803 626.263 169.162 626.058L168.06 624.434L167.796 625.999L167.209 626.399C163.826 619.546 168.533 611.887 165.521 604.707C165.463 604.57 165.397 604.436 165.336 604.3Z"/>
	<defs>
		<linearGradient id="gradient_20" gradientUnits="userSpaceOnUse" x1="202.91992" y1="629.34473" x2="209.23445" y2="643.56476">
			<stop offset="0" stop-color="#000A00"/>
			<stop offset="1" stop-color="#000046"/>
		</linearGradient>
	</defs>
	<path fill="url(#gradient_20)" d="M216.037 624.452C220.971 622.908 226.254 619.216 230.964 616.898C240.601 612.157 250.462 607.966 260.155 603.361C264.482 601.306 268.648 598.723 273.021 596.81C274.419 596.198 274.825 596.168 276.261 596.678C267.566 602.879 255.925 614.297 250.575 623.529C247.023 630.203 243.844 637.056 240.505 643.837L239.448 644.125L239.268 643.413L240.552 641.754L239.917 641.038C240.424 640.577 240.919 640.167 241.477 639.763C241.661 639.63 241.848 639.501 242.033 639.37C241.243 638.131 239.336 637.576 237.986 636.944C236.225 636.12 235.462 634.94 234.373 633.378L233.94 632.745C230.78 634.279 228.557 637.024 225.006 637.622L222.549 639.156L204.111 652.908C204.512 651.042 206.272 649.973 207.685 648.826L207.576 648.138C206.723 647.797 206.953 647.754 206.214 647.828C200.321 648.415 193.533 648.973 187.628 648.489C187.413 648.472 187.2 648.448 186.985 648.428C178.758 649.112 170.643 652.45 162.697 654.622C157.859 656.462 153.254 658.85 148.617 661.138Q144.305 662.545 139.948 663.808L138.895 663.346C139.3 661.094 142.344 658.106 143.486 655.862C143.569 655.701 143.647 655.538 143.727 655.375C147.324 654.749 151.938 651.603 155.453 650.145C162.394 647.264 169.74 645.426 176.337 641.742C189.563 636.418 203.284 630.81 216.037 624.452Z"/>
	<path fill="#041038" d="M186.985 648.428C189.738 647.556 192.945 647.633 195.809 647.12C200 646.371 204.287 644.845 208.303 643.435C212.347 642.015 218.313 638.72 222.549 639.156L204.111 652.908C204.512 651.042 206.272 649.973 207.685 648.826L207.576 648.138C206.723 647.797 206.953 647.754 206.214 647.828C200.321 648.415 193.533 648.973 187.628 648.489C187.413 648.472 187.2 648.448 186.985 648.428Z"/>
	<path fill="#165D48" d="M225.006 637.622C225.78 636.914 226.647 636.282 227.487 635.653C231.051 632.984 244.717 624.087 248.212 623.374C248.904 623.233 249.874 623.426 250.575 623.529C247.023 630.203 243.844 637.056 240.505 643.837L239.448 644.125L239.268 643.413L240.552 641.754L239.917 641.038C240.424 640.577 240.919 640.167 241.477 639.763C241.661 639.63 241.848 639.501 242.033 639.37C241.243 638.131 239.336 637.576 237.986 636.944C236.225 636.12 235.462 634.94 234.373 633.378L233.94 632.745C230.78 634.279 228.557 637.024 225.006 637.622Z"/>
	<path fill="#0C5AB8" d="M146.367 490.625L149.841 489.36C151.698 489.665 152.085 489.713 153.609 490.948C154.232 492.502 154.442 493.434 153.725 495.015C152.29 498.178 150.014 500.967 148.636 504.148C147.251 507.344 148.099 511.153 147.395 514.49C145.583 523.071 139.178 527.769 141.881 537.557C142.097 538.337 142.012 538.004 142.16 539.002C140.528 545.238 139.8 551.925 139.031 558.321C135.118 590.882 137.895 623.241 143.727 655.375C143.647 655.538 143.569 655.701 143.486 655.862C142.344 658.106 139.3 661.094 138.895 663.346L139.948 663.808L139.414 664.068C136.904 663.612 134.834 665.177 132.824 666.488C132.12 668.102 131.471 669.731 129.822 670.611C128.411 671.363 125.901 671.243 124.529 670.357C123.112 669.441 122.335 664.792 121.689 662.986C120.186 658.778 118.395 654.727 117.06 650.45C112.694 636.467 109.625 621.95 106.207 607.704L105.697 608.147C105.913 609.384 105.749 608.913 106.274 610.055C106.396 610.322 106.529 610.585 106.656 610.849C106.5 612.161 106.462 612.165 105.523 613.104C103.863 613.585 103.262 613.38 101.697 612.841C101.364 609.461 102.52 605.883 102.256 602.281L102.186 601.376C102.748 584.437 110.609 545.953 119.586 531.88C120.601 528.847 124.977 521.727 124.154 519.187L122.179 521.108C121.993 520.004 122.204 520.543 121.457 519.53C118.729 518.912 115.808 519.209 113.026 519.281C114.779 517.547 117.984 514.917 118.553 512.543C122.012 507.319 128.842 502.669 133.528 498.309L140.573 491.761C141.057 492.431 141.325 492.633 141.996 493.076C143.8 492.974 145.011 491.699 146.367 490.625Z"/>
	<path fill="#023F88" d="M146.367 490.625L149.841 489.36L149.267 489.939C147.249 491.942 144.196 493.384 142.654 495.778C136.812 504.847 144.081 511.207 130.425 514.455C129.372 515.516 126.957 517.307 126.92 518.739C128.487 519.165 130.294 519.48 131.638 520.401C129.927 520.869 128.291 520.805 126.528 520.792C124.845 523.298 121.892 530.917 119.586 531.88C120.601 528.847 124.977 521.727 124.154 519.187C126.557 515.104 131.589 512.687 133.572 507.982C134.827 505.005 135.005 501.017 137.067 498.486C138.258 497.023 139.817 495.298 140.249 493.457C138.432 495.502 136.685 497.491 133.954 498.208C133.813 498.245 133.67 498.275 133.528 498.309L140.573 491.761C141.057 492.431 141.325 492.633 141.996 493.076C143.8 492.974 145.011 491.699 146.367 490.625Z"/>
	<path fill="#041038" d="M133.528 498.309C133.67 498.275 133.813 498.245 133.954 498.208C136.685 497.491 138.432 495.502 140.249 493.457C139.817 495.298 138.258 497.023 137.067 498.486C135.005 501.017 134.827 505.005 133.572 507.982C131.589 512.687 126.557 515.104 124.154 519.187L122.179 521.108C121.993 520.004 122.204 520.543 121.457 519.53C118.729 518.912 115.808 519.209 113.026 519.281C114.779 517.547 117.984 514.917 118.553 512.543C122.012 507.319 128.842 502.669 133.528 498.309Z"/>
	<defs>
		<linearGradient id="gradient_21" gradientUnits="userSpaceOnUse" x1="366.11673" y1="734.67407" x2="221.3165" y2="755.81451">
			<stop offset="0" stop-color="#328D00"/>
			<stop offset="1" stop-color="#78DC0A"/>
		</linearGradient>
	</defs>
	<path fill="url(#gradient_21)" d="M276.261 596.678C276.645 596.565 277.031 596.46 277.41 596.333C279.21 595.728 279.862 595.525 281.782 595.909C277.591 607.615 272.813 619.429 269.781 631.496C259.891 670.865 267.284 710.395 276.638 749.036C277.284 754.991 282.107 779.019 284.956 783.042C286.117 782.938 286.413 782.737 287.379 782.146L286.293 784.027C287.758 785.321 289.75 785.676 291.374 786.759C294.215 788.655 296.847 791.471 299.577 793.618C303.543 796.737 307.45 799.105 311.596 801.88C313.422 803.103 316.702 806.539 318.993 806.277C320.157 806.144 320.705 805.582 321.603 804.89L322.367 805.192C322.957 806.98 323.549 808.743 324.273 810.482C325.28 809.154 326.112 807.873 327.779 807.356C330.083 806.641 331.924 804.218 333.934 802.872C338.052 800.117 342.51 798.108 346.349 794.867C351.702 790.348 362.362 776.997 369.307 776.02C370.544 775.846 370.677 776.254 372.215 775.61L372.551 776.616C370.387 779.207 368.721 782.14 366.685 784.841Q359.863 793.752 352.751 802.434C350.611 805.088 345.421 810.096 344.519 813.101L345.176 813.238C338.392 822.172 330.507 830.549 322.95 838.827Q309.831 853.319 296.355 867.48C287.125 877.007 269.916 893.671 263.558 904.189C259.771 898.37 257.23 891.907 254.5 885.55C245.029 863.496 238.211 840.794 231.336 817.824C229.539 807.629 226.857 797.618 225.196 787.412C224.442 781.914 223.522 776.449 222.971 770.924C218.011 760.447 217.447 747.586 217.369 736.201C217.842 729.983 216.435 722.137 219.684 716.548C220.333 715.431 220.948 714.294 221.578 713.166C222.29 711.059 222.282 708.02 222.583 705.785C223.642 697.904 224.285 689.213 226.67 681.597L229.16 673.36C231.382 667.354 233.551 661.296 236.255 655.487C236.661 651.798 239.091 647.324 240.505 643.837C243.844 637.056 247.023 630.203 250.575 623.529C255.925 614.297 267.566 602.879 276.261 596.678Z"/>
	<path fill="#AFF64A" d="M236.255 655.487C236.488 657.602 235.428 659.291 234.706 661.222L235.568 661.629L235.374 660.234L235.698 661.639L236.694 662.055C236.341 665.266 235.736 670.32 234.054 673.039C232.414 673.639 230.867 673.452 229.16 673.36C231.382 667.354 233.551 661.296 236.255 655.487Z"/>
	<defs>
		<linearGradient id="gradient_22" gradientUnits="userSpaceOnUse" x1="222.51974" y1="737.73236" x2="215.68158" y2="735.82971">
			<stop offset="0" stop-color="#035C67"/>
			<stop offset="1" stop-color="#003E54"/>
		</linearGradient>
	</defs>
	<path fill="url(#gradient_22)" d="M217.369 736.201C217.842 729.983 216.435 722.137 219.684 716.548C220.333 715.431 220.948 714.294 221.578 713.166C220.328 732.891 220.664 751.285 222.971 770.924C218.011 760.447 217.447 747.586 217.369 736.201Z"/>
</svg>
