<?xml version="1.0" encoding="utf-8" ?>
<svg xmlns="http://www.w3.org/2000/svg" xmlns:xlink="http://www.w3.org/1999/xlink" width="1024" height="228">
	<path fill="#FEFEFE" d="M185.986 20.0316C195.321 21.3076 204.006 28.1205 209.566 35.4411C212.536 39.3517 214.548 43.7674 217.284 47.7729C217.179 48.1926 217.001 49.3867 216.676 49.5871C214.388 50.9953 210.045 49.7231 207.358 50.0905C201.407 38.9572 193.14 28.4004 181.98 22.1272C182.92 21.1965 184.768 20.5916 185.986 20.0316Z"/>
	<path fill="#828F98" d="M93.6394 18.7645C116.811 7.20431 141.329 1.86349 166.574 10.3291C173.494 12.6497 180.029 15.8036 185.986 20.0316C184.768 20.5916 182.92 21.1965 181.98 22.1272C177.612 20.6875 173.047 17.49 168.678 15.6528C143.98 5.26695 118.538 12.5762 95.1012 22.1033C94.7371 20.6874 94.72 19.7767 93.6394 18.7645Z"/>
	<defs>
		<linearGradient id="gradient_0" gradientUnits="userSpaceOnUse" x1="234.52249" y1="101.58868" x2="203.57611" y2="91.736671">
			<stop offset="0" stop-color="#364048"/>
			<stop offset="1" stop-color="#647381"/>
		</linearGradient>
	</defs>
	<path fill="url(#gradient_0)" d="M217.284 47.7729C221.259 46.837 225.508 47.0159 229.573 47.0644C231.824 50.3886 230.804 64.1107 230.032 68.0777C229.181 72.4478 226.592 76.9083 226.315 81.2933C225.99 86.435 227.532 91.899 228.035 97.0276C229.794 114.947 228.325 135.074 217.977 150.387L215.673 146.897C226.377 125.451 224.245 103.042 221.12 80.2116C226.628 69.2909 226.433 62.6309 226.368 50.5796C220.204 50.5599 213.427 51.0628 207.358 50.0905C210.045 49.7231 214.388 50.9953 216.676 49.5871C217.001 49.3867 217.179 48.1926 217.284 47.7729Z"/>
	<path fill="#000206" d="M521.62 176.25C523.965 175.994 526.631 175.768 528.961 176.147Q529.675 176.264 530.373 176.451Q531.072 176.637 531.749 176.892Q532.426 177.146 533.074 177.466Q533.723 177.785 534.337 178.167Q534.951 178.549 535.525 178.989Q536.099 179.429 536.626 179.924Q537.154 180.418 537.631 180.962Q538.107 181.506 538.528 182.094C543.131 188.478 543.04 205.131 541.819 212.544C541.548 214.186 540.908 217.019 539.441 218.01C537.758 219.146 533.695 219.858 531.741 219.513C522.352 217.855 530.207 197.05 526.027 191.365C525.378 190.483 524.534 190.609 523.515 190.471C523.226 190.577 522.941 190.69 522.665 190.826C517.322 193.459 521.527 209.99 519.586 215.288C519.108 216.595 518.26 217.757 516.964 218.342C514.727 219.352 511.306 219.748 508.983 218.838C507.433 218.231 506.353 217.022 505.718 215.503C504.583 212.784 504.428 182.413 505.726 179.431C507.029 176.438 517.887 177.751 521.417 176.332L521.62 176.25Z"/>
	<path fill="#FEFEFE" d="M521.297 181.25C524.218 180.835 527.14 180.434 529.999 181.442C532.516 182.33 534.39 184.097 535.519 186.503C537.252 190.2 538.057 210.182 536.772 213.802C536.552 213.931 536.31 214.053 536.057 214.105C534.734 214.375 533.717 213.942 532.639 213.269C529.87 208.772 532.534 197.548 531.49 191.649C531.135 189.644 530.282 187.615 528.543 186.438C526.151 184.818 523.232 185.453 520.595 185.957C519.721 186.56 518.82 187.243 518.069 187.995C513.373 192.693 515.569 204.639 515.486 210.95C515.467 212.395 515.166 212.992 514.157 213.984C512.822 214.15 512.136 214.058 510.914 213.452C510.081 212.524 509.726 211.678 509.643 210.44C509.469 207.831 510.026 182.04 510.452 181.548C511.832 181.41 512.934 181.422 514.29 181.731C515.32 182.858 515.262 183.358 515.463 184.825L515.919 185.134C517.644 183.552 519.237 182.38 521.297 181.25Z"/>
	<path fill="#000206" d="M588.217 162.25L588.41 162.226C591.299 161.887 595.538 161.592 597.916 163.516C599.063 164.444 599.619 165.792 599.763 167.237C600.16 171.232 595.064 174.09 592.878 176.879C591.346 178.835 593.383 180.032 593.554 182.072C594.069 188.181 593.504 194.765 593.476 200.921C593.457 204.887 593.945 209.16 593.537 213.087C593.398 214.421 593.119 215.812 592.193 216.833C590.763 218.411 588.21 218.976 586.173 219.069C584.039 219.167 581.457 218.746 579.833 217.237C576.637 214.269 578.657 187.35 578.339 181.157C578.289 180.183 578.213 179.038 577.477 178.38C576.215 181.997 578.259 186.977 576.145 190.25C576.302 190.492 576.438 190.742 576.561 191.003C577.835 193.712 577.312 213.095 576.141 216.306C575.848 217.111 574.783 218.013 574.003 218.359C571.783 219.346 567.524 219.351 565.279 218.489C564.143 218.054 563.046 217.113 562.574 215.972C561.4 213.132 561.682 169.681 562.696 167.161C563.251 165.78 564.257 164.788 565.63 164.217C567.854 163.292 570.618 163.472 572.808 164.41C574.537 165.149 576.159 166.545 576.857 168.325C577.639 170.319 577.256 173.426 576.398 175.347L576.339 175.475C580.298 172.009 583.507 164.135 588.217 162.25Z"/>
	<path fill="#FEFEFE" d="M589.088 166.75C591.036 166.574 593.351 166.116 595.253 166.627C593.224 169.829 589.311 174.536 586.169 176.624L585.512 177.29L582.874 177.166C582.25 174.041 588.517 170.113 589.088 166.75Z"/>
	<path fill="#FEFEFE" d="M582.859 181.75C584.616 181.564 586.307 181.449 588.074 181.514C588.197 181.765 588.306 182.023 588.366 182.296C588.873 184.59 588.949 210.766 588.369 212.447C588.228 212.856 587.814 213.367 587.583 213.75C586.521 213.977 584.83 214.24 583.865 213.682C581.93 212.566 584.169 186.566 582.859 181.75Z"/>
	<path fill="#FEFEFE" d="M568.02 168.75Q568.307 168.735 568.594 168.732C569.788 168.72 570.995 168.672 571.853 169.513C572.333 173.82 572.441 210.939 571.688 213.578L569.501 213.991C568.42 213.993 567.857 214.056 566.879 213.526C565.935 209.065 566.147 174.798 566.783 169.236L568.02 168.75Z"/>
	<path fill="#000206" d="M610.831 176.25C616.233 175.578 620.553 176.271 625.201 179.166C630.217 177.713 631.529 175.962 637.367 176.177C641.103 176.314 644.869 177.635 647.44 180.427C653.12 186.593 652.546 202.365 652.202 210.339C652.088 212.974 651.593 215.838 649.532 217.686C647.965 219.093 645.88 219.473 643.829 219.326C630.336 218.361 641.123 197.235 635.679 190.982C634.569 190.495 634.385 190.541 633.179 190.757C627.849 194.354 633.404 206.787 630.102 211.752C630.184 211.884 630.264 212.014 630.336 212.152C630.892 213.21 630.905 214.415 630.529 215.531C630.104 216.794 629.165 217.616 627.993 218.183C625.607 219.336 622.011 219.604 619.513 218.69C612.767 216.224 617.794 197.544 614.972 191.548C613.845 190.621 613.709 190.676 612.294 190.729C607.113 194.308 611.603 209.367 609.266 215.438C608.759 216.758 607.789 218.002 606.461 218.567C604.524 219.391 600.392 219.382 598.431 218.547C597.037 217.953 596.117 216.875 595.566 215.481C594.548 212.901 594.645 181.509 595.554 179.462C596.77 176.72 607.511 177.512 610.831 176.25Z"/>
	<path fill="#FEFEFE" d="M610.783 181.25C614.284 180.672 618.032 180.61 621.181 182.519C623.003 183.624 624.241 185.396 624.75 187.448C625.99 186.046 627.319 184.342 628.854 183.268C631.301 181.554 635.586 179.873 638.568 180.415C640.841 180.828 642.581 182.352 643.856 184.213C645.104 186.036 645.941 188.188 646.386 190.346C647.178 194.189 647.753 208.51 646.975 212.284C646.757 213.342 646.353 213.438 645.5 214.015C644.078 214.207 643.227 214.173 641.904 213.588C640.472 210.728 642.042 197.2 641.248 192.563C640.83 190.118 639.953 186.845 637.766 185.361C636.742 184.666 635.6 184.544 634.414 184.799C622.636 187.326 627.894 198.452 625.071 202.749C625.349 203.162 625.59 203.622 625.725 204.104C626.391 206.466 626.64 210.369 625.369 212.514C624.718 213.613 623.96 214.239 622.695 214.55C617.894 213.135 622.737 194.522 619.074 188.362C618.215 186.918 616.997 185.985 615.366 185.577C613.423 185.091 611.127 185.34 609.418 186.411C601.581 191.322 606.359 205.906 604.527 213.635C604.35 213.8 604.141 213.973 603.91 214.057C602.664 214.513 601.472 214.099 600.382 213.545C599.698 212.6 599.386 211.724 599.289 210.565C599.081 208.068 599.57 205.467 599.577 202.952C599.598 196.183 598.795 188.668 599.752 181.994C600.847 181.234 602.725 181.584 604.023 181.66C605.122 182.401 604.838 184.285 605.203 185.672Q605.336 185.546 605.468 185.418C607.293 183.67 608.57 182.53 610.783 181.25Z"/>
	<path fill="#000206" d="M492.548 164.25C494.564 163.974 497.112 163.827 499.119 164.163C500.599 164.411 502.008 164.908 502.888 166.194C506.036 170.796 502.531 174.046 502.678 178.544C502.714 179.622 503.912 180.882 503.994 182.116C504.421 188.564 504.823 208.783 503.741 214.414C503.467 215.84 502.522 217.046 501.327 217.834C499.195 219.24 496.31 219.59 493.842 219.041C488.038 217.75 490.633 214.728 488.434 211.446C488.394 211.387 488.352 211.33 488.311 211.271C487.808 212.468 487.232 213.451 486.34 214.404C482.774 218.212 477.909 219.607 472.828 219.747C468.171 219.876 460.088 219.312 456.635 215.86C455.385 214.611 455.288 212.713 455.25 211.053C455.201 208.922 455.299 206.195 456.891 204.565C460.16 201.219 467.578 205.36 471.694 205.253L471.869 205.247C470.526 203.743 464.656 203.194 462.425 202.141C460.01 201.002 458.111 198.243 455.99 196.577C457.362 194.02 455.225 186.708 458.105 181.848C459.792 179 462.962 177.724 466.034 176.951C471.596 175.551 479.923 175.011 484.999 178.101C486.644 179.102 487.893 180.589 488.319 182.495C488.849 184.866 487.978 188.102 486.654 190.091C484.048 194.008 479.654 190.081 476.347 190.699L476.89 191.253C479.228 191.345 481.598 192.307 483.592 193.479C486.143 194.978 488.005 196.888 488.755 199.791C489.36 194.929 488.917 189.71 489.131 184.799C489.236 182.39 489.948 179.835 489.908 177.468C489.856 174.326 488.277 171.583 489.091 168.355C489.627 166.232 490.714 165.322 492.548 164.25Z"/>
	<path fill="#FEFEFE" d="M494.19 168.75L497.147 168.651C498.319 169.357 498.721 169.897 499.229 171.186C499.606 172.143 499.363 173.082 498.977 173.981C498.507 175.076 498.227 175.052 497.137 175.486C496.281 175.534 495.395 175.39 494.543 175.301C493.712 174.41 493.212 173.366 493.243 172.133C493.273 170.978 493.318 169.596 494.19 168.75Z"/>
	<path fill="#FEFEFE" d="M493.211 181.749C494.936 181.583 497.045 181.152 498.699 181.725C499.128 185.247 499.574 210.325 498.798 212.456C498.649 212.865 498.229 213.368 497.991 213.751C496.627 214.004 495.616 214.057 494.253 213.77C491.781 210.262 494.632 187.965 493.211 181.749Z"/>
	<path fill="#FEFEFE" d="M468.22 181.25Q469.213 181.128 470.21 181.049C473.695 180.752 480.195 180.133 483.013 182.512C483.455 183.941 483.42 185.112 483.297 186.59C482.823 186.967 475.934 185.541 474.448 185.496C472.085 185.426 467.901 185.483 466.159 187.237C465.53 187.87 465.248 188.452 465.273 189.356C465.435 195.264 478.363 195.04 482.637 198.996C484.176 200.421 485.217 202.23 485.275 204.361C485.346 206.944 484.076 209.308 482.334 211.135C479.737 213.859 477.033 214.538 473.375 214.619C471.778 214.631 470.158 214.639 468.567 214.502C465.807 214.263 462.199 214.193 460.34 211.983C460.253 210.518 460.116 209.168 460.604 207.754C465.803 208.983 471.149 211.216 476.58 209.575C477.885 209.181 478.739 208.623 479.397 207.398C479.698 206.051 479.609 205.009 479.082 203.726C477.27 199.305 469.423 199.756 465.56 198.11C463.576 197.264 461.953 195.97 461.149 193.916C460.307 191.763 460.167 188.682 461.13 186.549C462.467 183.59 465.388 182.35 468.22 181.25Z"/>
	<path fill="#000206" d="M389.499 164.249C392.261 164.021 395.988 163.434 398.475 164.914C399.681 165.631 400.124 166.428 400.46 167.748C401.469 171.713 401.883 195.809 400.215 198.629C402.404 196.938 404.415 194.178 406.009 191.926C404.699 189.807 403.243 188.105 402.68 185.597C402.327 184.017 402.406 182.472 403.293 181.085C404.927 178.53 408.558 177.294 411.38 176.694C417.4 175.414 424.626 175.349 429.925 178.826C433.896 181.431 436.159 185.506 437.112 190.083C438.213 195.365 439.047 212.843 436.133 217.012C435.339 218.148 433.824 218.737 432.495 218.938C430.115 219.3 427.544 218.541 425.127 218.662C415.26 219.156 411.949 220.932 403.167 214.593C403.065 213.621 402.643 212.532 402.386 211.579L401.818 212.217L401.887 211.462C401.513 212.643 401.142 213.917 400.587 215.027C399.714 216.775 398.147 218.298 396.28 218.926C394.227 219.618 391.335 219.423 389.399 218.45C382.4 214.931 387.767 197.869 385.437 191.174L385.385 191.028C383.801 190.892 382.041 190.651 380.459 190.877C372.165 192.061 379.427 211.278 375.214 216.718C374.08 218.183 372.123 218.644 370.378 218.875C368.255 219.156 364.905 219.284 363.117 217.847C361.779 216.77 361.594 215.292 361.406 213.666C360.766 208.131 360.061 181.754 363.031 177.989C366.094 176.987 381.338 175.983 385.114 176.051C386.646 173.66 385.675 170.443 386.371 167.764C386.842 165.955 387.959 165.17 389.499 164.249Z"/>
	<path fill="#FEFEFE" d="M392.8 168.75C394.182 168.786 394.797 168.658 395.959 169.467C396.508 175.797 396.164 182.405 396.166 188.767C396.169 196.914 396.435 205.17 395.965 213.301C394.903 214.094 394.162 213.949 392.875 213.998C392.184 214.066 391.697 213.897 391.053 213.674C391.033 213.605 391.011 213.536 390.992 213.467C390.211 210.661 390.6 170.074 391.259 168.929L392.8 168.75Z"/>
	<path fill="#FEFEFE" d="M381.3 180.75C382.385 180.647 383.141 180.693 384.169 181.068C385.068 182.275 385.551 182.698 385.664 184.237C382.882 187.884 378.517 184.291 375.049 187.207C369.017 192.28 372.372 203.287 371.714 210.127C371.551 211.818 371.17 212.887 369.868 213.952C368.362 214.236 367.016 213.809 365.565 213.436C368.057 208.793 364.321 187.748 366.557 181.501C368.099 181.341 369.234 181.352 370.718 181.826C371.661 182.895 371.498 183.257 371.513 184.63C373.435 184.329 375.042 182.472 376.815 181.686C378.115 181.109 379.89 180.967 381.3 180.75Z"/>
	<path fill="#FEFEFE" d="M413.284 181.249C417.895 180.686 423.311 180.399 427.491 182.777C430.003 184.206 430.978 186.994 431.704 189.664C432.859 193.917 434.065 210.43 432.15 213.777C430.73 213.985 429.43 214.014 427.999 213.931C427.119 212.875 427.802 211.616 427.096 210.771L427.307 210.041C425.128 210.356 422.959 213.432 420.63 214.282C416.606 215.753 411.838 214.193 408.143 212.465C406.754 209.602 405.621 207.981 405.552 204.633C405.496 201.922 405.839 199.077 407.821 197.049C411.729 193.049 419.046 193.664 424.146 193.621C425.544 193.61 426.402 193.552 427.38 192.561C427.181 191.107 426.835 189.697 426.039 188.442C421.722 181.632 412.725 188.094 407.539 186.869L407.208 185.843C407.286 185.107 407.566 184.385 407.959 183.759C409.135 181.886 411.299 181.766 413.284 181.249Z"/>
	<path fill="#000206" d="M420.73 197.75C422.749 197.666 424.797 197.769 426.818 197.801C427.11 198.621 427.225 199.438 427.172 200.309C426.994 203.263 425.906 206.004 423.67 207.977C421.368 210.009 419.149 210.435 416.156 210.251C414.92 209.873 413.763 209.583 412.735 208.752C411.537 207.783 410.285 206.459 410.151 204.845C410.027 203.36 410.778 202.072 411.731 201.001C414.412 197.986 416.979 197.996 420.73 197.75Z"/>
	<path fill="#000206" d="M656.55 164.25C658.707 163.96 661.646 163.733 663.751 164.276C665.199 164.65 666.488 165.392 667.238 166.722C669.077 169.982 667.84 174.78 666.889 178.119L667.207 178.646C669.684 176.252 668.82 174.35 669.508 171.321C669.802 170.023 670.804 168.825 671.919 168.132C673.882 166.911 676.411 166.774 678.613 167.318C680.43 167.766 682.293 168.816 683.268 170.462C684.323 172.245 684.246 174.956 683.765 176.911C686.411 176.925 689.818 176.623 692.223 177.793C694.005 178.659 694.515 180.042 695.121 181.831C697.099 182.05 704.664 174.205 714.715 176.013C720.435 177.042 724.573 180.664 727.77 185.28C728.58 183.744 729.546 182.151 730.657 180.815C733.29 177.649 737.737 176.459 741.683 176.098C746.382 175.668 752.97 175.273 756.795 178.509C758.635 180.066 759.902 182.301 760.079 184.722Q760.107 185.066 760.099 185.412Q760.092 185.757 760.049 186.1Q760.007 186.443 759.93 186.779Q759.853 187.116 759.742 187.443Q759.631 187.77 759.487 188.084Q759.343 188.399 759.169 188.696Q758.994 188.994 758.79 189.273Q758.585 189.552 758.354 189.808C754.907 193.677 751.612 190.422 747.546 190.657C748.505 191.653 751.853 191.762 753.34 192.363C756.398 193.599 758.712 196.243 759.975 199.243C761.485 202.83 761.558 207.301 760.071 210.907C758.991 213.526 757.247 215.352 754.64 216.441C754.581 216.559 754.515 216.681 754.431 216.783C750.57 221.457 736.681 219.737 731.531 218.144C730.091 217.698 728.338 215.914 727.005 215.97C724.339 216.081 719.192 219.441 714.992 219.882C707.284 220.692 701.098 217.945 695.219 213.186C695.112 214.432 694.465 216.24 693.608 217.16C692.194 218.679 689.894 219.085 687.913 219.138C682.8 219.274 676.885 218.986 673.002 215.232C667.501 209.913 669.049 197.339 668.971 190.064L668.515 189.619C666.366 192.897 669.416 209.61 667.652 215.066C667.188 216.497 665.847 217.658 664.539 218.31C662.324 219.414 659.442 219.609 657.098 218.818C655.848 218.396 654.45 217.597 653.888 216.337C652.556 213.349 652.296 183.886 653.262 181.183C655.053 176.175 651.897 173.301 653.22 168.192C653.767 166.077 654.718 165.325 656.55 164.25ZM690.917 189.981C688.515 190.056 685.972 189.985 683.59 190.25L683.629 190.398C684.773 194.891 683.069 199.73 684.57 204.176C686.076 204.703 689.079 205.781 690.628 205.032C690.789 204.953 690.935 204.855 691.079 204.748L690.297 203.751C690.402 202.652 690.986 190.113 690.917 189.981Z"/>
	<path fill="#FEFEFE" d="M658.281 168.75L661.378 168.705C662.355 169.212 662.793 169.962 663.167 170.962C663.616 172.158 663.371 173.128 662.871 174.242C662.459 175.161 662.063 175.132 661.136 175.487C660.152 175.52 659.342 175.44 658.39 175.186C657.799 174.355 657.323 173.48 657.262 172.44C657.184 171.136 657.42 169.703 658.281 168.75Z"/>
	<path fill="#FEFEFE" d="M657.225 181.75C659.008 181.557 660.719 181.361 662.51 181.574C662.658 181.787 662.791 182.017 662.836 182.276C663.318 185.016 663.468 210.657 662.816 212.455C662.668 212.864 662.249 213.368 662.012 213.75C660.643 214.002 659.63 214.06 658.264 213.763C656.179 211.756 658.407 186.406 657.225 181.75Z"/>
	<path fill="#FEFEFE" d="M673.418 172.749C674.62 172.478 676.421 172.005 677.613 172.343C678.481 172.588 679.086 173.231 679.48 174.039C680.327 175.78 679.352 179.758 678.692 181.479C681.2 181.452 684.242 181.118 686.687 181.545C688.006 181.776 689.777 182.211 690.59 183.353L690.273 184.117C686.656 186.124 682.592 185.596 678.605 185.5C680.937 189.334 679.192 197.907 679.162 202.442C679.149 204.386 679.49 206.834 680.942 208.269C682.494 209.801 684.852 209.51 686.875 209.507C687.505 209.458 688.273 209.372 688.89 209.524C690.114 209.826 690.485 210.182 691.138 211.227C690.712 212.185 690.509 212.687 689.514 213.192C686.897 214.517 682.847 214.564 680.092 213.679C669.094 210.147 676.679 191.887 673.581 185.881C672.678 185.526 671.818 185.384 670.858 185.258L670.225 184.109C670.282 180.68 672.57 182.279 673.855 179.713C674.79 177.845 674.037 174.663 673.418 172.749Z"/>
	<path fill="#FEFEFE" d="M739.669 181.25C743.438 180.751 747.981 180.422 751.704 181.267C752.998 181.56 753.835 181.923 754.551 183.043C754.594 184.326 754.879 185.415 754.173 186.509C752.402 186.962 750.283 185.977 748.52 185.621C745.914 185.095 741.113 184.842 738.856 186.407C737.698 187.21 736.81 188.39 736.542 189.779C738.335 195.275 750.025 195.304 754.425 199.45C755.75 200.699 756.724 202.334 756.77 204.193C756.829 206.641 755.317 209.75 753.657 211.48C751.045 214.203 747.434 214.584 743.875 214.644C739.441 214.608 735.329 213.834 731.009 212.893C731.737 211.867 731.636 209.443 731.952 208.115C734.603 207.166 742.928 211.614 748.099 209.768C749.272 209.349 750.077 208.66 750.604 207.527C751.234 206.174 751.202 204.905 750.681 203.541C748.038 199.954 741.582 199.874 737.649 198.222C735.452 197.299 733.327 195.785 732.416 193.503C731.588 191.428 731.571 188.652 732.487 186.599C733.847 183.551 736.755 182.347 739.669 181.25Z"/>
	<path fill="#FEFEFE" d="M706.217 181.25C710.585 180.639 713.953 180.543 717.989 182.719C720.966 184.323 723.688 187.14 724.666 190.433C725.327 192.659 725.737 196.843 724.609 198.961C719.992 198.998 705.09 198.181 701.616 199.131C700.957 199.311 700.835 199.881 700.512 200.456C700.518 201.104 700.576 201.794 700.801 202.407C701.948 205.521 704.849 208.306 707.864 209.612C710.371 210.697 714.07 210.608 716.606 209.589C718.828 209.45 721.034 208.475 723.124 207.754L723.84 208.129C724.001 208.622 724.148 209.16 724.13 209.683C724.085 210.952 723.722 211.835 722.798 212.723C717.005 214.876 710.874 215.496 704.944 213.504C701.31 212.283 698.779 210.064 697.085 206.604C694.727 201.791 694.613 195.511 696.347 190.462C698.119 185.304 701.628 183.487 706.217 181.25Z"/>
	<path fill="#000206" d="M707.603 185.75C709.656 185.448 712.606 185.047 714.552 185.931C716.469 186.801 719.11 189.897 719.82 191.865C720.182 192.868 720.113 193.285 719.678 194.217C718.091 195.217 713.839 194.742 711.875 194.727C709.193 194.769 703.493 195.491 701.454 193.521C700.852 192.94 700.979 192.535 700.962 191.753C702.171 189.129 705.072 186.973 707.603 185.75Z"/>
	<path fill="#000206" d="M290.629 164.248C292.555 164.013 294.913 163.798 296.841 164.096C298.417 164.339 300.018 165.148 300.965 166.458C302.852 169.068 302.088 173.453 301.597 176.442C306.559 176.28 311.396 175.088 316.001 177.738C319.78 179.913 322.441 183.736 323.548 187.916C324.322 190.838 324.622 195.075 323.058 197.791C325.311 196.286 327.201 193.599 329.024 191.58C327.995 190.411 326.796 190.629 326.021 188.911C325.06 186.777 324.659 184.179 325.538 181.951C326.356 179.875 328.237 178.568 330.22 177.714C335.895 175.271 344.229 175.213 349.955 177.533C353.891 179.128 357 182.032 358.661 185.959C360.446 190.181 361.118 211.68 359.284 216.12C358.875 217.111 358.12 217.593 357.157 217.983C353.292 219.548 340.746 219.87 336.599 219.345C333.972 219.013 331.278 218.284 328.956 216.997C327.028 215.929 326.162 213.134 324.644 212.504C324.105 213.946 323.578 215.877 322.585 217.067C321.445 218.432 319.722 219.07 317.987 219.203C314.482 219.47 311.652 218.502 309.024 216.251C309.07 216.003 309.115 215.747 309.131 215.494C309.317 212.545 309.55 192.958 308.144 191.411C307.513 190.716 306.959 190.574 306.024 190.551C305.454 190.538 304.308 190.906 303.925 191.3C300.89 194.412 302.169 204.245 302.195 208.491C302.213 211.477 302.283 215.274 300.001 217.53C298.493 219.022 296.588 219.14 294.581 219.109C288.793 219.018 289.716 217.81 286.349 214.337C283.305 217.05 278.932 218.545 274.97 219.278C267.661 220.63 260.249 219.367 254.075 215.112C248.74 211.435 245.452 205.784 244.306 199.467C242.829 191.333 243.776 181.998 248.586 175.083C252.33 169.7 257.843 166.43 264.261 165.295Q264.988 165.162 265.72 165.065Q266.453 164.968 267.189 164.907Q267.926 164.847 268.664 164.824Q269.403 164.8 270.142 164.814Q270.88 164.827 271.618 164.877Q272.355 164.928 273.089 165.015Q273.822 165.102 274.551 165.225Q275.279 165.349 276.001 165.509Q276.722 165.668 277.435 165.864Q278.147 166.06 278.849 166.29Q279.551 166.521 280.241 166.787Q280.93 167.053 281.606 167.353Q282.281 167.652 282.941 167.985Q283.6 168.318 284.242 168.684Q284.884 169.05 285.507 169.447Q286.131 169.844 286.733 170.272L286.79 170.264Q287.051 169.031 287.377 167.813C287.922 165.811 288.906 165.233 290.629 164.248ZM266.006 180.246C263.472 181.244 261.944 182.591 260.853 185.125C259.064 189.282 259.043 194.941 260.748 199.125C261.696 201.45 263.439 203.563 265.797 204.539C268.923 205.834 272.691 205.16 275.728 203.86C276.594 203.489 278.44 202.3 278.793 201.41C278.814 201.356 278.831 201.301 278.85 201.246C279.876 200.877 281.191 200.311 282.291 200.376C283.636 200.456 286.128 202.191 286.948 201.234C287.029 195.28 287.818 188.215 286.624 182.38C285.139 183.416 283.8 184.099 281.943 183.752C275.102 182.473 274.299 179.428 266.006 180.246Z"/>
	<path fill="#FEFEFE" d="M264.688 170.246Q266.38 170.06 268.078 169.951C273.218 169.623 278.92 170.423 282.906 173.933C283.044 174.163 283.138 174.414 283.221 174.668C283.797 176.432 283.534 178.349 282.688 179.969C281.667 178.639 280.238 177.659 278.778 176.873C274.616 174.633 269.168 174.128 264.652 175.523C261.176 176.596 258.417 178.926 256.747 182.156C254.116 187.24 254.002 194.416 255.75 199.826C256.99 203.664 259.451 207.009 263.105 208.834C266.35 210.454 271.265 210.388 274.69 209.251C277.886 208.76 280.52 206.942 282.863 204.816C283.032 205.033 283.128 205.229 283.215 205.49C283.778 207.174 283.635 209.231 282.83 210.805C281.435 212.223 278.869 213.129 276.981 213.666C271.076 215.346 264.003 215.131 258.586 212.055C253.989 209.445 250.845 205.087 249.435 200.029C247.621 193.527 248.09 185.587 251.484 179.667C254.524 174.365 258.972 171.811 264.688 170.246Z"/>
	<path fill="#FEFEFE" d="M292.078 168.75L296.85 168.814Q297.018 169.321 297.145 169.84C297.863 172.773 298.288 183.145 296.688 185.788C298.859 184.295 300.887 182.567 303.404 181.693C306.526 180.609 309.952 180.141 313.019 181.642C315.646 182.928 317.291 185.504 318.193 188.204C319.44 191.938 320.528 209.507 318.887 212.519C318.227 213.732 317.453 214.035 316.197 214.43C311.472 212.847 315.646 199.497 313.099 195.245C313.35 194.858 313.533 194.459 313.592 193.996C313.863 191.877 313.504 189.715 312.164 188.011C310.91 186.417 308.975 185.286 306.951 185.077C304.972 184.873 303.053 185.576 301.547 186.849C294.822 192.534 298.28 203.573 297.551 211.136C297.41 212.598 296.732 213.169 295.669 214.041C294.395 214.195 293.982 214.253 292.763 213.733C290.979 210.895 292.031 174.343 292.078 168.75Z"/>
	<path fill="#FEFEFE" d="M335.96 181.249C339.13 180.845 342.566 180.575 345.712 181.254C348.667 181.891 351.28 183.383 352.922 185.975C356.04 190.896 356.385 207.767 355.102 213.656C353.809 214.209 352.183 214.008 350.801 213.995C349.788 213.285 350.154 211.512 349.794 210.264C347.095 210.694 345.453 213.546 342.938 214.492C339.453 215.803 334.46 214.177 331.21 212.725Q330.637 212.014 330.121 211.26C328.273 208.553 327.489 205.121 328.13 201.881C330.529 189.746 345.99 195.642 349.816 193.04C349.961 192.011 349.748 191.15 349.417 190.182C346.082 180.421 333.978 188.535 330.369 186.755C330.167 185.487 330.386 184.569 330.719 183.359C331.659 181.96 334.377 181.647 335.96 181.249Z"/>
	<path fill="#000206" d="M343.221 197.75L349.474 197.715C349.635 198.457 349.774 199.237 349.764 199.998C349.728 202.698 348.693 205.639 346.749 207.55C344.462 209.797 342.246 210.338 339.118 210.289C337.825 210.049 336.544 209.639 335.494 208.828C334.241 207.859 332.927 206.501 332.773 204.841C332.634 203.33 333.386 202.041 334.34 200.941C336.881 198.012 339.625 197.997 343.221 197.75Z"/>
	<path fill="#000206" d="M95.1012 22.1033C118.538 12.5762 143.98 5.26695 168.678 15.6528C173.047 17.49 177.612 20.6875 181.98 22.1272C193.14 28.4004 201.407 38.9572 207.358 50.0905C213.427 51.0628 220.204 50.5599 226.368 50.5796C226.433 62.6309 226.628 69.2909 221.12 80.2116C224.245 103.042 226.377 125.451 215.673 146.897L217.977 150.387L213.743 157.764C215.289 157.038 216.156 156.354 217.887 156.602C219.058 158.59 218.533 161.844 218.495 164.185C218.719 184.781 221.841 205.105 206.098 221.214C203.543 223.828 200.713 225.918 197.719 228L23.4311 228C21.393 226.647 19.3312 225.186 17.4717 223.597C8.63364 216.047 3.43219 206.551 2.55126 194.963C1.86543 185.942 2.19411 176.704 2.15301 167.648L2.06747 117.555L2.05499 80.1301C2.05903 70.623 1.50559 60.5931 3.26843 51.2176C4.46465 44.8556 7.89367 38.7291 12.0836 33.8604C24.81 19.0722 39.6962 18.9384 57.8048 18.9965C69.6708 19.0345 81.8101 19.6356 93.6394 18.7645C94.72 19.7767 94.7371 20.6874 95.1012 22.1033Z"/>
	<path fill="#FEFEFE" d="M213.443 59.912Q214.031 59.8426 214.622 59.821C215.832 59.7823 217.213 60.1281 218.102 60.9939C218.783 61.6574 219.158 62.4554 219.128 63.4306C219.081 64.9384 218.078 65.9079 217.078 66.9166C215.884 67.0913 214.635 67.1525 213.617 66.3851C212.658 65.6627 212.071 64.8637 211.93 63.6393C211.755 62.1132 212.545 61.0496 213.443 59.912Z"/>
	<path fill="#0276F5" d="M180.266 133.875L181.231 133.916L181.556 134.474C180.952 135.503 180.191 136.368 179.355 137.215C173.709 142.932 166.164 144.5 158.392 144.538L157.221 144.339C157.926 143.533 163.479 142.892 165.002 142.308C170.522 140.191 175.349 137.092 180.266 133.875Z"/>
	<path fill="#B10033" d="M200.288 66.7237C201.701 66.5759 203.345 66.3096 204.735 66.7145C206.613 67.2616 208.403 68.818 209.315 70.5313C210.708 73.1496 211.087 78.5754 210.243 81.4279L209.628 80.8407C208.34 78.9029 198.52 67.1443 198.52 67.1404L200.288 66.7237Z"/>
	<path fill="#FEFEFE" d="M61.1725 51.9642C62.1523 51.8827 63.1467 51.8336 64.1236 51.9726C65.5589 52.1769 66.9471 53.0166 67.8066 54.1853C68.5005 55.1288 68.7613 56.2456 68.5765 57.3984C68.237 59.5164 66.8606 60.5947 65.2072 61.7806C64.5343 61.8995 63.8138 61.9108 63.132 61.8696C61.7539 61.7864 60.2631 61.0811 59.3524 60.0319C58.4956 59.0446 58.1702 57.796 58.2608 56.5131C58.4111 54.3835 59.6287 53.2839 61.1725 51.9642Z"/>
	<path fill="#DFE7E7" d="M32.8293 85.4625C32.8756 89.4694 27.7195 96.5191 26.3279 100.839C23.573 109.391 22.0809 118.191 20.7504 127.052L19.1185 129.502C18.9274 126.927 19.461 123.967 19.6972 121.385C20.9521 107.666 24.964 96.762 32.8293 85.4625Z"/>
	<path fill="#DFE7E7" d="M26.9233 123.498C26.8133 124.638 26.7841 125.855 26.3702 126.932C23.94 130.475 23.5019 136.36 22.8231 140.571C22.3751 144.401 21.1705 162.58 19.1929 164.933C18.1968 154.107 18.8203 144.539 21.6583 133.97C22.9827 130.214 24.8193 126.865 26.9233 123.498Z"/>
	<path fill="#053F86" d="M38.0989 78.9929C40.5783 75.0068 45.7405 71.1722 49.5512 68.4612C51.3607 71.1724 53.5662 73.6885 55.6106 76.2291C53.9257 77.1147 52.0492 77.9273 50.4668 78.9714L50.1103 79.127C46.1517 78.4622 42.0804 78.7664 38.0989 78.9929Z"/>
	<path fill="#DFE7E7" d="M23.0005 65.0633C29.0328 58.4973 43.4626 43.925 50.5456 39.3348C59.353 39.5559 68.1874 40.3111 76.9904 40.7686C78 41.7585 78.5879 41.9958 79.9716 42.1336L79.8751 42.6347Q65.6893 42.2426 51.5116 41.6214C41.7494 49.0126 33.2893 58.4006 23.0005 65.0633Z"/>
	<path fill="#B6C0C7" d="M215.673 146.897L217.977 150.387L213.743 157.764C215.289 157.038 216.156 156.354 217.887 156.602C219.058 158.59 218.533 161.844 218.495 164.185L217.727 163.019C214.485 165.28 212.493 169.288 208.989 171.164L208.947 156.965C211.316 153.675 213.648 150.417 215.673 146.897Z"/>
	<path fill="#E43902" d="M132.545 120.167C132.038 122.426 131.046 123.439 129.053 124.7C121.672 129.371 112.429 130.797 103.88 131.417L102.461 131.56C95.3445 131.396 88.6581 130.429 81.7033 129.049L81.9895 124.358Q82.543 124.567 83.1125 124.727C99.4683 129.193 117.683 128.682 132.545 120.167Z"/>
	<path fill="#E43902" d="M70.4194 79.0203C70.5692 74.9299 70.6922 70.5979 71.7052 66.6151C72.6106 63.055 74.4173 59.6617 77.6702 57.7511C82.792 54.743 93.6241 54.7912 99.3391 56.3022C94.5193 57.7559 89.0321 59.5188 85.4632 63.2746C82.6702 65.2761 80.3596 67.7006 78.3799 70.5068C74.9198 72.5469 72.7286 75.8333 70.4194 79.0203Z"/>
	<path fill="#053F86" d="M52.2861 189.89L52.4597 190.683C53.138 193.19 53.8402 195.692 54.4193 198.224C54.3217 204.048 55.0313 209.309 56.4477 214.953L40.2082 214.829Q40.7971 211.857 41.7777 208.99Q42.7582 206.123 44.1128 203.413C45.5004 200.651 52.2804 192.064 52.2861 189.89Z"/>
	<path fill="#053F86" d="M62.5238 214.965C68.0496 210.036 73.7971 205.313 78.9427 199.976C80.1911 198.681 82.0598 195.685 83.8484 195.352C83.9374 199.204 84.6882 202.608 85.476 206.352L87.7195 214.284L87.518 214.844C79.2379 215.406 70.8523 214.613 62.5238 214.965Z"/>
	<path fill="#0276F5" d="M82.8021 214.589C81.4214 214.639 79.4246 214.96 78.2806 214.102C78.4303 212.659 82.0452 209.44 83.1876 207.994C83.4422 210.196 83.0733 212.404 82.8021 214.589Z"/>
	<path fill="#0959B8" d="M83.1876 207.994C83.7774 206.894 84.3691 206.828 85.476 206.352L87.7195 214.284L82.8021 214.589C83.0733 212.404 83.4422 210.196 83.1876 207.994Z"/>
	<path fill="#098CF7" d="M22.8231 140.571C24.1664 142.495 26.5868 151.587 26.6537 154.015C27.4327 157.72 28.4642 161.245 30.3605 164.543C27.3163 169.011 24.7114 173.287 23.3344 178.564C22.2559 182.697 22.4212 193.971 20.6845 196.656C17.6614 186.152 19.6569 175.633 19.1929 164.933C21.1705 162.58 22.3751 144.401 22.8231 140.571Z"/>
	<path fill="#53B602" d="M88.259 184.949C89.9145 186.354 90.1478 187.375 90.3279 189.552Q90.4265 190.812 90.4911 192.074C91.2899 192.296 92.8664 193.03 93.4771 193.059C95.2242 199.313 97.5468 205.393 99.2701 211.627L100.644 213.712L98.5798 214.996Q93.0475 215.021 87.518 214.844L87.7195 214.284L85.476 206.352C84.6882 202.608 83.9374 199.204 83.8484 195.352C84.9457 191.8 86.7373 188.343 88.259 184.949Z"/>
	<path fill="#2B9207" d="M90.4911 192.074C91.2899 192.296 92.8664 193.03 93.4771 193.059C95.2242 199.313 97.5468 205.393 99.2701 211.627C99.308 212.392 99.2621 212.859 98.9263 213.551C98.4044 213.351 97.8745 213.083 97.4585 212.702C94.1035 209.631 90.822 196.77 90.4911 192.074Z"/>
	<path fill="#053F86" d="M32.3458 162.037L33.1412 167.263L32.356 170.535C29.5367 178.415 28.5307 192.813 30.5104 200.984C30.5453 204.342 31.2288 207.749 31.7328 211.066C31.706 211.049 31.6789 211.033 31.6524 211.016C26.7203 207.831 22.3074 202.35 20.6845 196.656C22.4212 193.971 22.2559 182.697 23.3344 178.564C24.7114 173.287 27.3163 169.011 30.3605 164.543L32.3458 162.037Z"/>
	<path fill="#FDAD04" d="M70.4194 79.0203C72.7286 75.8333 74.9198 72.5469 78.3799 70.5068C74.7817 79.4331 73.2096 87.0613 77.1119 96.234C80.3031 103.735 86.4877 108.978 93.8663 112.152C101.155 114.401 108.612 114.147 115.985 112.341C127.686 107.66 130.204 100.949 136.617 91.0285C135.392 98.7041 132.645 105.459 126.178 110.166C123.481 112.129 120.51 113.335 117.381 114.425C109.28 116.122 101.302 116.107 93.141 114.814C87.1268 113.95 81.124 112.308 76.8189 107.728C69.776 100.235 70.1775 88.5874 70.4194 79.0203Z"/>
	<path fill="#FEFEFE" d="M76.9904 40.7686C100.66 27.3938 131.347 14.3017 158.82 21.9222C171.879 25.5445 185.527 32.7198 192.458 44.9308Q192.584 45.1508 192.697 45.3779C190.436 44.8168 185.107 39.1437 182.609 37.522C181.508 36.1428 179.543 35.1244 178.048 34.2073C158.953 22.4915 134.683 23.8402 113.806 28.8693C102.599 32.2882 90.0502 35.9676 79.9716 42.1336C78.5879 41.9958 78 41.7585 76.9904 40.7686Z"/>
	<path fill="#098CF7" d="M55.6106 76.2291C56.789 80.2806 56.7076 85.2426 56.958 89.4727L55.5108 89.8654L54.4907 90.5193C47.0567 94.5145 41.0977 99.257 35.8421 105.925C33.4545 109.255 31.1586 113.082 30.1336 117.091L30.2765 117.627L30.8092 118.301C30.0523 120.458 27.9628 121.604 26.9233 123.498C24.8193 126.865 22.9827 130.214 21.6583 133.97C21.5777 133.897 21.4766 133.81 21.4011 133.727C20.5305 132.773 19.0486 130.795 19.1185 129.502L20.7504 127.052C22.0809 118.191 23.573 109.391 26.3279 100.839C27.7195 96.5191 32.8756 89.4694 32.8293 85.4625C34.2176 83.0838 36.2766 81.0454 38.0989 78.9929C42.0804 78.7664 46.1517 78.4622 50.1103 79.127L50.4668 78.9714C52.0492 77.9273 53.9257 77.1147 55.6106 76.2291Z"/>
	<path fill="#0AA2F5" d="M36.1381 98.9053C34.737 100.672 34.4309 103.002 32.9729 104.701L32.2236 104.561C31.5145 102.789 33.1266 98.1391 33.8638 96.3479C35.3089 92.8368 37.8258 90.0563 41.3361 88.5683C39.7074 91.4772 37.4807 94.7168 36.6706 97.9502L36.1381 98.9053Z"/>
	<path fill="#000206" d="M30.2765 117.627L30.8092 118.301C30.0523 120.458 27.9628 121.604 26.9233 123.498C24.8193 126.865 22.9827 130.214 21.6583 133.97C21.5777 133.897 21.4766 133.81 21.4011 133.727C20.5305 132.773 19.0486 130.795 19.1185 129.502L20.7504 127.052C23.8498 123.813 26.9619 120.649 30.2765 117.627Z"/>
	<path fill="#63C302" d="M55.6106 76.2291C56.789 80.2806 56.7076 85.2426 56.958 89.4727L55.5108 89.8654L54.4907 90.5193C47.0567 94.5145 41.0977 99.257 35.8421 105.925C35.833 103.603 36.0358 101.227 36.1381 98.9053L36.6706 97.9502C37.4807 94.7168 39.7074 91.4772 41.3361 88.5683C42.6461 87.615 47.7086 81.2554 50.1103 79.127L50.4668 78.9714C52.0492 77.9273 53.9257 77.1147 55.6106 76.2291Z"/>
	<path fill="#2B9207" d="M55.6106 76.2291C56.789 80.2806 56.7076 85.2426 56.958 89.4727L55.5108 89.8654L54.4907 90.5193C47.0567 94.5145 41.0977 99.257 35.8421 105.925C35.833 103.603 36.0358 101.227 36.1381 98.9053L36.6706 97.9502C42.548 94.3397 48.0227 91.3494 54.6756 89.4188C52.9525 85.937 52.9073 82.2632 50.4668 78.9714C52.0492 77.9273 53.9257 77.1147 55.6106 76.2291Z"/>
	<path fill="#EA0141" d="M182.609 37.522C185.107 39.1437 190.436 44.8168 192.697 45.3779C195.006 48.5548 196.138 52.3473 197.249 56.0621L188.286 57.805Q186.413 56.9584 184.51 56.1807C172.531 51.3362 158.978 56.6583 147.855 61.3592C136.639 46.6541 111.265 46.0086 94.4123 43.5784C101.609 39.2608 126.029 41.8351 133.765 43.7587C138.755 44.9997 143.808 47.6904 148.996 47.8175C152.195 47.8959 155.688 45.9077 158.603 44.7543C165.477 42.0349 177.093 45.7452 183.845 47.7361C185.689 49.1961 187.846 50.4633 189.805 51.7789C187.428 48.2917 182.128 41.96 182.609 37.522Z"/>
	<path fill="#0276F5" d="M32.356 170.535C34.5946 169.111 36.6526 166.59 38.7439 164.859C42.5654 161.697 46.6374 159.26 50.9156 156.788L51.7251 157.405C49.2366 168.836 49.8851 178.481 52.2861 189.89C52.2804 192.064 45.5004 200.651 44.1128 203.413Q42.7582 206.123 41.7777 208.99Q40.7971 211.857 40.2082 214.829C37.0875 214.161 34.3659 212.823 31.7328 211.066C31.2288 207.749 30.5453 204.342 30.5104 200.984C28.5307 192.813 29.5367 178.415 32.356 170.535Z"/>
	<path fill="#07C4FA" d="M32.356 170.535C34.5946 169.111 36.6526 166.59 38.7439 164.859C42.5654 161.697 46.6374 159.26 50.9156 156.788C46.4888 162.44 37.2254 181.656 34.2927 188.814C33.1146 191.689 32.2021 199.005 30.5104 200.984C28.5307 192.813 29.5367 178.415 32.356 170.535Z"/>
	<path fill="#B6C0C7" d="M181.429 117.523Q180.515 117.809 179.593 118.065C174.085 119.587 168.321 119.242 163.28 116.355C157.741 113.182 154.047 107.73 152.38 101.638Q152.199 100.972 152.051 100.298Q151.903 99.6247 151.788 98.9444Q151.673 98.2641 151.593 97.5789Q151.512 96.8938 151.465 96.2055Q151.418 95.5172 151.405 94.8274Q151.392 94.1376 151.413 93.4481Q151.434 92.7585 151.49 92.0708Q151.545 91.3831 151.634 90.699Q151.723 90.0149 151.846 89.336Q151.969 88.6572 152.125 87.9852Q152.281 87.3132 152.47 86.6497Q152.659 85.9863 152.881 85.3329Q153.102 84.6796 153.356 84.0381Q153.61 83.3965 153.895 82.7682Q154.18 82.14 154.496 81.5266Q154.811 80.9132 155.157 80.3161C159.714 72.3966 167.159 68.2737 175.785 65.9864C178.658 65.2246 180.387 65.241 182.972 66.7375C175.108 68.9834 167.001 74.8693 162.961 82.0895C162.08 83.6653 161.428 85.367 160.672 87.004C159.722 92.215 158.95 98.0362 162.191 102.67C163.921 105.143 166.648 106.731 169.615 107.221C171.887 107.596 174.362 106.931 176.584 106.438C186.086 111.838 192.426 119.413 195.363 130.072C196.712 134.966 197.06 140.011 197.501 145.048C197.195 147.817 196.553 150.611 196.042 153.353C205.008 141.626 212.594 125.277 212.546 110.333C213.669 114.804 213.191 120.849 212.605 125.384C210.676 140.32 201.656 152.638 189.942 161.652C192.372 154.861 194.337 148.143 193.855 140.852C193.207 131.035 188.69 123.861 181.429 117.523Z"/>
	<path fill="#FD1370" d="M113.806 28.8693C134.683 23.8402 158.953 22.4915 178.048 34.2073C179.543 35.1244 181.508 36.1428 182.609 37.522C182.128 41.96 187.428 48.2917 189.805 51.7789C187.846 50.4633 185.689 49.1961 183.845 47.7361C177.093 45.7452 165.477 42.0349 158.603 44.7543C155.688 45.9077 152.195 47.8959 148.996 47.8175C143.808 47.6904 138.755 44.9997 133.765 43.7587C126.029 41.8351 101.609 39.2608 94.4123 43.5784C89.7009 43.4686 84.4977 43.5125 79.8751 42.6347L79.9716 42.1336C90.0502 35.9676 102.599 32.2882 113.806 28.8693Z"/>
	<path fill="#FBE3F2" d="M149.163 35.8881C150.599 35.9674 151.899 36.2004 153.081 37.0818C154.146 37.8755 154.351 38.6918 154.55 39.9407C154.102 41.3773 153.508 41.9534 152.348 42.8516C150.955 42.8911 149.414 42.9544 148.188 42.1769C147.096 41.4842 146.941 40.7612 146.697 39.5684C146.975 37.842 147.925 37.0352 149.163 35.8881Z"/>
	<path fill="#FA428F" d="M113.806 28.8693C134.683 23.8402 158.953 22.4915 178.048 34.2073C179.543 35.1244 181.508 36.1428 182.609 37.522C182.128 41.96 187.428 48.2917 189.805 51.7789C187.846 50.4633 185.689 49.1961 183.845 47.7361C180.897 43.412 175.754 40.0517 171.159 37.7185C168.646 36.4426 163.722 34.0938 160.938 35.0006C148.627 30.6137 138.611 29.5401 125.685 29.4495C121.59 29.8598 117.839 29.68 113.806 28.8693Z"/>
	<path fill="#FBE3F2" d="M119.573 28.5904C131.557 26.5657 148.147 24.9178 158.721 32.3673C159.609 32.9928 160.673 33.7251 160.923 34.8599C160.933 34.9059 160.933 34.9537 160.938 35.0006C148.627 30.6137 138.611 29.5401 125.685 29.4495L119.573 28.5904Z"/>
	<path fill="#B10033" d="M140.47 148.14C149.165 152.199 157.305 153.849 166.582 150.474Q168.253 149.858 169.894 149.163C172.31 170.781 179.333 191.991 191.754 209.973C187.57 212.995 181.731 215.702 176.434 214.974C176.096 213.229 172.857 210.208 171.616 208.767C167.144 203.573 163.039 198.473 159.285 192.723C150.696 179.57 143.086 163.695 140.47 148.14Z"/>
	<path fill="#FEFEFE" d="M182.972 66.7375C195.747 73.0467 205.742 85.1835 210.303 98.606C211.573 102.345 212.456 106.375 212.546 110.333C212.594 125.277 205.008 141.626 196.042 153.353C196.553 150.611 197.195 147.817 197.501 145.048C197.06 140.011 196.712 134.966 195.363 130.072C192.426 119.413 186.086 111.838 176.584 106.438C174.362 106.931 171.887 107.596 169.615 107.221C166.648 106.731 163.921 105.143 162.191 102.67C158.95 98.0362 159.722 92.215 160.672 87.004C161.428 85.367 162.08 83.6653 162.961 82.0895C167.001 74.8693 175.108 68.9834 182.972 66.7375Z"/>
	<path fill="#DFE7E7" d="M160.672 87.004C170.581 87.0167 178.914 89.3663 186.094 96.5477C196.251 106.706 199.115 121.525 199.073 135.405C199.064 138.367 198.974 142.42 197.501 145.048C197.06 140.011 196.712 134.966 195.363 130.072C192.426 119.413 186.086 111.838 176.584 106.438C174.362 106.931 171.887 107.596 169.615 107.221C166.648 106.731 163.921 105.143 162.191 102.67C158.95 98.0362 159.722 92.215 160.672 87.004Z"/>
	<path fill="#53B602" d="M54.4907 90.5193C55.29 94.1096 55.5236 97.8045 56.3653 101.374L54.32 103.437L52.1818 103.636C42.4061 113.102 40.3072 119.268 39.5158 132.768L39.2046 139.689C49.5191 137.061 59.8693 134.947 70.0406 131.716C67.6702 134.392 65.3083 137.104 63.6704 140.311C59.7651 151.197 59.0406 161.612 62.206 172.885C62.7398 175.521 63.0689 180.111 64.4666 182.311L65.0457 182.32C72.4275 178.897 79.308 171.833 85.6876 166.827L86.7774 167.113L88.021 165.905L88.2508 166.108C87.6701 170.31 86.3191 174.815 86.2275 179.006C79.285 189.893 69.3747 200.385 60.268 209.542L59.3169 209.751L58.9428 208.846C57.0627 205.589 55.8263 201.718 54.4193 198.224C53.8402 195.692 53.138 193.19 52.4597 190.683L52.2861 189.89C49.8851 178.481 49.2366 168.836 51.7251 157.405L50.9156 156.788C46.6374 159.26 42.5654 161.697 38.7439 164.859C36.6526 166.59 34.5946 169.111 32.356 170.535L33.1412 167.263L32.3458 162.037L30.3605 164.543C28.4642 161.245 27.4327 157.72 26.6537 154.015C26.5868 151.587 24.1664 142.495 22.8231 140.571C23.5019 136.36 23.94 130.475 26.3702 126.932C26.7841 125.855 26.8133 124.638 26.9233 123.498C27.9628 121.604 30.0523 120.458 30.8092 118.301L30.2765 117.627L30.1336 117.091C31.1586 113.082 33.4545 109.255 35.8421 105.925C41.0977 99.257 47.0567 94.5145 54.4907 90.5193Z"/>
	<path fill="#63C302" d="M54.1616 185.738C55.9108 187.577 56.248 193.867 56.4411 196.5L55.9521 196.805L55.3737 196.096C54.9846 199.546 60.2158 206.242 58.9428 208.846C57.0627 205.589 55.8263 201.718 54.4193 198.224C53.8402 195.692 53.138 193.19 52.4597 190.683C54.0796 188.806 54.1155 188.186 54.1616 185.738Z"/>
	<path fill="#82E40D" d="M54.6813 150.307L55.9995 150.45C57.3419 152.954 54.207 161.446 53.79 164.652C52.8581 171.818 53.2246 178.601 54.1616 185.738C54.1155 188.186 54.0796 188.806 52.4597 190.683L52.2861 189.89C49.8851 178.481 49.2366 168.836 51.7251 157.405L54.6813 150.307Z"/>
	<path fill="#82E40D" d="M36.9009 111.585L37.627 112.717Q36.9591 114.315 36.2219 115.882C37.5989 118.881 35.9064 123.868 35.2394 126.982C32.5796 133.306 33.0923 146.027 35.5251 152.364L32.2245 153.454C31.3026 146.365 30.8898 139.514 31.1266 132.369C30.6597 131.221 31.3475 129.786 31.0132 128.748C30.4962 127.142 29.6749 125.506 28.8111 123.98C28.4775 125.234 28.2663 126.17 27.2259 127.041L26.3702 126.932C26.7841 125.855 26.8133 124.638 26.9233 123.498C27.9628 121.604 30.0523 120.458 30.8092 118.301L30.2765 117.627L30.1336 117.091C32.4742 116.278 35.0717 113.273 36.9009 111.585Z"/>
	<path fill="#053F86" d="M36.9009 111.585L37.627 112.717Q36.9591 114.315 36.2219 115.882C34.3793 118.947 33.1086 122.129 32.3451 125.629C32.093 127.199 31.8838 131.129 31.1266 132.369C30.6597 131.221 31.3475 129.786 31.0132 128.748C30.4962 127.142 29.6749 125.506 28.8111 123.98C28.4775 125.234 28.2663 126.17 27.2259 127.041L26.3702 126.932C26.7841 125.855 26.8133 124.638 26.9233 123.498C27.9628 121.604 30.0523 120.458 30.8092 118.301L30.2765 117.627L30.1336 117.091C32.4742 116.278 35.0717 113.273 36.9009 111.585Z"/>
	<path fill="#0959B8" d="M26.3702 126.932L27.2259 127.041C28.2663 126.17 28.4775 125.234 28.8111 123.98C29.6749 125.506 30.4962 127.142 31.0132 128.748C31.3475 129.786 30.6597 131.221 31.1266 132.369C30.8898 139.514 31.3026 146.365 32.2245 153.454C32.0627 154.364 32.02 154.541 32.4109 155.381C30.8293 155.915 28.1687 154.587 26.6537 154.015C26.5868 151.587 24.1664 142.495 22.8231 140.571C23.5019 136.36 23.94 130.475 26.3702 126.932Z"/>
	<path fill="#FDCD02" d="M54.4907 90.5193C55.29 94.1096 55.5236 97.8045 56.3653 101.374L54.32 103.437L52.1818 103.636C48.769 104.279 38.7445 108.586 36.9822 111.443C36.9536 111.489 36.928 111.538 36.9009 111.585C35.0717 113.273 32.4742 116.278 30.1336 117.091C31.1586 113.082 33.4545 109.255 35.8421 105.925C41.0977 99.257 47.0567 94.5145 54.4907 90.5193Z"/>
	<path fill="#053F86" d="M35.5251 152.364C43.3274 149.146 53.2218 143.257 60.9808 141.297C58.5112 143.824 56.6151 146.218 54.9529 149.364L54.6813 150.307L51.7251 157.405L50.9156 156.788C46.6374 159.26 42.5654 161.697 38.7439 164.859C36.6526 166.59 34.5946 169.111 32.356 170.535L33.1412 167.263L32.3458 162.037L30.3605 164.543C28.4642 161.245 27.4327 157.72 26.6537 154.015C28.1687 154.587 30.8293 155.915 32.4109 155.381C32.02 154.541 32.0627 154.364 32.2245 153.454L35.5251 152.364Z"/>
	<path fill="#0276F5" d="M26.6537 154.015C28.1687 154.587 30.8293 155.915 32.4109 155.381C33.8574 154.952 34.6647 154.462 36.1207 154.934C36.3259 157.487 33.8325 160.049 32.3458 162.037L30.3605 164.543C28.4642 161.245 27.4327 157.72 26.6537 154.015Z"/>
	<path fill="#2B9207" d="M33.1412 167.263C35.5267 161.872 40.3838 157.434 44.9157 153.816C47.9007 151.432 51.0268 148.92 54.9529 149.364L54.6813 150.307L51.7251 157.405L50.9156 156.788C46.6374 159.26 42.5654 161.697 38.7439 164.859C36.6526 166.59 34.5946 169.111 32.356 170.535L33.1412 167.263Z"/>
	<path fill="#FEFEFE" d="M99.3391 56.3022C108.863 56.7681 127.574 58.6945 134.058 65.9456C137.691 70.0089 138.057 76.4519 137.733 81.6632Q137.69 82.3605 137.619 83.0554C137.467 85.7731 137.133 88.3563 136.617 91.0285C130.204 100.949 127.686 107.66 115.985 112.341C108.612 114.147 101.155 114.401 93.8663 112.152C86.4877 108.978 80.3031 103.735 77.1119 96.234C73.2096 87.0613 74.7817 79.4331 78.3799 70.5068C80.3596 67.7006 82.6702 65.2761 85.4632 63.2746C89.0321 59.5188 94.5193 57.7559 99.3391 56.3022Z"/>
	<path fill="#B6C0C7" d="M99.3391 56.3022C108.863 56.7681 127.574 58.6945 134.058 65.9456C137.691 70.0089 138.057 76.4519 137.733 81.6632Q137.69 82.3605 137.619 83.0554Q137.621 82.3868 137.538 81.7235C136.79 75.8364 132.703 69.3361 128.076 65.7119C120.206 59.5489 106.939 57.4213 97.3543 59.7733C93.3617 60.7529 89.5533 62.7785 85.4632 63.2746C89.0321 59.5188 94.5193 57.7559 99.3391 56.3022Z"/>
	<path fill="#B6C0C7" d="M85.1267 88.5891C86.8297 94.2454 90.6084 99.1057 95.8339 101.946Q96.2933 102.195 96.7646 102.421Q97.2358 102.647 97.7178 102.849Q98.1997 103.051 98.6911 103.229Q99.1825 103.406 99.6822 103.559Q100.182 103.712 100.688 103.84Q101.195 103.968 101.708 104.071Q102.22 104.173 102.737 104.25Q103.254 104.327 103.774 104.378Q104.294 104.429 104.816 104.454Q105.338 104.479 105.86 104.478Q106.383 104.477 106.905 104.45Q107.427 104.423 107.947 104.369Q108.467 104.316 108.983 104.237Q109.5 104.158 110.012 104.054Q110.524 103.949 111.03 103.819Q111.536 103.689 112.035 103.534C118.238 101.647 122.85 97.3345 125.842 91.6603Q126.034 91.2959 126.22 90.928Q126.305 91.681 126.286 92.4385C126.175 96.0917 123.413 100.79 120.833 103.222C116.719 107.102 111.047 108.772 105.479 108.615C99.6876 108.452 94.2059 106.239 90.2211 101.959C86.725 98.2046 84.9486 93.7074 85.1267 88.5891Z"/>
	<path fill="#000206" d="M85.1267 88.5891C83.7753 83.2374 84.4949 77.2877 87.3234 72.5127C90.206 67.6461 95.1316 64.3743 100.562 63.0272Q101.092 62.8956 101.628 62.7905Q102.164 62.6854 102.705 62.607Q103.246 62.5286 103.79 62.4772Q104.333 62.4258 104.879 62.4014Q105.425 62.377 105.971 62.3798Q106.518 62.3826 107.063 62.4124Q107.609 62.4423 108.152 62.4993Q108.695 62.5562 109.235 62.6401Q109.775 62.7239 110.31 62.8344Q110.845 62.945 111.374 63.082Q111.903 63.2189 112.424 63.382Q112.945 63.5451 113.458 63.7338Q113.971 63.9226 114.473 64.1365Q114.976 64.3505 115.467 64.5892Q115.959 64.8278 116.438 65.0906Q116.917 65.3534 117.382 65.6396Q117.817 65.9002 118.238 66.1818Q118.659 66.4634 119.066 66.7654Q119.473 67.0673 119.865 67.3889Q120.256 67.7105 120.632 68.051Q121.007 68.3914 121.365 68.7499Q121.724 69.1084 122.064 69.4841Q122.404 69.8597 122.725 70.2516Q123.046 70.6435 123.348 71.0508Q123.65 71.458 123.931 71.8795Q124.212 72.3011 124.472 72.736Q124.732 73.1708 124.971 73.618Q125.209 74.0651 125.426 74.5234Q125.642 74.9817 125.835 75.4501Q126.029 75.9184 126.199 76.3958Q126.369 76.8731 126.516 77.3582Q126.662 77.8433 126.785 78.335C127.839 82.6472 127.365 86.6947 126.22 90.928Q126.034 91.2959 125.842 91.6603C122.85 97.3345 118.238 101.647 112.035 103.534Q111.536 103.689 111.03 103.819Q110.524 103.949 110.012 104.054Q109.5 104.158 108.983 104.237Q108.467 104.316 107.947 104.369Q107.427 104.423 106.905 104.45Q106.383 104.477 105.86 104.478Q105.338 104.479 104.816 104.454Q104.294 104.429 103.774 104.378Q103.254 104.327 102.737 104.25Q102.22 104.173 101.708 104.071Q101.195 103.968 100.688 103.84Q100.182 103.712 99.6822 103.559Q99.1825 103.406 98.6911 103.229Q98.1997 103.051 97.7178 102.849Q97.2358 102.647 96.7646 102.421Q96.2933 102.195 95.8339 101.946C90.6084 99.1057 86.8297 94.2454 85.1267 88.5891Z"/>
	<path fill="#FEFEFE" d="M97.477 71.4933C98.7159 71.4279 100.191 71.2872 101.406 71.5714C103.289 72.0117 105.219 73.4146 106.21 75.0731Q106.379 75.353 106.519 75.6486Q106.659 75.9442 106.768 76.2524Q106.877 76.5607 106.955 76.8784Q107.032 77.1961 107.077 77.5201Q107.122 77.844 107.134 78.1709Q107.145 78.4977 107.124 78.824Q107.103 79.1503 107.048 79.4728Q106.994 79.7953 106.907 80.1106C106.201 82.7787 104.302 84.1296 102.038 85.4679C100.93 85.4884 99.7372 85.5389 98.6504 85.3051C96.6315 84.8707 94.79 83.5004 93.7012 81.7583Q93.5262 81.482 93.3798 81.1894Q93.2335 80.8968 93.1174 80.591Q93.0014 80.2852 92.9167 79.9693Q92.832 79.6533 92.7796 79.3304Q92.7272 79.0076 92.7075 78.681Q92.6879 78.3545 92.7013 78.0277Q92.7147 77.7008 92.7609 77.377Q92.8072 77.0532 92.8858 76.7357C93.5138 74.1522 95.3071 72.8024 97.477 71.4933Z"/>
	<defs>
		<linearGradient id="gradient_1" gradientUnits="userSpaceOnUse" x1="189.35463" y1="179.78398" x2="101.24103" y2="139.65613">
			<stop offset="0" stop-color="#FF0300"/>
			<stop offset="1" stop-color="#FF7A00"/>
		</linearGradient>
	</defs>
	<path fill="url(#gradient_1)" d="M144.183 106.416C140.185 121.529 138.383 132.448 140.47 148.14C143.086 163.695 150.696 179.57 159.285 192.723C163.039 198.473 167.144 203.573 171.616 208.767C172.857 210.208 176.096 213.229 176.434 214.974L163.588 214.928L144.127 214.805L133.692 214.879C134.918 214.638 135.938 214.446 136.984 213.714C137.396 210.776 132.954 205.425 131.33 202.773C126.572 195.002 125.158 188.129 124.305 179.199C124.144 177.505 123.502 175.42 123.902 173.769L124.958 175.918L125.251 175.297C124.656 172.708 123.391 170.077 122.613 167.498C120.34 159.961 119.173 152.659 118.858 144.789C114.532 153.806 110.456 163.023 104.934 171.388C101.463 157.706 101.733 145.257 103.88 131.417C112.429 130.797 121.672 129.371 129.053 124.7C131.046 123.439 132.038 122.426 132.545 120.167C137.428 116.072 140.784 111.759 144.183 106.416Z"/>
	<path fill="#FDAD04" d="M133.692 214.879C134.918 214.638 135.938 214.446 136.984 213.714C137.396 210.776 132.954 205.425 131.33 202.773C126.572 195.002 125.158 188.129 124.305 179.199C124.144 177.505 123.502 175.42 123.902 173.769L124.958 175.918L125.251 175.297C131.381 185.881 137.755 196.224 147.691 203.713C151.522 206.491 160.948 211.982 163.588 214.928L144.127 214.805L133.692 214.879Z"/>
	<path fill="#FB8202" d="M147.691 203.713C151.522 206.491 160.948 211.982 163.588 214.928L144.127 214.805C145.317 213.835 150.472 214.285 152.196 214.288C150.488 212.239 147.711 209.575 146.999 206.961C146.59 205.458 146.991 204.967 147.691 203.713Z"/>
	<defs>
		<linearGradient id="gradient_2" gradientUnits="userSpaceOnUse" x1="123.10036" y1="242.78957" x2="75.078773" y2="12.25551">
			<stop offset="0" stop-color="#BDC4C5"/>
			<stop offset="1" stop-color="white"/>
		</linearGradient>
	</defs>
	<path fill="url(#gradient_2)" d="M23.4311 228C21.393 226.647 19.3312 225.186 17.4717 223.597C8.63364 216.047 3.43219 206.551 2.55126 194.963C1.86543 185.942 2.19411 176.704 2.15301 167.648L2.06747 117.555L2.05499 80.1301C2.05903 70.623 1.50559 60.5931 3.26843 51.2176C4.46465 44.8556 7.89367 38.7291 12.0836 33.8604C24.81 19.0722 39.6962 18.9384 57.8048 18.9965C69.6708 19.0345 81.8101 19.6356 93.6394 18.7645C94.72 19.7767 94.7371 20.6874 95.1012 22.1033C90.7157 24.0961 86.0452 27.3858 81.3291 28.2546C77.636 28.935 73.432 28.5738 69.6704 28.5526C47.7823 28.429 23.7656 23.9778 14.299 49.3392Q13.2504 52.2002 12.6334 55.1842Q12.0164 58.1682 11.8444 61.2104C11.299 69.5113 11.7684 78.0649 11.7499 86.3902L11.6285 135.276L11.5097 171.862C11.4869 178.622 11.1645 185.544 11.6866 192.28Q11.81 193.984 12.0819 195.671Q12.3538 197.357 12.7721 199.013Q13.1904 200.67 13.7518 202.283Q14.3133 203.897 15.0137 205.455C18.6074 213.271 26.2231 219.762 34.2293 222.711C36.8907 223.691 39.4559 224.217 42.281 224.393C50.6617 224.913 59.2187 224.568 67.6227 224.568L113.356 224.56L154.94 224.555C163.073 224.555 171.369 224.881 179.474 224.272C182.886 224.016 185.867 223.283 188.972 221.844C197.047 218.102 203.728 211.245 206.806 202.845C210.329 193.228 209.03 181.258 208.989 171.164C212.493 169.288 214.485 165.28 217.727 163.019L218.495 164.185C218.719 184.781 221.841 205.105 206.098 221.214C203.543 223.828 200.713 225.918 197.719 228L23.4311 228Z"/>
	<path fill="#FDCD02" d="M55.5108 89.8654L56.958 89.4727C59.208 101.163 61.8262 112.714 72.333 119.801C75.2072 121.74 78.6445 123.425 81.9895 124.358L81.7033 129.049C88.6581 130.429 95.3445 131.396 102.461 131.56L103.88 131.417C101.733 145.257 101.463 157.706 104.934 171.388C110.456 163.023 114.532 153.806 118.858 144.789C119.173 152.659 120.34 159.961 122.613 167.498C123.391 170.077 124.656 172.708 125.251 175.297L124.958 175.918L123.902 173.769C123.502 175.42 124.144 177.505 124.305 179.199C125.158 188.129 126.572 195.002 131.33 202.773C132.954 205.425 137.396 210.776 136.984 213.714C135.938 214.446 134.918 214.638 133.692 214.879L125.619 215.001C123.222 210.038 121.601 204.598 119.955 199.351C119.296 204.568 118.984 209.83 118.164 215.026C111.644 215.026 105.097 215.152 98.5798 214.996L100.644 213.712L99.2701 211.627C97.5468 205.393 95.2242 199.313 93.4771 193.059C92.8664 193.03 91.2899 192.296 90.4911 192.074Q90.4265 190.812 90.3279 189.552C90.1478 187.375 89.9145 186.354 88.259 184.949C89.0522 182.419 90.5185 179.804 91.6052 177.363L91.7648 175.506L91.2047 173.84C89.135 174.429 87.7469 177.466 86.2275 179.006C86.3191 174.815 87.6701 170.31 88.2508 166.108L88.021 165.905L86.7774 167.113L85.6876 166.827C79.308 171.833 72.4275 178.897 65.0457 182.32L64.4666 182.311C63.0689 180.111 62.7398 175.521 62.206 172.885C59.0406 161.612 59.7651 151.197 63.6704 140.311C65.3083 137.104 67.6702 134.392 70.0406 131.716C59.8693 134.947 49.5191 137.061 39.2046 139.689L39.5158 132.768C40.3072 119.268 42.4061 113.102 52.1818 103.636L54.32 103.437L56.3653 101.374C55.5236 97.8045 55.29 94.1096 54.4907 90.5193L55.5108 89.8654Z"/>
	<path fill="#2B9207" d="M91.6052 177.363C92.1173 182.607 92.8556 187.828 93.4771 193.059C92.8664 193.03 91.2899 192.296 90.4911 192.074Q90.4265 190.812 90.3279 189.552C90.1478 187.375 89.9145 186.354 88.259 184.949C89.0522 182.419 90.5185 179.804 91.6052 177.363Z"/>
	<path fill="#FDAD04" d="M58.2467 108.409C60.198 113.501 62.6591 116.839 65.914 121.114C64.5121 120.915 63.1062 120.714 61.7155 120.447C60.1841 120.152 58.6238 119.579 57.7276 118.225C56.009 115.626 57.6401 111.166 58.2467 108.409Z"/>
	<path fill="#176608" d="M85.6876 166.827Q90.6747 161.995 94.5989 156.267C93.4676 162.753 92.358 168.945 91.7648 175.506L91.2047 173.84C89.135 174.429 87.7469 177.466 86.2275 179.006C86.3191 174.815 87.6701 170.31 88.2508 166.108L88.021 165.905L86.7774 167.113L85.6876 166.827Z"/>
	<path fill="#FEFEFE" d="M52.1818 103.636L54.32 103.437C51.271 107.206 48.6462 110.918 46.5671 115.314C44.6957 119.27 41.9801 130.277 39.5158 132.768C40.3072 119.268 42.4061 113.102 52.1818 103.636Z"/>
	<path fill="#FEFEFE" d="M70.0406 131.716C71.8125 130.443 73.4574 129.099 75.0981 127.666C71.0058 134.82 67.1405 141.723 65.268 149.84C64.0427 155.151 63.3847 160.249 63.1071 165.69C63.0233 167.332 63.3383 171.705 62.4535 172.831L62.206 172.885C59.0406 161.612 59.7651 151.197 63.6704 140.311C65.3083 137.104 67.6702 134.392 70.0406 131.716Z"/>
	<path fill="#FDAD04" d="M65.0457 182.32C65.5397 181.027 66.1428 179.811 66.9122 178.658C70.1104 173.865 90.3384 149.659 94.8198 148.825C95.001 148.791 95.469 149.19 95.6416 149.311C96.1669 151.423 95.1106 154.187 94.5989 156.267Q90.6747 161.995 85.6876 166.827C79.308 171.833 72.4275 178.897 65.0457 182.32Z"/>
	<path fill="#2B9207" d="M100.644 213.712C103.046 209.788 106.668 206.344 109.314 202.509C112.945 197.245 114.841 191.679 117.54 185.991C117.997 190.464 119.103 194.936 119.955 199.351C119.296 204.568 118.984 209.83 118.164 215.026C111.644 215.026 105.097 215.152 98.5798 214.996L100.644 213.712Z"/>
	<path fill="#FB8202" d="M55.5108 89.8654L56.958 89.4727C59.208 101.163 61.8262 112.714 72.333 119.801C75.2072 121.74 78.6445 123.425 81.9895 124.358L81.7033 129.049C88.6581 130.429 95.3445 131.396 102.461 131.56C97.0023 137.394 86.5044 143.854 79.0765 146.726C79.3414 140.792 80.5713 135.135 81.3011 129.266C75.3885 127.039 70.8665 125.164 65.914 121.114C62.6591 116.839 60.198 113.501 58.2467 108.409L56.3653 101.374C55.5236 97.8045 55.29 94.1096 54.4907 90.5193L55.5108 89.8654Z"/>
	<path fill="#000206" d="M731.599 60.5426C734.739 55.4364 730.042 42.8857 735.566 34.9522C739.235 29.6835 748.856 26.783 754.897 25.7302C761.132 24.6434 768.282 24.7716 773.62 28.5654C777.423 31.2676 779.636 35.1686 780.395 39.7343C780.932 42.9651 781.504 59.5591 779.896 61.8158C790.33 59.5328 801.174 60.0211 811.058 64.3416C818.23 67.4771 823.016 71.6711 828.236 77.2984C829.423 78.5783 831.012 79.7596 831.658 81.4149C834.53 79.3208 837.083 75.985 839.663 73.4864C846.794 66.5813 856.701 62.4835 866.421 60.939C882.148 58.4401 897.186 61.7184 910.063 71.058C910.664 70.6549 911.612 67.7695 912.034 66.9768C913.28 64.6358 915.036 62.7001 917.652 61.9402C922.428 60.5528 943.596 60.8774 948.972 61.7006Q950.734 61.9715 952.423 62.5442Q954.111 63.117 955.675 63.9741C959.046 65.8051 962.874 69.2622 964.009 73.0601C966.514 71.31 968.381 67.3108 970.854 65.1474C976.633 60.0909 986.06 61.4269 993.141 61.4158C997.003 61.4097 1000.96 61.1725 1004.81 61.4339C1008.78 61.7033 1012.96 63.0258 1015.62 66.1385C1017.41 68.2283 1017.98 70.8426 1017.74 73.5398C1017.52 76.0898 1016.65 78.5101 1015.41 80.7383C1012.81 85.4247 997.049 105.932 993.406 108.993Q993.513 109.065 993.617 109.14C997.499 111.975 1015.97 135.799 1019.02 140.806C1020.22 142.768 1021.06 144.857 1021.43 147.129C1021.85 149.673 1021.76 152.458 1020.2 154.618C1017.95 157.718 1013.61 159.143 1009.96 159.69C1004.69 160.482 985.44 160.617 980.33 159.701C977.856 159.257 975.826 158.462 973.85 156.891C970.056 153.873 968.022 148.728 964.145 145.917L964.042 145.844C963.94 146.234 963.809 146.626 963.639 146.992C962.009 150.505 956.233 157.379 952.441 158.808C946.804 160.932 923.38 160.538 916.976 159.525C915.113 159.231 913.429 158.529 911.726 157.75C911.658 157.627 911.698 157.682 911.585 157.565C909.843 155.763 908.753 153.511 907.051 151.678C903.709 155.715 895.363 158.57 890.32 159.765C874.201 163.582 854.922 160.913 842.264 149.557C838.59 146.26 835.539 141.143 831.393 138.613L831.256 138.53C831.249 138.685 831.235 138.837 831.199 138.989C830.345 142.61 818.807 151.44 815.64 153.39C807.291 158.531 796.571 162.263 786.69 160.454C782.762 159.735 779.005 158.271 775.117 157.351Q774.148 158.039 773.091 158.58C768.591 160.836 745.843 160.542 741.141 158.924C737.559 157.691 734.675 155.108 733.304 151.55C731.331 146.429 732.236 123.13 732.52 116.067C732.642 113.055 733.7 109.702 732.297 106.901C732.274 106.855 732.25 106.81 732.227 106.765C729.56 108.205 725.948 107.17 723.6 109.422C715.678 117.016 726.399 146.162 717.567 155.787C714.679 158.934 710.167 159.871 706.067 160.021C701.329 160.195 689.203 160.615 685.02 159.858C683.045 159.501 680.855 158.467 679.149 157.414C677.134 156.171 675.872 154.415 674.174 152.836C669.005 156.441 661.818 158.763 655.678 159.934C644.198 162.122 630.197 161.58 619.547 156.33C615.645 154.407 611.896 151.524 608.293 149.079C607.819 150.579 607.046 152.16 606.093 153.408C602.7 157.85 597.286 159.396 591.99 160.072C578.884 161.747 568.265 159.655 557.755 151.51C557.298 152.837 556.281 154.357 555.317 155.368C551.248 159.635 541.242 160.565 535.676 160.726C522.86 161.095 514.471 157.123 505.339 148.499C505.315 149.341 505.23 150.174 504.966 150.979C503.908 154.209 502.079 156.549 499.009 158.047C491.76 161.585 472.535 160.554 464.947 157.996Q463.986 158.342 463.013 158.65C448.774 163.138 439.186 159.884 426.46 153.263C426.485 154.257 425.393 155.494 424.75 156.192C422.02 159.157 417.594 159.82 413.747 159.995C406.838 160.31 390.233 161.314 385.274 156.725C383.33 154.926 382.2 152.531 381.642 149.97C380.518 144.807 381.045 138.949 381.091 133.692C381.167 125.063 381.354 116.438 381.014 107.812L380.577 107.48L380.685 107.099C375.826 109.288 382.752 147.334 375.862 155.494C373.317 158.508 369.483 159.679 365.67 159.986C362.551 160.237 359.386 159.937 356.256 159.975C347.578 160.081 340.929 161.016 333.827 154.994C328.994 158.021 322.343 159.574 316.785 160.553C299.217 163.648 281.813 161.406 266.978 151.007Q265.656 150.092 264.38 149.113Q263.105 148.134 261.88 147.092Q260.654 146.051 259.482 144.95Q258.31 143.849 257.194 142.692Q256.078 141.534 255.02 140.323Q253.963 139.112 252.967 137.849Q251.971 136.587 251.039 135.277Q250.107 133.967 249.24 132.612Q248.374 131.257 247.576 129.861Q246.778 128.465 246.051 127.031Q245.323 125.597 244.667 124.129Q244.011 122.661 243.429 121.162Q242.847 119.663 242.34 118.138Q241.833 116.612 241.402 115.063Q240.971 113.513 240.617 111.945Q240.263 110.376 239.988 108.792C236.953 91.5138 240.341 73.6616 250.456 59.2564C259.789 45.9666 274.463 35.7044 290.612 32.9398C302.013 30.988 321.627 31.9178 331.225 38.7024C333.12 37.3481 334.594 34.4978 336.282 32.7835C340.303 28.6995 347.389 27.6113 352.655 25.749C358.617 24.9501 366.454 24.596 371.821 27.7626C375.066 29.6766 377.18 32.6952 378.109 36.3243C379.114 40.2511 379.918 58.573 378.005 61.7672C385.389 60.2541 392.736 59.739 400.119 61.6038C406.529 63.2228 415.706 68.1115 419.164 73.8886Q419.835 73.3176 420.523 72.7682C433.233 62.6238 451.221 58.8832 467.148 60.7229C473.658 61.4747 484.874 63.9019 489.194 69.3474C491.499 66.8614 494.224 64.687 496.432 62.1949C497.521 60.8214 497.669 57.9383 498.212 56.1763C499.617 51.6088 501.492 48.559 505.869 46.2811C513.003 42.5691 523.199 40.2464 531.051 42.7593C536.054 44.3602 541.178 47.3873 543.622 52.2044C545.177 55.2692 546.044 60.3254 544.961 63.6449C548.932 59.3991 546.7 53.0134 551.36 48.8589C556.473 44.2997 567.975 41.3138 574.718 41.7177C580.172 42.0443 585.993 44.5574 589.628 48.6803C592.73 52.1996 593.924 56.7186 593.617 61.3315C596.689 61.8221 600.259 63.8334 602.485 65.9655C604.505 67.9007 605.381 70.2088 605.443 72.9775C614.844 65.4544 624.873 60.7378 637.066 60.2715C650.901 59.7424 662.768 63.8041 672.962 73.2425C673.08 73.1355 673.136 73.061 673.177 72.9052C673.926 70.0697 675.014 66.7917 677.146 64.6845C681.911 59.9767 694.246 61.2089 700.439 61.2949C704.253 61.3479 709.958 61.2058 712.805 64.1342C719.228 61.5866 724.576 59.5194 731.599 60.5426ZM759.638 36.2499C753.691 36.996 748.599 38.9583 743.156 41.3848C744.501 45.4486 743.479 66.583 743.481 72.6732C743.489 96.9105 743.892 121.204 743.418 145.434C743.398 146.46 743.365 147.587 742.883 148.514C742.799 148.675 742.704 148.822 742.603 148.973C751.298 149.048 760.038 149.303 768.727 148.954C769.865 146.462 770.194 141.087 769.224 138.509Q768.964 137.825 768.551 137.221C771.211 138.762 773.35 141.059 775.631 143.096C782.821 149.515 790.457 151.142 799.728 148.655C801.37 148.215 805.762 147.051 806.639 145.619C814.005 143.256 821.263 135.609 824.738 128.867C829.657 119.321 830.696 107.53 827.405 97.2879C824.407 87.9621 817.435 79.6243 808.689 75.167C801.292 71.397 791.41 69.8467 783.396 72.4513C777.303 74.4316 772.889 79.7925 769.436 81.1326C770.904 77.0136 770.476 43.6519 769.039 39.2195C767.698 37.451 766.155 36.6302 763.954 36.3382C762.542 36.1508 761.058 36.2109 759.638 36.2499ZM870.773 71.2498C858.662 73.3748 848.649 77.6299 841.377 87.9942C835.549 96.2992 833.422 106.935 835.184 116.89Q835.369 117.888 835.603 118.875Q835.837 119.863 836.12 120.837Q836.402 121.812 836.732 122.772Q837.062 123.732 837.438 124.674Q837.815 125.617 838.237 126.539Q838.659 127.462 839.126 128.363Q839.594 129.264 840.104 130.141Q840.615 131.018 841.168 131.869Q841.722 132.719 842.316 133.542Q842.91 134.364 843.544 135.157Q844.178 135.949 844.85 136.71Q845.523 137.47 846.231 138.196Q846.94 138.923 847.683 139.613Q848.427 140.304 849.203 140.958Q849.98 141.611 850.788 142.225Q851.595 142.84 852.432 143.414C860.245 148.866 870.626 151.67 880.121 150.178C890.726 149.549 900.477 145.055 907.557 137.074C914.687 129.038 918.712 118.212 918.064 107.449C917.458 97.3737 912.316 87.636 904.795 80.9779C895.996 73.1882 884.297 70.3373 872.756 71.0785Q871.763 71.1408 870.773 71.2498ZM297.27 80.2478C291.871 83.806 288.703 86.0328 287.303 92.8325Q287.201 93.3207 287.123 93.8134Q287.045 94.3061 286.992 94.802Q286.939 95.298 286.911 95.7959Q286.882 96.2939 286.879 96.7927Q286.875 97.2914 286.896 97.7898Q286.917 98.2881 286.963 98.7848Q287.009 99.2814 287.079 99.7752Q287.15 100.269 287.245 100.759Q287.339 101.248 287.459 101.733Q287.578 102.217 287.721 102.695Q287.864 103.173 288.03 103.643Q288.197 104.113 288.387 104.574Q288.576 105.035 288.789 105.487Q289.001 105.938 289.236 106.378Q289.471 106.818 289.727 107.246Q289.983 107.674 290.26 108.089C292.621 111.668 296.015 114.278 300.265 115.126C308.855 116.839 313.239 109.64 320.874 109.41C324.13 109.432 327.954 109.937 330.367 112.388C330.461 112.483 330.547 112.579 330.635 112.681C332.186 109.908 331.852 86.4871 331.036 82.6101C328.415 84.891 325.9 86.666 322.239 86.4215C312.636 85.7803 310.118 77.7912 297.27 80.2478ZM928.107 101.25C929.433 105.772 929.449 112.755 927.936 117.242C929.018 116.446 930.411 115.461 930.745 114.064C930.77 113.961 930.766 113.854 930.77 113.749C931.898 112.831 934.372 110.599 934.492 109.118C934.504 108.97 934.5 108.959 934.492 108.827C934.091 106.851 930.791 102.779 929.131 101.633C928.814 101.414 928.483 101.313 928.107 101.25ZM544.821 105.745C546.321 108.913 543.771 116.629 545.969 118.229C547.654 116.333 547.556 112.059 547.409 109.626C547.334 108.378 547.288 106.796 546.595 105.738L544.821 105.745Z"/>
	<path fill="#FEFEFE" d="M726.705 70.7498C730.984 70.461 736.064 72.7047 739.949 74.387C739.992 75.3022 740.008 76.2481 739.868 77.1554C739.103 82.0979 732.526 93.7547 728.514 96.7405C726.612 96.8529 724.615 97.0046 722.774 97.5103C709.982 101.024 710.259 113.118 710.369 123.767C710.427 129.273 710.594 134.794 710.523 140.299C710.488 143.049 710.722 146.522 709.316 148.977C701.392 149.468 693.364 149.093 685.428 148.957L684.622 148.782C682.317 146.185 686.078 77.2856 683.132 72.455C690.413 72.2568 699.844 71.0151 706.837 72.7237C707.586 73.5016 708.211 74.5035 708.636 75.4964C709.603 77.753 709.933 80.4106 708.984 82.7203C717.035 76.1983 714.599 74.4417 726.705 70.7498Z"/>
	<path fill="#FEFEFE" d="M570.915 52.7497C573.677 52.4342 576.454 52.3595 578.907 53.8806C581.582 55.5386 582.788 58.0833 583.455 61.0589C584.03 63.622 583.897 70.369 582.489 72.5772Q588.322 72.4852 594.156 72.5592C594.501 72.9132 594.722 73.2955 594.849 73.7767C595.836 77.5077 596.21 91.6548 594.271 94.8912C590.352 95.209 586.313 94.9977 582.379 94.9738C584.992 99.2033 581.986 117.549 583.447 124.056C584.807 130.118 590.277 126.974 594.239 129.549C596.066 130.736 597.05 132.732 597.491 134.817C598.078 137.592 598.644 145.235 597.087 147.654C594 148.676 590.829 148.981 587.616 149.363C583.368 149.79 579.326 149.692 575.149 148.71C553.751 143.675 557.958 119.361 558.04 102.921C558.053 100.487 558.44 97.079 557.137 94.9638L548.444 94.7978C548.616 94.4834 548.774 94.1422 548.891 93.802C549.797 91.1695 549.464 75.0824 548.178 72.5154L556.698 72.4799C556.947 72.1294 557.183 71.7272 557.314 71.3169C558.239 68.4329 558.646 59.4489 557.269 56.8539C561.691 56.132 566.576 54.064 570.915 52.7497Z"/>
	<path fill="#FEFEFE" d="M521.136 52.7495C522.827 52.5462 524.447 52.4258 526.141 52.6854C528.852 53.1008 531.597 54.3051 533.248 56.5748C533.74 57.1272 533.999 57.8939 534.155 58.6092C534.877 61.9237 535.352 69.769 533.559 72.6081L545.241 72.5819C545.337 72.7403 545.338 72.7323 545.41 72.8782C545.439 72.9371 545.466 72.997 545.495 73.0559C545.706 73.4831 545.91 73.9243 546.013 74.392C546.818 78.0176 547.141 91.8637 545.3 94.8481C541.361 95.2099 537.368 95.0824 533.414 95.0644C533.491 95.1909 533.502 95.2012 533.559 95.3201C533.584 95.371 533.607 95.4228 533.631 95.474C536.273 101.076 533.079 116.811 534.597 124.123C536.033 131.044 540.624 126.534 544.733 129.281C546.64 130.557 547.515 132.817 547.91 134.991C548.428 137.836 549.153 145.357 547.572 147.664C544.69 149.057 540.525 149.189 537.386 149.49C532.668 150.184 527.1 149.507 522.637 147.845C504.715 141.17 508.677 117.77 508.748 102.724C508.758 100.54 509.199 97.024 508.27 95.0587C508.256 95.0283 508.24 94.9983 508.225 94.968L498.741 94.8554C498.823 94.7088 498.829 94.706 498.89 94.5702C498.915 94.5137 498.938 94.4563 498.963 94.3996C499.128 94.0215 499.28 93.635 499.373 93.2315C499.975 90.6081 500.063 74.7405 498.762 72.6191L507.624 72.4242C507.827 72.1134 508.013 71.7671 508.132 71.4151C508.924 69.0678 509.126 58.8665 508.026 56.5997C512.466 55.6495 516.809 54.1171 521.136 52.7495Z"/>
	<path fill="#FEFEFE" d="M919.682 72.2498C924.812 71.2969 942.738 72.4719 949.159 72.5066C949.188 72.5235 949.217 72.5396 949.246 72.5573C949.293 72.5867 949.339 72.6187 949.386 72.6479C949.657 72.8146 949.923 72.9774 950.185 73.158C952.701 74.891 963.452 88.5155 963.876 90.8427C966.087 89.5527 977.238 74.9588 977.945 72.5302L1007.47 72.4714C1007.5 72.6978 1007.52 72.8253 1007.47 73.0503C1007.07 74.7214 981.861 107.355 979.68 108.789C980.011 109.003 980.292 109.248 980.563 109.532C983.393 112.5 985.785 116.28 988.405 119.483C995.465 128.112 1004.02 137.566 1010.01 146.827C1010.46 147.528 1010.64 148.183 1010.63 149.021C1008.27 149.225 1005.84 149.204 1003.47 149.29Q991.887 149.488 980.313 148.986C980.309 148.936 980.306 148.885 980.299 148.835C980.051 147.085 965.947 128.767 963.917 127.262C963.918 127.427 963.906 127.585 963.877 127.747C963.406 130.34 949.987 147.652 947.635 149.145L916.715 149.13C916.844 149.056 916.969 148.979 917.092 148.896C920.044 146.919 947.664 111.193 948.157 108.816C948.158 108.777 948.161 108.737 948.16 108.697C948.106 106.226 923.058 75.7048 919.682 72.2498Z"/>
	<path fill="#FEFEFE" d="M634.455 71.2497C643.552 70.1431 653.251 72.1574 660.792 77.4448C668.687 82.9795 674.984 91.957 676.655 101.531C677.343 105.471 678.584 113.737 676.208 117.13C669.386 117.411 628.724 116.077 626.781 117.525C626.728 117.908 626.712 118.268 626.75 118.654C626.971 120.888 628.916 122.89 630.573 124.214C635.282 127.979 640.952 128.836 646.776 128.206C649.952 127.863 655.864 126.403 657.881 123.719C657.924 123.661 657.965 123.601 658.008 123.542C660.524 125.041 664.45 130.42 665.209 133.215C665.64 133.478 665.972 133.768 666.312 134.143C667.984 135.987 671.123 139.375 670.999 141.979C668.747 145.192 657.275 148.422 653.474 149.192C642.005 151.517 629.534 150.195 619.657 143.632C610.688 137.672 604.158 128.674 602.049 118.057C599.988 107.68 601.897 96.2498 607.834 87.4335C614.319 77.8023 623.325 73.4219 634.455 71.2497Z"/>
	<path fill="#000206" d="M636.311 93.2497C638 92.9823 639.914 92.8291 641.605 93.0965C644.842 93.6083 648.462 95.6769 650.361 98.3691C651.501 99.9843 652.468 101.951 652.127 103.962C648.755 104.262 645.263 104.097 641.875 104.099C636.759 103.901 631.595 104.075 626.474 104.11C630.836 98.5304 628.322 96.9044 636.311 93.2497Z"/>
	<path fill="#FEFEFE" d="M456.196 71.2497C465 70.732 474.632 72.0329 482.041 77.1377C488.551 81.623 492.74 88.6019 494.14 96.3333C495.78 105.393 494.771 115.336 494.837 124.539C494.89 131.753 495.619 139.365 494.856 146.535C494.753 147.499 494.467 148.295 493.915 149.091Q481.823 149.143 469.734 148.859C471.176 146.669 470.387 142.677 470.174 140.183C470.183 140.691 469.576 141.559 469.272 141.976C466.165 146.24 459.935 148.42 454.901 149.237C444.228 150.97 438.368 147.8 429.999 141.75C429.725 138.604 423.999 133.883 424.056 126.642C424.102 120.679 426.011 115.303 430.327 111.076C440.48 101.133 456.444 101.844 469.536 102.006C469.587 101.846 469.632 101.685 469.658 101.517C469.912 99.8652 469.033 98.3009 468.082 97.042C468.045 96.91 467.994 96.7926 467.93 96.6712C466.968 94.8338 464.782 93.4296 462.841 92.8386C455.117 90.4875 445.594 94.4224 438.867 98.0298C438.868 97.9158 438.876 97.7782 438.854 97.6623C438.24 94.4162 429.104 83.8739 426.267 81.5966C428.644 80.6869 431.04 78.8812 433.331 77.6888C440.776 73.8149 447.844 71.8942 456.196 71.2497Z"/>
	<path fill="#000206" d="M465.3 115.25C466.211 115.143 467.517 114.851 468.397 115.105C469.039 115.291 469.258 115.663 469.568 116.243C470.68 118.328 469.48 122.722 468.785 124.874C468.49 126.325 466.727 127.701 465.592 128.517C461.906 131.171 457.022 132.092 452.612 131.392C450.668 129.577 449.209 128.782 448.644 125.96C448.345 124.471 448.523 123.046 449.389 121.775C452.437 117.297 460.425 116.183 465.3 115.25Z"/>
	<path fill="#FEFEFE" d="M294.738 43.2487C301.855 42.8207 309 42.5479 315.964 44.3418C323.611 46.3115 329.32 50.1234 335.745 54.499C337.021 55.3685 339.327 56.5076 340.111 57.8319C338.491 62.0277 326.447 73.5969 322.13 76.0084C322.049 75.816 321.958 75.6624 321.814 75.5082C317.481 70.8821 308.163 68.3935 302.003 68.5466C295.232 68.7149 288.732 71.3882 284.043 76.3189C278.437 82.2156 275.79 90.106 276.008 98.1716Q276.029 98.9162 276.087 99.6588Q276.145 100.401 276.24 101.14Q276.335 101.879 276.466 102.612Q276.597 103.345 276.765 104.071Q276.932 104.797 277.135 105.514Q277.338 106.23 277.577 106.936Q277.815 107.642 278.088 108.335Q278.361 109.028 278.668 109.707Q278.975 110.385 279.315 111.048Q279.655 111.711 280.028 112.356Q280.4 113.001 280.804 113.627Q281.208 114.252 281.643 114.857Q282.077 115.462 282.541 116.045Q283.005 116.628 283.497 117.187Q283.989 117.746 284.509 118.28Q285.028 118.814 285.573 119.322C290.23 123.71 296.564 126.592 303.002 126.381C308.719 126.193 317.723 123.935 321.746 119.628C324.654 120.922 327.554 124.337 329.247 126.993C331.908 129.295 337.204 134.845 338.121 138.228C338.053 138.465 337.958 138.66 337.827 138.869C334.668 143.916 323.302 147.975 317.798 149.224C302.921 152.599 287.964 151.323 274.904 143.079Q273.77 142.347 272.674 141.561Q271.577 140.775 270.52 139.936Q269.463 139.096 268.449 138.207Q267.435 137.317 266.465 136.378Q265.495 135.44 264.573 134.455Q263.651 133.47 262.778 132.441Q261.904 131.412 261.083 130.342Q260.261 129.271 259.493 128.162Q258.725 127.053 258.012 125.907Q257.299 124.761 256.643 123.582Q255.987 122.403 255.39 121.193Q254.792 119.983 254.255 118.745Q253.718 117.507 253.242 116.245Q252.766 114.982 252.352 113.697Q251.938 112.413 251.588 111.11Q251.238 109.807 250.952 108.488Q250.66 107.195 250.431 105.89Q250.203 104.585 250.039 103.27Q249.875 101.955 249.775 100.633Q249.675 99.3118 249.64 97.987Q249.606 96.6622 249.636 95.3374Q249.666 94.0125 249.761 92.6907Q249.856 91.3689 250.016 90.0534Q250.175 88.7378 250.399 87.4317Q250.623 86.1255 250.911 84.8319Q251.198 83.5383 251.549 82.2603Q251.9 80.9823 252.312 79.723Q252.725 78.4638 253.199 77.2262Q253.673 75.9887 254.207 74.7758Q254.741 73.563 255.334 72.3778Q255.927 71.1926 256.577 70.0378Q257.227 68.883 257.933 67.7615C266.666 54.0575 279.179 46.7124 294.738 43.2487Z"/>
	<path fill="#FEFEFE" d="M870.773 71.2498Q871.763 71.1408 872.756 71.0785C884.297 70.3373 895.996 73.1882 904.795 80.9779C912.316 87.636 917.458 97.3737 918.064 107.449C918.712 118.212 914.687 129.038 907.557 137.074C900.477 145.055 890.726 149.549 880.121 150.178C870.626 151.67 860.245 148.866 852.432 143.414Q851.595 142.84 850.788 142.225Q849.98 141.611 849.203 140.958Q848.427 140.304 847.683 139.613Q846.94 138.923 846.231 138.196Q845.523 137.47 844.85 136.71Q844.178 135.949 843.544 135.157Q842.91 134.364 842.316 133.542Q841.722 132.719 841.168 131.869Q840.615 131.018 840.104 130.141Q839.594 129.264 839.126 128.363Q838.659 127.462 838.237 126.539Q837.815 125.617 837.438 124.674Q837.062 123.732 836.732 122.772Q836.402 121.812 836.12 120.837Q835.837 119.863 835.603 118.875Q835.369 117.888 835.184 116.89C833.422 106.935 835.549 96.2992 841.377 87.9942C848.649 77.6299 858.662 73.3748 870.773 71.2498ZM873.636 94.2498C868.8 95.5171 865.286 97.557 862.697 102.043C860.411 106.003 859.646 110.751 860.849 115.186C861.884 119.001 864.402 122.888 867.884 124.889C869.888 126.04 874.111 127.486 876.424 126.757C876.49 126.737 876.554 126.712 876.62 126.689C881.369 126.171 885.609 124.326 888.686 120.545C891.4 117.21 892.551 112.839 892.076 108.59C891.587 104.212 889.432 100.002 885.933 97.2761C882.265 94.4183 878.161 93.7521 873.636 94.2498Z"/>
	<path fill="#000206" d="M873.636 94.2498C878.161 93.7521 882.265 94.4183 885.933 97.2761C889.432 100.002 891.587 104.212 892.076 108.59C892.551 112.839 891.4 117.21 888.686 120.545C885.609 124.326 881.369 126.171 876.62 126.689C876.554 126.712 876.49 126.737 876.424 126.757C874.111 127.486 869.888 126.04 867.884 124.889C864.402 122.888 861.884 119.001 860.849 115.186C859.646 110.751 860.411 106.003 862.697 102.043C865.286 97.557 868.8 95.5171 873.636 94.2498ZM874.473 105.25C872.739 106.798 871.713 108.106 871.573 110.499C871.495 111.844 871.672 113.76 872.627 114.794C873.487 115.725 874.371 115.665 875.527 115.659C876.168 115.656 876.567 115.627 877.1 115.236C878.692 114.703 879.918 114.12 880.717 112.562Q880.939 112.121 881.072 111.645Q881.204 111.169 881.243 110.677Q881.281 110.184 881.223 109.694Q881.166 109.203 881.015 108.733C880.547 107.319 879.411 106.033 878.078 105.367C876.984 104.82 875.638 105.089 874.473 105.25Z"/>
	<path fill="#FEFEFE" d="M354.596 36.7493C357.91 36.2722 364.237 35.5095 367.209 37.192C367.345 37.5192 367.465 37.8578 367.555 38.2006C368.747 42.7618 369.273 77.7131 367.167 81.3761C373.589 77.8021 377.698 72.8523 385.393 71.5469C392.246 70.3844 400.188 72.008 405.879 76.0497C412.249 80.5741 415.861 88.1159 417.129 95.6681C418.655 104.753 417.765 114.344 417.836 123.514C417.893 130.982 418.623 138.863 417.765 146.265C417.641 147.335 417.328 148.221 416.703 149.1C408.188 149.302 399.645 149.082 391.129 148.999C391.412 148.557 391.657 148.068 391.763 147.55C392.463 144.154 392.336 120.423 390.932 118.247Q391.041 118.085 391.139 117.916C392.811 115.012 391.91 106.259 391.057 102.976C390.303 100.069 388.672 97.1509 385.997 95.6175C383.844 94.3836 381.299 94.2766 378.944 94.9363C366.662 98.3772 367.989 113.208 368.091 123.089Q368.218 131.763 368.219 140.437C368.203 143.084 368.555 146.76 367.197 149.099C367.175 149.138 367.151 149.175 367.128 149.213C358.634 149.435 350.061 149.075 341.561 148.964C341.898 148.3 342.107 147.669 342.123 146.923C342.664 122.777 342.08 98.4591 342.108 74.2952C342.116 67.6119 343.04 45.8319 341.831 41.081C346.038 40.087 350.368 37.9693 354.596 36.7493Z"/>
	<path fill="#FEFEFE" d="M759.638 36.2499C761.058 36.2109 762.542 36.1508 763.954 36.3382C766.155 36.6302 767.698 37.451 769.039 39.2195C770.476 43.6519 770.904 77.0136 769.436 81.1326C772.889 79.7925 777.303 74.4316 783.396 72.4513C791.41 69.8467 801.292 71.397 808.689 75.167C817.435 79.6243 824.407 87.9621 827.405 97.2879C830.696 107.53 829.657 119.321 824.738 128.867C821.263 135.609 814.005 143.256 806.639 145.619C805.762 147.051 801.37 148.215 799.728 148.655C790.457 151.142 782.821 149.515 775.631 143.096C773.35 141.059 771.211 138.762 768.551 137.221Q768.964 137.825 769.224 138.509C770.194 141.087 769.865 146.462 768.727 148.954C760.038 149.303 751.298 149.048 742.603 148.973C742.704 148.822 742.799 148.675 742.883 148.514C743.365 147.587 743.398 146.46 743.418 145.434C743.892 121.204 743.489 96.9105 743.481 72.6732C743.479 66.583 744.501 45.4486 743.156 41.3848C748.599 38.9583 753.691 36.996 759.638 36.2499ZM782.863 94.2498C778.09 95.6779 774.59 97.7145 772.121 102.278Q771.708 103.032 771.372 103.824Q771.036 104.616 770.781 105.437Q770.525 106.258 770.352 107.1Q770.178 107.942 770.089 108.798Q770 109.653 769.996 110.513Q769.992 111.373 770.073 112.229Q770.155 113.085 770.32 113.929Q770.486 114.773 770.734 115.596C771.931 119.492 774.563 122.898 778.203 124.792C781.165 126.332 785.321 126.956 788.608 126.278C792.841 125.618 796.742 123.453 799.299 119.964Q799.773 119.313 800.181 118.618Q800.589 117.923 800.927 117.192Q801.264 116.46 801.528 115.699Q801.792 114.938 801.98 114.154Q802.168 113.371 802.277 112.572Q802.387 111.774 802.418 110.969Q802.448 110.164 802.4 109.36Q802.351 108.556 802.223 107.76C801.509 103.488 799.153 99.3303 795.566 96.8321C791.623 94.086 787.476 93.7745 782.863 94.2498Z"/>
	<path fill="#000206" d="M782.863 94.2498C787.476 93.7745 791.623 94.086 795.566 96.8321C799.153 99.3303 801.509 103.488 802.223 107.76Q802.351 108.556 802.4 109.36Q802.448 110.164 802.418 110.969Q802.387 111.774 802.278 112.572Q802.168 113.371 801.98 114.154Q801.792 114.938 801.528 115.699Q801.264 116.46 800.927 117.192Q800.589 117.923 800.181 118.618Q799.773 119.313 799.299 119.964C796.742 123.453 792.841 125.618 788.608 126.278C785.321 126.956 781.165 126.332 778.203 124.792C774.563 122.898 771.931 119.492 770.734 115.596Q770.486 114.773 770.32 113.929Q770.155 113.085 770.073 112.229Q769.992 111.373 769.996 110.513Q770 109.653 770.089 108.798Q770.178 107.942 770.352 107.1Q770.525 106.258 770.781 105.437Q771.036 104.616 771.372 103.824Q771.708 103.032 772.121 102.278C774.59 97.7145 778.09 95.6779 782.863 94.2498ZM783.749 105.25C782.08 106.906 781.177 108.325 781.185 110.741C781.19 112.241 781.455 113.421 782.548 114.511C783.414 115.376 785.214 115.421 786.355 115.4C786.669 115.394 786.883 115.366 787.174 115.25C788.866 114.695 790.282 113.916 791.095 112.243C791.611 111.18 791.628 109.726 791.216 108.621C790.702 107.243 789.386 105.918 788.052 105.319C786.738 104.729 785.116 104.996 783.749 105.25Z"/>
</svg>
