<?xml version="1.0" encoding="utf-8" ?>
<svg xmlns="http://www.w3.org/2000/svg" xmlns:xlink="http://www.w3.org/1999/xlink" width="1000" height="1000">
	<path fill="#A83AE6" transform="scale(2 2)" d="M438.375 342.645C438.767 342.442 439.352 342.025 439.762 341.926C439.971 341.876 447.871 343.045 449.534 342.977C451.881 342.88 453.835 341.79 456.054 341.212C457.784 340.761 459.682 341.268 461.445 340.962C462.547 340.771 463.608 340.01 464.679 339.896C466.482 339.704 467.791 340.673 469.701 340.009C470.508 339.728 471.208 339.532 472.057 339.667C472.812 340.762 471.868 341.813 473.16 342.759C468.952 354.182 462.363 364.713 456.455 375.292C454.263 379.217 452.719 383.33 450.101 387.039L448.425 389.489C448.405 389.46 448.385 389.43 448.364 389.402C447.178 387.815 447.194 377.435 446.715 374.522C444.952 363.82 442.068 352.843 438.375 342.645Z"/>
	<defs>
		<linearGradient id="gradient_0" gradientUnits="userSpaceOnUse" x1="464.92233" y1="343.12027" x2="455.01523" y2="273.8959">
			<stop offset="0" stop-color="#AB22DE"/>
			<stop offset="1" stop-color="#AE53F1"/>
		</linearGradient>
	</defs>
	<path fill="url(#gradient_0)" transform="scale(2 2)" d="M458.13 276.865C458.186 276.962 458.245 277.056 458.298 277.155C458.544 277.615 458.362 277.444 458.783 277.75C459.164 278.027 459.215 277.923 459.653 277.866C460.212 277.34 460.659 276.866 461.406 276.618C463.681 277.337 465.665 274.459 467.464 273.393C468.42 272.827 470.144 272.521 471.24 272.394C471.306 272.386 471.373 272.38 471.44 272.374L471.483 271.681C472.532 271.681 474.234 271.789 475.144 271.216C475.24 271.156 475.329 271.088 475.421 271.024C476.068 271.249 476.555 271.392 477.242 271.272C478.529 271.048 480.092 270.853 481.322 271.411C483.203 272.264 485.378 271.314 487.241 272.582C487.736 272.919 487.915 273.345 488.015 273.931C488.032 274.035 488.041 274.14 488.053 274.245C488.918 273.007 488.69 272.729 489.148 271.973L489.299 272.391C489.499 270.947 489.526 269.496 489.575 268.041C489.865 269.426 489.677 271.181 489.78 272.63C489.578 276.664 488.87 280.721 488.389 284.733C488.047 287.577 487.885 290.433 487.453 293.267Q486.436 299.644 485.029 305.946Q483.622 312.249 481.83 318.453Q480.038 324.657 477.869 330.739Q475.699 336.822 473.16 342.759C471.868 341.813 472.812 340.762 472.057 339.667C471.208 339.532 470.508 339.728 469.701 340.009C467.791 340.673 466.482 339.704 464.679 339.896C463.608 340.01 462.547 340.771 461.445 340.962C459.682 341.268 457.784 340.761 456.054 341.212C453.835 341.79 451.881 342.88 449.534 342.977C447.871 343.045 439.971 341.876 439.762 341.926C439.352 342.025 438.767 342.442 438.375 342.645C436.614 338.265 434.732 333.845 432.497 329.683C430.454 325.878 428.113 322.241 426.3 318.316C429.524 314.852 433.361 311.973 436.628 308.546C445.446 299.297 452.431 288.241 458.13 276.865Z"/>
	<path fill="#40BEFE" transform="scale(2 2)" d="M163.205 29.1C163.286 29.0568 163.365 29.0103 163.448 28.9703C165.358 28.0431 167.629 27.4516 169.641 26.7513C176.621 24.3214 183.586 22.2597 190.744 20.4447C193.49 19.7483 196.196 18.8928 198.957 18.2575C203.022 17.3225 207.137 16.7154 211.24 15.9949C217.259 14.9379 223.25 13.93 229.34 13.3474C233.795 12.9213 238.299 13.0766 242.769 12.9563C251.311 12.7262 259.86 12.5536 268.397 13.1902C273.874 13.5987 279.333 14.552 284.753 15.4166C299.298 17.737 313.375 20.9218 327.292 25.8119C324.561 26.545 320.928 23.3325 319.59 24.4292C319.904 25.2945 320.949 25.9474 321.729 26.3729C321.158 27.3601 320.008 28.0951 319.015 28.6247L318.793 29.0185C317.994 29.4101 317.38 29.5529 316.498 29.6506C315.977 30.066 315.876 30.3959 315.627 30.9781C315.495 31.2868 315.336 31.5107 315.156 31.7894C314.452 32.8749 314.655 34.2788 314.943 35.4748C315.444 37.5537 316.496 40.1046 315.297 42.1331C314.313 43.799 311.805 44.7012 309.995 45.125C305.434 46.1931 300.955 45.0053 296.402 44.6325C294.43 44.4709 292.436 44.5928 290.482 44.4105C288.99 44.2712 287.282 43.7095 285.803 44.0044C284.852 44.1942 278.265 45.999 278.007 45.9718C277.594 45.9282 277.071 45.6432 276.731 45.4202C275.085 44.3412 273.566 42.9896 271.447 43.3383C270.709 43.4598 270.178 43.8603 269.64 44.3547C268.303 45.5832 265.342 45.7461 263.591 45.7774C263.248 46.3109 263.152 46.6721 262.546 46.9188C261.839 46.4681 261.059 45.8511 260.241 45.666C260.268 45.7668 260.298 45.8668 260.322 45.9684C260.349 46.0861 260.369 46.2055 260.394 46.3237C260.434 46.5061 260.477 46.6875 260.519 46.8692C254.801 44.2477 251.2 41.3769 244.495 43.8733C240.864 45.2251 237.505 47.5554 234.291 49.6988C233.915 49.561 233.644 49.5092 233.252 49.4586C232.649 49.7424 232.191 49.9396 231.524 50.0417C230.853 49.6615 230.679 49.2843 230.36 48.6208C229.777 47.4076 229.276 46.9082 227.978 46.4414C224.994 45.3678 222.28 45.7366 219.223 45.6015C217.625 45.5309 216.04 45.2204 214.438 45.2008C206.069 45.0986 192.758 46.2655 185.241 42.7571C182.457 41.4579 180.375 38.2811 178.103 36.2683C176.137 34.5265 169.57 28.5046 167.154 28.3808C166.054 28.3245 164.666 29.0406 163.46 29.0927C163.375 29.0964 163.29 29.0976 163.205 29.1Z"/>
	<defs>
		<linearGradient id="gradient_1" gradientUnits="userSpaceOnUse" x1="370.74039" y1="274.68173" x2="379.40826" y2="26.053709">
			<stop offset="0" stop-color="#9457F3"/>
			<stop offset="1" stop-color="#33C7FF"/>
		</linearGradient>
	</defs>
	<path fill="url(#gradient_1)" transform="scale(2 2)" d="M260.519 46.8692C260.477 46.6875 260.434 46.5061 260.394 46.3237C260.369 46.2055 260.349 46.0861 260.322 45.9684C260.298 45.8668 260.268 45.7668 260.241 45.666C261.059 45.8511 261.839 46.4681 262.546 46.9188C263.152 46.6721 263.248 46.3109 263.591 45.7774C265.342 45.7461 268.303 45.5832 269.64 44.3547C270.178 43.8603 270.709 43.4598 271.447 43.3383C273.566 42.9896 275.085 44.3412 276.731 45.4202C277.071 45.6432 277.594 45.9282 278.007 45.9718C278.265 45.999 284.852 44.1942 285.803 44.0044C287.282 43.7095 288.99 44.2712 290.482 44.4105C292.436 44.5928 294.43 44.4709 296.402 44.6325C300.955 45.0053 305.434 46.1931 309.995 45.125C311.805 44.7012 314.313 43.799 315.297 42.1331C316.496 40.1046 315.444 37.5537 314.943 35.4748C314.655 34.2788 314.452 32.8749 315.156 31.7894C315.336 31.5107 315.495 31.2868 315.627 30.9781C315.876 30.3959 315.977 30.066 316.498 29.6506C317.38 29.5529 317.994 29.4101 318.793 29.0185L319.015 28.6247C320.008 28.0951 321.158 27.3601 321.729 26.3729C320.949 25.9474 319.904 25.2945 319.59 24.4292C320.928 23.3325 324.561 26.545 327.292 25.8119C333.422 27.6577 339.376 30.2979 345.262 32.8059C394.969 53.9857 438.409 94.7895 463.913 142.279C475.078 163.067 483.72 186.243 487.47 209.615C488.705 217.315 488.618 225.144 489.983 232.851C489.999 235.818 490.072 238.948 490.491 241.887C490.567 252.029 490.99 262.551 489.78 272.63C489.677 271.181 489.865 269.426 489.575 268.041C489.526 269.496 489.499 270.947 489.299 272.391L489.148 271.973C488.69 272.729 488.918 273.007 488.053 274.245C488.041 274.14 488.032 274.035 488.015 273.931C487.915 273.345 487.736 272.919 487.241 272.582C485.378 271.314 483.203 272.264 481.322 271.411C480.092 270.853 478.529 271.048 477.242 271.272C476.555 271.392 476.068 271.249 475.421 271.024C475.329 271.088 475.24 271.156 475.144 271.216C474.234 271.789 472.532 271.681 471.483 271.681L471.44 272.374C471.373 272.38 471.306 272.386 471.24 272.394C470.144 272.521 468.42 272.827 467.464 273.393C465.665 274.459 463.681 277.337 461.406 276.618C460.659 276.866 460.212 277.34 459.653 277.866C459.215 277.923 459.164 278.027 458.783 277.75C458.362 277.444 458.544 277.615 458.298 277.155C458.245 277.056 458.186 276.962 458.13 276.865C465.216 260.605 468.11 248.061 467.801 230.231C467.702 224.521 466.523 217.546 468.095 212.001C469.737 206.21 477.833 192.25 475.944 187.015C475.33 185.315 474.043 183.896 472.733 182.69C469.253 179.486 465.086 177.07 461.169 174.451C451.892 168.25 442.597 162.144 432.598 157.137C408.614 145.128 379.822 135.639 352.708 137.679C344.372 138.307 336.483 140.104 328.568 142.72Q328.358 140.657 327.991 138.616C322.841 108.63 302.945 81.1902 280.293 61.6889C274.018 56.2868 267.267 51.6375 260.519 46.8692Z"/>
	<path fill="#FDBBF6" transform="scale(2 2)" d="M415.508 116.793C416.788 116.697 417.895 116.678 419.098 117.185C420.534 117.791 421.779 118.919 422.36 120.383Q422.452 120.618 422.52 120.861Q422.588 121.103 422.631 121.352Q422.675 121.6 422.693 121.852Q422.712 122.103 422.705 122.355Q422.698 122.607 422.666 122.857Q422.634 123.108 422.577 123.353Q422.521 123.599 422.44 123.838Q422.359 124.077 422.254 124.306C421.518 125.907 420.177 126.902 418.561 127.487C417.563 127.689 416.45 127.739 415.46 127.484C414.055 127.122 412.825 126.076 412.17 124.791C411.407 123.298 411.222 121.522 411.831 119.943C412.522 118.148 413.816 117.506 415.508 116.793Z"/>
	<path fill="#E917A3" transform="scale(2 2)" d="M372.248 94.3303C373.231 94.2917 374.168 94.2841 375.114 94.5917C376.369 94.9993 377.412 95.8141 377.993 97.0107C379.023 99.1332 378.414 101.432 377.746 103.551C376.465 104.606 375.327 105.113 373.712 105.495C372.65 105.516 371.699 105.541 370.732 105.038C369.304 104.295 368.239 103.122 367.763 101.569C367.311 100.095 367.432 98.4921 368.179 97.1334C369.113 95.4348 370.449 94.8122 372.248 94.3303Z"/>
	<path fill="#FAF6FB" transform="scale(2 2)" d="M344.057 94.5805C345.229 94.5481 346.286 94.6893 347.344 95.2294C348.763 95.9541 349.776 97.1329 350.227 98.6689C350.704 100.298 350.441 102.104 349.606 103.572C348.523 105.477 347.075 106.174 345.033 106.702C343.582 106.701 342.429 106.384 341.219 105.561Q340.961 105.386 340.722 105.185Q340.483 104.984 340.265 104.76Q340.048 104.536 339.854 104.291Q339.661 104.046 339.493 103.783Q339.326 103.519 339.186 103.24Q339.046 102.961 338.935 102.669Q338.825 102.377 338.744 102.076Q338.663 101.774 338.614 101.466Q338.564 101.154 338.547 100.838Q338.53 100.522 338.544 100.206Q338.559 99.8899 338.606 99.5771Q338.654 99.2643 338.732 98.958Q338.811 98.6516 338.921 98.3549Q339.031 98.0582 339.17 97.7743Q339.309 97.4903 339.477 97.2221Q339.645 96.9539 339.839 96.7042C340.991 95.2334 342.258 94.8123 344.057 94.5805Z"/>
	<path fill="#FAF6FB" transform="scale(2 2)" d="M361.734 106.049C362.843 105.927 364.047 105.835 365.153 106.003C366.819 106.255 368.439 107.251 369.378 108.649Q369.533 108.881 369.663 109.128Q369.794 109.375 369.899 109.633Q370.003 109.892 370.082 110.16Q370.16 110.427 370.211 110.702Q370.262 110.976 370.285 111.254Q370.308 111.532 370.303 111.811Q370.298 112.09 370.265 112.368Q370.232 112.645 370.171 112.917C369.668 115.153 368.183 116.443 366.356 117.632C365.162 117.973 363.998 118.211 362.753 118.001Q362.473 117.954 362.2 117.879Q361.926 117.804 361.661 117.702Q361.397 117.599 361.144 117.471Q360.891 117.342 360.653 117.189Q360.414 117.035 360.193 116.858Q359.971 116.681 359.768 116.483Q359.565 116.284 359.384 116.066Q359.202 115.848 359.044 115.613C358.015 114.087 357.679 112.042 358.111 110.259C358.633 108.106 359.915 107.093 361.734 106.049Z"/>
	<path fill="#FDBBF6" transform="scale(2 2)" d="M376.817 106.522L393.042 106.711C398.572 106.754 404.695 106.022 410.022 107.686Q410.247 108.415 410.417 109.158C410.889 111.194 411.267 114.033 410.03 115.858C409.35 116.86 408.429 116.948 407.316 117.177C403.219 117.487 380.887 117.952 377.567 117.013C376.221 116.633 375.097 115.83 374.428 114.586C373.655 113.145 373.398 110.928 373.877 109.36C374.323 107.899 375.566 107.226 376.817 106.522Z"/>
	<path fill="#23084C" transform="scale(2 2)" d="M163.205 29.1C163.29 29.0976 163.375 29.0964 163.46 29.0927C164.666 29.0406 166.054 28.3245 167.154 28.3808C169.57 28.5046 176.137 34.5265 178.103 36.2683C180.375 38.2811 182.457 41.4579 185.241 42.7571C192.758 46.2655 206.069 45.0986 214.438 45.2008C216.04 45.2204 217.625 45.5309 219.223 45.6015C222.28 45.7366 224.994 45.3678 227.978 46.4414C229.276 46.9082 229.777 47.4076 230.36 48.6208C230.679 49.2843 230.853 49.6615 231.524 50.0417C232.191 49.9396 232.649 49.7424 233.252 49.4586C233.644 49.5092 233.915 49.561 234.291 49.6988C237.505 47.5554 240.864 45.2251 244.495 43.8733C251.2 41.3769 254.801 44.2477 260.519 46.8692C267.267 51.6375 274.018 56.2868 280.293 61.6889C302.945 81.1902 322.841 108.63 327.991 138.616Q328.358 140.657 328.568 142.72C336.483 140.104 344.372 138.307 352.708 137.679C379.822 135.639 408.614 145.128 432.598 157.137C442.597 162.144 451.892 168.25 461.169 174.451C465.086 177.07 469.253 179.486 472.733 182.69C474.043 183.896 475.33 185.315 475.944 187.015C477.833 192.25 469.737 206.21 468.095 212.001C466.523 217.546 467.702 224.521 467.801 230.231C468.11 248.061 465.216 260.605 458.13 276.865C452.431 288.241 445.446 299.297 436.628 308.546C433.361 311.973 429.524 314.852 426.3 318.316C428.113 322.241 430.454 325.878 432.497 329.683C434.732 333.845 436.614 338.265 438.375 342.645C442.068 352.843 444.952 363.82 446.715 374.522C447.194 377.435 447.178 387.815 448.364 389.402C448.385 389.43 448.405 389.46 448.425 389.489Q448.644 395.323 448.638 401.161C448.613 403.468 448.336 405.93 448.506 408.217C447.356 414.104 446.563 420.054 445.502 425.957C443.918 434.772 442.658 442.91 434.575 448.338C432.718 449.585 430.632 450.346 428.446 450.776C422.905 451.864 416.933 451.584 411.311 451.576Q401.188 451.615 391.069 451.338C390.016 451.305 385.815 450.66 385.512 451.646C385.492 451.713 385.496 451.785 385.488 451.854C383.636 453.978 380.708 455.518 378.352 457.041C373.804 459.982 369.284 462.903 364.466 465.391C360.905 467.23 357.189 468.754 353.596 470.528C344.403 475.066 335.07 479.462 325.226 482.441C311.091 487.535 298.604 490.078 283.877 492.479C278.125 493.416 272.526 494.313 266.689 494.681C259.66 495.125 252.433 494.932 245.387 494.859C237.356 494.776 229.336 494.599 221.35 493.656Q210.484 492.263 199.788 489.895Q189.092 487.526 178.654 484.202C174.455 483.176 170.122 481.295 166.108 479.684Q154.695 475.158 143.776 469.541Q132.858 463.924 122.539 457.27C119.767 455.509 116.254 453.735 114.083 451.258C110.327 451.101 106.511 451.391 102.751 451.479C94.1379 451.679 85.1639 451.973 76.5787 451.417C69.9991 450.99 65.5075 449.572 61.0916 444.533C59.3556 442.552 57.9795 440.457 56.9378 438.035C54.4105 432.157 53.6874 425.511 52.6559 419.245C52.1764 416.332 51.5555 413.418 51.3291 410.471C50.7806 403.337 50.7358 395.69 51.2304 388.549C47.7083 385.547 46.1774 380.985 43.9174 377.074C42.3516 374.365 40.5776 371.778 39.042 369.051C31.6806 355.978 24.4751 341.043 20.1664 326.692C19.0796 324.594 18.4936 321.541 17.8362 319.238C13.7174 304.808 10.7296 289.838 9.74083 274.852C8.36928 268.818 8.87404 261.976 8.8296 255.802C8.7317 242.202 9.41673 230.005 11.2212 216.539C11.7585 212.529 12.1595 208.465 12.9739 204.501C14.3446 197.828 16.3229 191.269 18.2665 184.745C20.1457 178.437 22.1172 172.063 24.5587 165.946C26.7055 160.568 29.2634 155.37 31.8142 150.175Q32.8336 148.103 33.8914 146.05Q34.9491 143.997 36.0449 141.965Q37.1407 139.932 38.2742 137.92Q39.4076 135.908 40.5783 133.918Q41.749 131.927 42.9566 129.959Q44.1641 127.991 45.4081 126.045Q46.6521 124.1 47.932 122.178Q49.212 120.255 50.5275 118.358Q51.843 116.46 53.1936 114.587Q54.5443 112.714 55.9295 110.866Q57.3148 109.018 58.7342 107.197Q60.1536 105.375 61.6066 103.581Q63.0597 101.786 64.5459 100.018Q66.0321 98.251 67.5509 96.5116Q69.0698 94.7721 70.6207 93.0613Q72.1717 91.3504 73.7542 89.6687Q75.3368 87.987 76.9503 86.335Q78.5639 84.6831 80.2079 83.0614Q81.852 81.4398 83.5259 79.849Q85.1998 78.2583 86.9031 76.6989Q88.6063 75.1396 90.3383 73.6123Q92.0703 72.0849 93.8304 70.5901Q95.5905 69.0952 97.3781 67.6334Q99.1657 66.1716 100.98 64.7432Q102.795 63.3149 104.636 61.9207Q106.476 60.5264 108.343 59.1666Q110.209 57.8068 112.101 56.482Q113.992 55.1572 115.908 53.8678Q117.824 52.5785 119.763 51.325Q121.702 50.0715 123.665 48.8543Q125.627 47.6372 127.612 46.4567Q129.597 45.2763 131.603 44.133C141.822 38.2966 152.424 33.7479 163.205 29.1Z"/>
	<path fill="#FDBBF6" transform="scale(2 2)" d="M51.0205 212.632C51.5453 214.632 50.8426 218.63 51.4175 219.685L52 219.281C51.8856 219.866 51.9414 220.259 51.4665 220.652L50.924 220.692C50.1776 228.609 50.2457 235.878 51.405 243.768C51.6872 245.689 53.6101 252.149 53.1419 253.507C48.8181 239.146 49.8368 227.301 51.0205 212.632Z"/>
	<path fill="#650285" transform="scale(2 2)" d="M323.302 313.14C323.829 308.754 325.967 304.918 327.211 300.725C328.548 296.222 328.944 291.53 329.475 286.884C329.548 288.419 329.606 289.985 329.885 291.5C330.14 292.884 330.659 294.345 330.71 295.748C330.777 297.563 330.515 299.363 330.391 301.17C330.05 306.144 329.723 312.755 331.483 317.465C332.216 318.047 333.198 318.478 333.824 319.141C329.951 317.698 326.588 315.625 323.302 313.14Z"/>
	<path fill="#FE7BC3" transform="scale(2 2)" d="M205.838 198.782L206.013 198.628L205.946 197.935C206.281 197.292 206.667 196.511 207.294 196.101C207.907 195.7 208.278 195.583 208.98 195.696L209.458 196.413L209.656 196.008C214.046 202.136 218.557 214.459 219.055 221.799C217.975 222.126 216.93 222.436 215.81 222.599C214.442 220.071 213.744 217.147 212.867 214.421C211.544 210.317 209.888 206.242 207.625 202.559C207.08 201.285 206.398 200.056 205.838 198.782Z"/>
	<path fill="#650285" transform="scale(2 2)" d="M223.521 238.541C224.545 239.614 224.837 240.761 225.111 242.189C225.947 246.545 225.633 251.28 225.889 255.713C226.032 258.182 226.54 260.776 226.538 263.227C226.537 263.53 226.533 263.467 226.338 263.653L226.438 263.94L226.027 263.624C225.931 262.794 226.071 262.067 226.074 261.244C226.085 259.03 225.862 256.216 225.25 254.087L225.046 253.995C224.756 254.458 224.758 254.739 224.156 254.834C224.053 254.85 223.756 254.797 223.643 254.78C223.524 254.858 223.407 254.94 223.286 255.015C221.644 256.027 219.174 255.163 217.327 255.476C216.434 255.627 215.842 256.438 214.995 256.465C214.436 256.483 213.534 256.324 213.013 256.484C212.147 256.749 210.086 265.66 208.944 267.065C209.72 261.735 212.362 256.127 214.737 251.291C215.613 249.507 216.754 247.771 217.337 245.87C219.237 243.34 221.47 240.96 223.521 238.541Z"/>
	<path fill="#FE7BC3" transform="scale(2 2)" d="M289.092 196.162L289.471 196.236L290.624 194.652C291.767 195.185 292.948 195.67 293.984 196.394L292.901 198.286C293.172 198.567 293.019 198.515 293.323 198.528C292.447 200.953 291.231 203.281 290.128 205.611C288.889 208.349 287.793 211.097 286.922 213.977C286.176 216.441 285.616 219.14 284.588 221.488C284.338 222.06 284.021 222.432 283.581 222.867L279.721 222.155C280.023 216.446 285.557 200.625 289.092 196.162Z"/>
	<path fill="#FE7BC3" transform="scale(2 2)" d="M297.873 121.281C298.633 120.848 299.51 120.17 300.317 119.868C300.92 119.643 301.278 119.636 301.836 119.924C302.249 121.17 302.811 122.894 303.825 123.758C303.923 123.841 304.028 123.917 304.129 123.997C307.498 130.161 310.073 142.507 311.149 149.609C310.18 150.602 309.161 151.241 307.98 151.948C306.379 149.149 305.152 142.336 304.207 138.958Q302.448 132.477 299.742 126.331L299.42 125.213L299.641 125.005C299.196 123.743 298.467 122.487 297.873 121.281Z"/>
	<path fill="#650285" transform="scale(2 2)" d="M290.131 265.554C287.71 263.549 288.59 257.966 285.986 256.277C284.875 255.556 284.085 255.09 282.723 255.281C281.063 255.513 273.871 256.867 273.188 257.745C273.29 259.254 273.256 260.745 273.218 262.255C272.525 255.838 272.574 248.459 273.488 242.069C273.685 240.686 273.828 239.198 275.018 238.307L275.539 238.418L275.473 238.856C277.286 241.141 279.326 243.601 281.531 245.51C281.505 245.871 281.461 246.246 281.571 246.6C281.871 247.573 285.92 254.257 286.816 256.212C288.182 259.192 289.35 262.369 290.131 265.554Z"/>
	<path fill="#FE7BC3" transform="scale(2 2)" d="M194.973 123.97L195.428 123.957C196.055 122.683 196.808 120.139 197.796 119.231C198.277 119.224 198.575 119.287 199.016 119.447C199.955 119.788 200.956 119.419 201.777 120C202.052 121.505 199.843 123.446 199.787 125.079L200.136 125.196C198.163 130.281 194.845 137.757 194.389 143.087C193.432 145.993 193.236 149.542 191.923 152.267Q190.239 151.178 188.529 150.131C188.533 143.87 191.781 129.582 194.973 123.97Z"/>
	<defs>
		<linearGradient id="gradient_2" gradientUnits="userSpaceOnUse" x1="248.70209" y1="307.87646" x2="249.793" y2="294.97513">
			<stop offset="0" stop-color="#59007A"/>
			<stop offset="1" stop-color="#83068A"/>
		</linearGradient>
	</defs>
	<path fill="url(#gradient_2)" transform="scale(2 2)" d="M253.558 296.832C254.334 295.681 254.85 293.812 255.765 292.917C256.4 293.112 256.44 293.298 256.843 293.84C256.814 293.97 256.778 294.099 256.755 294.23C256.476 295.82 257.65 298.968 257.928 300.634C258.657 305.004 258.444 310.605 257.278 314.875L257.079 314.159L257.278 314.486C257.22 314.166 257.16 313.915 257.046 313.606C257.109 313.14 257.172 312.821 257.357 312.389C257.918 311.082 257.742 309.036 257.722 307.62L257.465 307.188C256.69 307.023 255.9 307.589 255.222 307.923C254.446 308.306 253.98 308.408 253.114 308.416L252.768 308.186L253.61 307.821L253.593 307.688C251.866 307.563 243.629 308.388 242.87 308.084C242.768 308.043 242.271 307.628 242.23 307.584C242.073 307.417 241.884 307.097 241.758 306.896L241.778 306.923L241.269 306.921C240.867 308.36 241.181 311.924 242.074 313.19C242.486 313.773 243.18 313.961 243.854 314.008C245.396 314.115 247.702 313.672 249.019 314.633C247.501 315.368 243.125 313.979 242.494 314.909L242.732 315.619L242.551 315.713C240.726 312.271 239.629 302.578 240.658 298.879C241.057 297.443 241.883 295.998 242.521 294.652C242.056 294.144 241.347 294.219 240.674 294.188C241.551 294.044 242.404 293.87 243.265 293.653L244.483 296.422C247.96 298.078 249.905 297.956 253.558 296.832Z"/>
	<defs>
		<linearGradient id="gradient_3" gradientUnits="userSpaceOnUse" x1="247.64062" y1="330.32693" x2="248.68974" y2="341.06754">
			<stop offset="0" stop-color="#73008B"/>
			<stop offset="1" stop-color="#CC01A5"/>
		</linearGradient>
	</defs>
	<path fill="url(#gradient_3)" transform="scale(2 2)" d="M239.535 330.608C243.374 330.352 257.59 330.11 260.261 332.008C262.102 333.315 263.572 336.357 265.022 338.138C267.41 341.071 270.595 342.945 273.794 344.872C272.258 345.028 269.882 343.172 268.707 342.222C266.431 340.382 265.53 338.642 262.449 338.973C260.046 339.231 257.708 339.998 255.343 340.472C252.493 341.042 249.271 341.265 246.366 341.371C243.859 341.463 241.267 341.473 238.765 341.285C237.122 341.161 235.11 340.614 233.5 340.775C230.269 341.097 227.53 345.86 223.953 345.337C226.214 343.905 228.605 342.905 230.771 341.255C234.479 338.43 236.3 334.194 239.354 330.805C239.414 330.739 239.475 330.674 239.535 330.608Z"/>
	<defs>
		<linearGradient id="gradient_4" gradientUnits="userSpaceOnUse" x1="211.82272" y1="274.22272" x2="196.25903" y2="256.4866">
			<stop offset="0" stop-color="#FFC6F3"/>
			<stop offset="1" stop-color="#ECF2FD"/>
		</linearGradient>
	</defs>
	<path fill="url(#gradient_4)" transform="scale(2 2)" d="M189.371 298.314C188.795 296.643 188.307 294.903 187.972 293.168C185.64 281.103 188.593 268.774 195.543 258.714C201.386 250.257 213.327 240.401 223.521 238.541C221.47 240.96 219.237 243.34 217.337 245.87C208.297 249.946 196.351 266.222 192.844 275.494C190.837 280.801 190.056 286.156 189.887 291.793C189.84 293.39 190.283 297.099 189.371 298.314Z"/>
	<path fill="#FAF6FB" transform="scale(2 2)" d="M275.539 238.418C279.517 240.005 283.454 241.634 287.137 243.846C296.243 249.314 304.531 258.486 308.736 268.232C311.972 275.73 312.794 288.155 310.658 296.015C310.307 295.647 310.154 295.394 310.076 294.88C309.377 290.28 309.494 285.759 308.382 281.15C307.344 276.849 305.763 272.591 303.418 268.827C303.291 268.745 303.16 268.667 303.035 268.581C302.205 268.008 297.988 261.83 296.986 260.416C296.7 260.013 296.524 259.821 296.043 259.642C295.508 259.863 295.312 259.963 295.135 260.582C294.956 261.209 295.201 261.857 295.397 262.444C295.145 262.947 295.123 263.023 294.56 263.215C293.08 263.72 291.646 263.278 290.657 264.748C290.246 266.677 292.966 272.466 291.773 273.691C291.351 272.984 290.506 267.011 290.131 265.554C289.35 262.369 288.182 259.192 286.816 256.212C285.92 254.257 281.871 247.573 281.571 246.6C281.461 246.246 281.505 245.871 281.531 245.51C279.326 243.601 277.286 241.141 275.473 238.856L275.539 238.418Z"/>
	<path fill="#E917A3" transform="scale(2 2)" d="M281.531 245.51C284.384 247.527 287.25 249.556 289.855 251.893C294.046 255.653 301.126 263.774 303.418 268.827C303.291 268.745 303.16 268.667 303.035 268.581C302.205 268.008 297.988 261.83 296.986 260.416C296.7 260.013 296.524 259.821 296.043 259.642C295.508 259.863 295.312 259.963 295.135 260.582C294.956 261.209 295.201 261.857 295.397 262.444C295.145 262.947 295.123 263.023 294.56 263.215C293.08 263.72 291.646 263.278 290.657 264.748C290.246 266.677 292.966 272.466 291.773 273.691C291.351 272.984 290.506 267.011 290.131 265.554C289.35 262.369 288.182 259.192 286.816 256.212C285.92 254.257 281.871 247.573 281.571 246.6C281.461 246.246 281.505 245.871 281.531 245.51Z"/>
	<path fill="#E917A3" transform="scale(2 2)" d="M264.479 275.779C265.046 277.567 265.314 279.377 265.603 281.226C265.973 285.343 265.609 289.407 262.778 292.687C261.822 293.795 260.791 294.411 259.316 294.492C258.251 294.551 257.741 294.397 256.843 293.84C256.44 293.298 256.4 293.112 255.765 292.917C254.85 293.812 254.334 295.681 253.558 296.832C249.905 297.956 247.96 298.078 244.483 296.422L243.265 293.653C242.404 293.87 241.551 294.044 240.674 294.188C240.366 294.244 240.067 294.303 239.752 294.292C238.104 294.231 236.422 293.366 235.371 292.116C233.071 289.379 232.69 285.355 233.062 281.932L232.97 281.345C234.992 282.459 237.052 281.739 239.16 282.205C240.984 282.607 242.778 283.299 244.58 283.803C250.454 285.447 256.145 284.811 260.389 279.981C261.266 278.982 262.25 277.267 263.383 276.656C263.862 276.398 264.12 276.21 264.479 275.779Z"/>
	<path fill="#FDBBF6" transform="scale(2 2)" d="M264.479 275.779C265.046 277.567 265.314 279.377 265.603 281.226C265.542 281.271 265.481 281.314 265.422 281.36C263.962 282.5 263.17 284.219 261.94 285.572C258.7 289.137 252.431 290.011 247.874 289.544C242.021 288.944 237.313 286.205 233.196 282.118C233.142 282.064 233.107 281.994 233.062 281.932L232.97 281.345C234.992 282.459 237.052 281.739 239.16 282.205C240.984 282.607 242.778 283.299 244.58 283.803C250.454 285.447 256.145 284.811 260.389 279.981C261.266 278.982 262.25 277.267 263.383 276.656C263.862 276.398 264.12 276.21 264.479 275.779Z"/>
	<path fill="#FC269F" transform="scale(2 2)" d="M290.128 205.611C290.525 206.067 290.817 206.191 291.341 206.476C298.65 210.449 304.275 213.412 312.33 215.855C313.293 214.572 314.201 213.346 315.452 212.32C314.186 214.283 310.332 218.377 309.836 220.238C307.462 223.932 305.476 227.721 303.886 231.816C303.733 232.209 303.802 232.063 303.491 232.426C296.617 228.055 291.513 225.24 283.581 222.867C284.021 222.432 284.338 222.06 284.588 221.488C285.616 219.14 286.176 216.441 286.922 213.977C287.793 211.097 288.889 208.349 290.128 205.611Z"/>
	<path fill="#FC269F" transform="scale(2 2)" d="M185.811 214.483C185.867 214.534 185.919 214.589 185.977 214.636C186.547 215.102 187.138 215.447 187.89 215.348C190.576 213.406 193.239 211.292 196.04 209.524C198.517 207.961 201.219 206.657 203.582 204.915C204.16 204.489 204.519 204.084 204.894 203.475C205.286 202.838 205.72 201.971 206.402 201.656Q207.022 202.096 207.625 202.559C209.888 206.242 211.544 210.317 212.867 214.421C213.744 217.147 214.442 220.071 215.81 222.599C208.446 224.732 202.175 227.962 195.853 232.249C194.593 228.928 193.213 225.978 191.339 222.951C189.679 220.003 187.604 217.346 185.811 214.483Z"/>
	<path fill="#FAF6FB" transform="scale(2 2)" d="M232.97 281.345C233.047 278.412 233.672 275.293 234.904 272.618Q235.218 271.924 235.599 271.264Q235.981 270.605 236.426 269.987Q236.872 269.369 237.377 268.798Q237.882 268.228 238.442 267.711Q239.002 267.194 239.61 266.736Q240.219 266.278 240.87 265.883Q241.522 265.487 242.209 265.159Q242.897 264.832 243.614 264.574Q244.374 264.31 245.157 264.122Q245.94 263.935 246.738 263.826Q247.535 263.717 248.34 263.687Q249.144 263.658 249.947 263.709Q250.751 263.759 251.545 263.89Q252.34 264.02 253.117 264.228Q253.895 264.436 254.648 264.721Q255.401 265.005 256.122 265.363C260.787 267.653 262.84 270.972 264.479 275.779C264.12 276.21 263.862 276.398 263.383 276.656C262.25 277.267 261.266 278.982 260.389 279.981C256.145 284.811 250.454 285.447 244.58 283.803C242.778 283.299 240.984 282.607 239.16 282.205C237.052 281.739 234.992 282.459 232.97 281.345Z"/>
	<defs>
		<linearGradient id="gradient_5" gradientUnits="userSpaceOnUse" x1="251.58049" y1="238.79887" x2="246.03056" y2="166.01456">
			<stop offset="0" stop-color="#380067"/>
			<stop offset="1" stop-color="#AD00B6"/>
		</linearGradient>
	</defs>
	<path fill="url(#gradient_5)" transform="scale(2 2)" d="M249.155 173.87C249.02 171.417 248.947 153.571 249.571 152.512C249.75 152.209 249.69 152.114 249.675 151.755L249.523 152.322L249.71 151.865C249.999 154.515 250.019 157.186 250.218 159.844C250.253 166.686 250.705 173.822 250.032 180.627L250.049 180.83C250.605 188.128 248.865 203.969 252.864 209.689C256.041 210.432 259.217 210.104 262.451 210.012C263.313 209.111 263.377 207.514 264.309 206.414C261.341 216.529 259.043 226.688 256.548 236.91C256.411 237.471 256.164 238.976 255.698 239.259C251.63 239.403 247.303 239.826 243.336 238.739C241.07 233.23 240.541 226.481 239.034 220.625C236.116 209.279 232.034 198.792 227.058 188.218C230.161 190.391 234.264 204.553 236.219 208.755C239.177 209.438 243.874 208.242 246.527 206.842C247.072 204.725 246.99 202.277 247.211 200.081C248.089 191.358 248.283 182.575 249.155 173.87Z"/>
	<path fill="#B4019B" transform="scale(2 2)" d="M249.155 173.87C249.02 171.417 248.947 153.571 249.571 152.512C249.75 152.209 249.69 152.114 249.675 151.755L249.523 152.322L249.71 151.865C249.999 154.515 250.019 157.186 250.218 159.844C250.253 166.686 250.705 173.822 250.032 180.627C249.16 178.724 249.745 168.77 249.727 165.891C248.83 169.479 249.787 174.897 249.381 178.833C248.929 178.344 249.153 174.722 249.155 173.87Z"/>
	<path fill="#FC269F" transform="scale(2 2)" d="M291.773 273.691C292.966 272.466 290.246 266.677 290.657 264.748C291.646 263.278 293.08 263.72 294.56 263.215C295.123 263.023 295.145 262.947 295.397 262.444C295.201 261.857 294.956 261.209 295.135 260.582C295.312 259.963 295.508 259.863 296.043 259.642C296.524 259.821 296.7 260.013 296.986 260.416C297.988 261.83 302.205 268.008 303.035 268.581C303.16 268.667 303.291 268.745 303.418 268.827C305.763 272.591 307.344 276.849 308.382 281.15C309.494 285.759 309.377 290.28 310.076 294.88C310.154 295.394 310.307 295.647 310.658 296.015C310.087 301.141 305.266 308.566 301.804 312.261C293.343 321.293 284.095 324.816 271.938 325.229C282.593 314.949 290.23 301.836 291.638 286.878C292.049 282.51 291.684 278.076 291.773 273.691Z"/>
	<path fill="#FC269F" transform="scale(2 2)" d="M189.371 298.314C190.283 297.099 189.84 293.39 189.887 291.793C190.056 286.156 190.837 280.801 192.844 275.494C196.351 266.222 208.297 249.946 217.337 245.87C216.754 247.771 215.613 249.507 214.737 251.291C212.362 256.127 209.72 261.735 208.944 267.065C208.186 269.61 207.971 272.311 207.72 274.944C206.576 286.97 208.553 298.062 214.312 308.72Q215.553 311.032 216.998 313.222Q218.442 315.413 220.079 317.464Q221.716 319.514 223.531 321.409Q225.347 323.303 227.326 325.026C215.421 324.751 206.285 321.163 198.022 312.531C194.233 308.571 190.74 303.705 189.371 298.314Z"/>
	<defs>
		<linearGradient id="gradient_6" gradientUnits="userSpaceOnUse" x1="380.10699" y1="347.11472" x2="393.8045" y2="376.24725">
			<stop offset="0" stop-color="#4A0076"/>
			<stop offset="1" stop-color="#9C0098"/>
		</linearGradient>
	</defs>
	<path fill="url(#gradient_6)" transform="scale(2 2)" d="M356.585 369.725C356.049 369.311 355.552 368.777 355.121 368.256C354.667 367.707 354.35 367.431 354.438 366.723C356.819 363.658 361.332 361.062 364.906 359.653C366.696 358.948 368.392 358.633 370.175 357.731C371.949 356.833 373.56 355.07 375.436 354.622L375.043 354.136C376.649 353.243 382.647 356.828 385.083 356.306C387.001 355.895 391.434 351.809 392.91 350.329C393.988 349.249 394.853 347.991 396.053 347.03C398.691 344.917 401.779 343.188 404.255 340.899Q405.714 339.525 406.684 337.771C406.979 337.243 407.601 336.262 407.43 335.664L406.562 335.88C406.601 335.216 407.104 334.718 407.499 334.213C407.956 333.631 408.456 333.153 408.402 332.347C408.359 331.718 408.099 331.363 407.634 330.99C405.834 330.918 403.886 332.742 402.376 333.616C398.083 336.102 393.063 337.943 388.364 339.515C387.349 339.854 386.463 340.355 385.478 340.732C384.32 341.175 382.947 341.237 381.744 341.59C372.569 344.279 364.769 344.852 355.306 344.333C353.563 344.238 351.324 344.613 349.686 344.159C348.43 343.812 346.956 344.127 345.785 343.595C346.133 343.223 346.835 343.502 347.338 343.561C354.418 344.387 365.389 344.479 372.377 343.482C380.967 342.255 390.176 338.964 398 335.251C400.94 333.855 406.636 329.889 409.329 329.464C411.392 330.954 413.628 335.208 414.678 337.531C416.226 339.944 420.573 348.07 420.897 350.659C422.215 353.736 423.431 356.852 424.304 360.088C424.192 359.976 424.078 359.867 423.969 359.752C423.491 359.247 423.389 358.724 423.185 358.084C423.043 357.639 423.116 357.807 422.753 357.422C421.972 357.669 420.646 358.242 420.229 358.976C419.754 359.811 419.933 360.54 420.054 361.432C420.119 361.905 420.093 362.318 420.055 362.792L420.396 364.035L420.104 364.39Q419.895 363.73 419.666 363.077C418.249 363.037 411.664 367.345 410.367 368.635C410.177 368.824 410.149 368.908 410.04 369.12C410.117 369.177 410.196 369.232 410.271 369.29C410.586 369.534 410.479 369.419 410.665 369.752L410.533 369.937C407.025 367.078 392.343 361.132 387.993 361.677C385.025 362.048 381.306 365.658 378.739 367.314C375.191 369.603 370.693 370.773 366.961 372.883C365.85 373.512 364.69 374.313 363.864 375.296C361.367 373.505 359.038 371.546 356.585 369.725Z"/>
	<path fill="#650285" transform="scale(2 2)" d="M417.635 354.742L417.29 354.683C415.99 352.817 412.395 340.665 411.255 337.59C410.642 335.935 409.76 334.376 409.243 332.687C408.952 331.732 408.854 331.072 409.339 330.183C410.855 331.188 412.637 335.62 414.401 337.279C414.492 337.364 414.586 337.447 414.678 337.531C416.226 339.944 420.573 348.07 420.897 350.659C422.215 353.736 423.431 356.852 424.304 360.088C424.192 359.976 424.078 359.867 423.969 359.752C423.491 359.247 423.389 358.724 423.185 358.084C423.043 357.639 423.116 357.807 422.753 357.422C421.972 357.669 420.646 358.242 420.229 358.976C419.754 359.811 419.933 360.54 420.054 361.432C420.119 361.905 420.093 362.318 420.055 362.792C419.163 360.139 418.423 357.428 417.635 354.742Z"/>
	<path fill="#B4019B" transform="scale(2 2)" d="M417.635 354.742L417.221 352.891C417.488 353.601 417.775 354.553 418.261 355.136C418.637 355.587 418.729 355.565 419.276 355.586C420.078 354.891 420.853 354.228 421.534 353.408C421.145 352.706 420.765 351.793 420.838 350.976C420.848 350.869 420.877 350.765 420.897 350.659C422.215 353.736 423.431 356.852 424.304 360.088C424.192 359.976 424.078 359.867 423.969 359.752C423.491 359.247 423.389 358.724 423.185 358.084C423.043 357.639 423.116 357.807 422.753 357.422C421.972 357.669 420.646 358.242 420.229 358.976C419.754 359.811 419.933 360.54 420.054 361.432C420.119 361.905 420.093 362.318 420.055 362.792C419.163 360.139 418.423 357.428 417.635 354.742Z"/>
	<defs>
		<linearGradient id="gradient_7" gradientUnits="userSpaceOnUse" x1="117.51301" y1="345.8653" x2="99.019897" y2="378.74487">
			<stop offset="0" stop-color="#490177"/>
			<stop offset="1" stop-color="#A7009E"/>
		</linearGradient>
	</defs>
	<path fill="url(#gradient_7)" transform="scale(2 2)" d="M90.227 329.006C101.175 335.991 114.49 341.727 127.441 343.402C133.649 344.205 139.773 344.099 146.005 343.725C148.375 343.583 150.751 343.691 153.11 343.374L153.222 343.461C151.526 344.807 130.404 344.289 127.538 343.906C127.231 343.865 126.958 343.787 126.662 343.707C124.712 343.181 122.655 342.949 120.682 342.475Q113.659 340.775 106.959 338.068C104.68 337.142 102.34 336.212 100.145 335.101C98.494 334.265 91.3585 330.036 90.1465 329.784C90.0268 330.362 90.1528 331.13 90.4341 331.658C90.591 331.953 90.6491 331.989 90.8536 332.201C91.121 331.921 91.3513 331.646 91.5898 331.342L91.82 331.573C91.2904 334.18 89.2472 336.944 90.3828 339.625C91.7517 340.335 93.5582 341.051 94.6847 342.1C95.7621 343.104 96.5173 344.476 97.7067 345.362C99.6839 346.836 102.177 347.882 104.301 349.159C107.068 350.821 110.056 353.367 113.129 354.374C114.93 354.964 117.064 354.874 118.933 354.741C120.742 354.613 135.755 361.469 138.009 362.827C139.094 363.48 140.101 364.438 141.046 365.279C141.86 366.003 143.062 366.915 143.168 368.09C143.253 369.037 142.62 369.69 141.994 370.289Q141.437 370.818 140.862 371.328C138.959 373.028 136.876 375.535 134.708 376.815C134.172 376.071 133.317 375.437 132.598 374.863C129.518 372.403 125.194 371.351 121.681 369.578C117.763 367.6 114.085 364.646 110.094 362.961C108.97 362.486 107.951 362.489 106.755 362.638C102.718 363.14 90.8656 367.97 87.635 370.538C86.6895 371.29 85.8867 372.529 85.1565 373.489L84.986 373.278C85.1917 372.605 85.6725 372.039 86.0677 371.459L86.0068 371.535L86.0422 371.11C83.703 370.269 81.9317 367.71 79.5809 366.907C79.1158 366.748 79.3245 366.748 78.8688 366.981L78.6366 367.87L78.3255 367.316L78.6866 365.417C78.6388 364.016 78.8969 363.024 79.2143 361.691C79.0815 361.129 78.8917 360.768 78.5603 360.288C77.9712 359.434 77.4824 358.577 76.4198 358.376C75.3796 359.523 75.6344 361.021 74.3617 362.055C75.5857 356.474 78.0519 350.271 80.6239 345.185C81.8695 341.145 87.0382 331.666 90.227 329.006Z"/>
	<path fill="#B4019B" transform="scale(2 2)" d="M80.6239 345.185C80.9045 347.415 77.5823 349.529 79.7429 351.259C80.3376 351.736 80.9464 352.173 81.5166 352.68L82.0031 352.732C82.3657 352.229 82.3898 351.69 82.4705 351.095L82.9069 350.608L83.1744 350.672L82.8532 350.746C81.9861 354.577 80.1338 361.921 78.6866 365.417C78.6388 364.016 78.8969 363.024 79.2143 361.691C79.0815 361.129 78.8917 360.768 78.5603 360.288C77.9712 359.434 77.4824 358.577 76.4198 358.376C75.3796 359.523 75.6344 361.021 74.3617 362.055C75.5857 356.474 78.0519 350.271 80.6239 345.185Z"/>
	<defs>
		<linearGradient id="gradient_8" gradientUnits="userSpaceOnUse" x1="128.31071" y1="212.86356" x2="123.35723" y2="157.43298">
			<stop offset="0" stop-color="#F9C9EC"/>
			<stop offset="1" stop-color="#FCFFFF"/>
		</linearGradient>
	</defs>
	<path fill="url(#gradient_8)" transform="scale(2 2)" d="M43.9335 192.388C46.7585 190.078 49.9051 188.194 52.9909 186.258Q68.0015 176.927 84.1223 169.682C110.262 157.65 141.458 150.806 169.298 161.195C185.042 167.071 202.513 180.503 209.656 196.008L209.458 196.413L208.98 195.696C208.278 195.583 207.907 195.7 207.294 196.101C206.667 196.511 206.281 197.292 205.946 197.935L206.013 198.628L205.838 198.782C203.85 195.214 201.915 191.754 199.293 188.6C190.829 178.418 175.085 169.2 162.387 165.574C135.874 158.003 109.146 165.522 84.7596 176.459C77.4476 179.739 70.3175 183.187 63.3057 187.081C58.8866 189.535 54.803 192.533 50.7664 195.561C52.8664 198.75 54.8321 203.391 55.2574 207.2C55.0848 210.668 54.6796 214.51 54.9375 217.955L55.3591 217.977C55.2872 217.754 55.3624 217.89 55.0841 217.713C54.743 217.497 54.8608 217.595 54.6446 217.222L53.7403 218.183C52.9743 218.202 53.0235 217.754 52.3018 217.972C52.0275 218.477 51.948 218.705 52 219.281L51.4175 219.685C50.8426 218.63 51.5453 214.632 51.0205 212.632L50.9979 212.395C50.2784 205.447 46.7035 198.746 43.9335 192.388Z"/>
	<defs>
		<linearGradient id="gradient_9" gradientUnits="userSpaceOnUse" x1="174.53877" y1="285.78717" x2="151.71957" y2="286.02219">
			<stop offset="0" stop-color="#58007E"/>
			<stop offset="1" stop-color="#8E0096"/>
		</linearGradient>
	</defs>
	<path fill="url(#gradient_9)" transform="scale(2 2)" d="M154.619 316.912C153.637 315.809 152.135 314.273 152.02 312.741C151.819 310.061 153.247 307.22 153.307 304.474C153.356 302.202 152.303 299.97 152.657 297.662C153.004 295.405 153.993 293.369 154.02 291.041C154.066 286.98 153.26 282.924 153.285 278.859C153.309 275.032 154.314 271.271 154.011 267.424C153.767 264.326 153.278 261.233 152.737 258.174C152.443 256.51 151.938 254.65 151.872 252.972C151.823 251.749 152.784 250.577 152.815 249.284C151.566 248.807 150.33 248.344 149.146 247.719L149.447 247.559C154.168 249.062 158.953 251.233 163.503 253.217C167.337 254.765 171.292 256.021 175.11 257.555C170.782 266.979 168.452 278.346 169.33 288.695C169.78 294.001 171.432 299.31 172.928 304.403C173.46 306.215 174.146 308.058 174.51 309.909C174.698 310.861 174.855 311.923 174.499 312.854C172.991 316.811 165.434 319.565 161.827 320.915C157.306 322.607 152.186 324.125 147.381 324.687C149.726 322.917 152.279 323.823 153.94 322.798C155.027 321.26 154.649 318.734 154.619 316.912Z"/>
	<defs>
		<linearGradient id="gradient_10" gradientUnits="userSpaceOnUse" x1="370.70471" y1="206.9704" x2="377.73706" y2="157.64018">
			<stop offset="0" stop-color="#F5CDF1"/>
			<stop offset="1" stop-color="#FDFFFF"/>
		</linearGradient>
	</defs>
	<path fill="url(#gradient_10)" transform="scale(2 2)" d="M289.092 196.162C296.355 180.357 312.335 167.413 328.545 161.449C349.687 153.671 371.186 154.671 392.539 160.955C398.916 162.832 405.22 164.992 411.248 167.806C423.112 173.344 434.757 179.067 445.848 186.039C449.141 188.11 452.478 190.047 455.443 192.589C454.625 194.923 451.719 202.712 450.558 204.415C448.54 205.906 449.443 209.248 447.75 210.648C447.028 211.246 445.209 211.324 444.331 211.148C442.769 209.126 445.687 205.128 445.398 202.861C445.381 202.735 445.357 202.609 445.337 202.483C446.287 199.977 447.274 197.503 448.709 195.227C446.338 194.11 444.147 192.456 441.95 191.018Q437.162 187.844 432.151 185.036C426.122 181.726 420.052 179.05 413.79 176.256C388.624 165.025 362.548 157.858 335.29 165.9C329.445 167.624 324.137 170.185 318.908 173.264C307.988 179.694 299.435 187.291 293.323 198.528C293.019 198.515 293.172 198.567 292.901 198.286L293.984 196.394C292.948 195.67 291.767 195.185 290.624 194.652L289.471 196.236L289.092 196.162Z"/>
	<path fill="#FAF6FB" transform="scale(2 2)" d="M249.587 60.3398C260.53 67.0313 289.686 94.1015 294.628 106.21C297.849 110.348 302.246 119.135 304.129 123.997C304.028 123.917 303.923 123.841 303.825 123.758C302.811 122.894 302.249 121.17 301.836 119.924C301.278 119.636 300.92 119.643 300.317 119.868C299.51 120.17 298.633 120.848 297.873 121.281C298.467 122.487 299.196 123.743 299.641 125.005L299.42 125.213C298.412 123.753 297.62 121.858 296.777 120.285C294.512 116.063 292.302 111.804 289.823 107.702C285.915 102.27 281.578 97.017 276.766 92.3583C273.329 89.0314 269.59 85.9895 266.036 82.7854C266.236 83.8362 266.652 84.0831 267.427 84.7581L267.586 85.2732L266.698 85.3738L266.519 85.6029C266.422 85.7242 266.323 85.8435 266.227 85.9654C266.164 86.0444 266.105 86.1259 266.044 86.2053C263.239 89.8077 256.337 91.302 252.033 91.795C248.313 92.2211 244.764 91.9142 241.061 91.9597C238.705 91.9886 236.315 92.3404 233.98 91.7669C232.059 91.2951 230.563 90.0514 228.538 89.6771C228.002 89.578 227.492 89.5333 227.052 89.1834L226.917 88.5512C220.27 93.6827 212.723 102.908 207.917 109.952Q203.667 117.39 200.136 125.196L199.787 125.079C199.843 123.446 202.052 121.505 201.777 120C200.956 119.419 199.955 119.788 199.016 119.447C198.575 119.287 198.277 119.224 197.796 119.231C196.808 120.139 196.055 122.683 195.428 123.957L194.973 123.97C195.803 120.596 201.399 110.467 203.394 107.49C203.412 107.428 203.427 107.364 203.448 107.303C204.096 105.457 205.636 103.267 206.711 101.64C215.473 88.3903 230.446 74.3146 243.064 64.7791C245.125 63.2217 247.228 61.415 249.587 60.3398Z"/>
	<path fill="#FDBBF6" transform="scale(2 2)" d="M203.394 107.49C203.38 107.636 203.369 107.781 203.351 107.926C203.053 110.322 199.24 113.989 199.782 116.056C201.184 116.522 202.165 116.718 203.272 117.766C204.053 115.852 205.877 111.008 207.728 110.031C207.788 109.999 207.854 109.978 207.917 109.952Q203.667 117.39 200.136 125.196L199.787 125.079C199.843 123.446 202.052 121.505 201.777 120C200.956 119.419 199.955 119.788 199.016 119.447C198.575 119.287 198.277 119.224 197.796 119.231C196.808 120.139 196.055 122.683 195.428 123.957L194.973 123.97C195.803 120.596 201.399 110.467 203.394 107.49Z"/>
	<path fill="#FDBBF6" transform="scale(2 2)" d="M294.628 106.21C297.849 110.348 302.246 119.135 304.129 123.997C304.028 123.917 303.923 123.841 303.825 123.758C302.811 122.894 302.249 121.17 301.836 119.924C301.278 119.636 300.92 119.643 300.317 119.868C299.51 120.17 298.633 120.848 297.873 121.281C298.467 122.487 299.196 123.743 299.641 125.005L299.42 125.213C298.412 123.753 297.62 121.858 296.777 120.285C294.512 116.063 292.302 111.804 289.823 107.702C292.771 109.802 293.541 114.053 295.597 116.931C296.667 116.862 298.302 115.782 299.293 115.28C297.984 112.443 295.312 109.385 294.668 106.421C294.653 106.351 294.642 106.28 294.628 106.21Z"/>
	<path fill="#FE7BC3" transform="scale(2 2)" d="M249.99 68.2588C255.404 72.8652 261.352 77.4147 266.036 82.7854C266.236 83.8362 266.652 84.0831 267.427 84.7581L267.586 85.2732L266.698 85.3738L266.519 85.6029C266.422 85.7242 266.323 85.8435 266.227 85.9654C266.164 86.0444 266.105 86.1259 266.044 86.2053C263.239 89.8077 256.337 91.302 252.033 91.795C248.313 92.2211 244.764 91.9142 241.061 91.9597C238.705 91.9886 236.315 92.3404 233.98 91.7669C232.059 91.2951 230.563 90.0514 228.538 89.6771C228.002 89.578 227.492 89.5333 227.052 89.1834L226.917 88.5512C227.901 87.3166 229.221 86.2898 230.316 85.1368C236.048 79.1019 242.532 72.0778 249.99 68.2588Z"/>
	<defs>
		<linearGradient id="gradient_11" gradientUnits="userSpaceOnUse" x1="58.522579" y1="385.5488" x2="45.888081" y2="320.05502">
			<stop offset="0" stop-color="#801BCE"/>
			<stop offset="1" stop-color="#BE37E9"/>
		</linearGradient>
	</defs>
	<path fill="url(#gradient_11)" transform="scale(2 2)" d="M70.4013 315.448C71.2672 316.27 72.0118 317.165 72.7705 318.083C71.2389 323.505 67.5759 328.425 65.1218 333.493C61.4253 341.127 58.6125 349.266 56.232 357.395C54.6211 362.896 53.7174 369.21 52.9806 374.912C52.5717 378.076 52.304 386.137 51.2304 388.549C47.7083 385.547 46.1774 380.985 43.9174 377.074C42.3516 374.365 40.5776 371.778 39.042 369.051C31.6806 355.978 24.4751 341.043 20.1664 326.692L20.7834 327.148C21.017 327.748 21.1511 328.122 21.6282 328.576C21.8536 328.255 22.0984 327.827 22.3827 327.562C23.0754 326.915 22.8731 327.623 23.3971 327.818C23.8081 327.971 26.3221 327.211 26.9723 327.133C28.356 326.968 29.84 327.794 31.2342 327.885C31.8181 327.924 31.9216 327.633 32.3482 327.268C33.7994 326.936 35.5596 327.13 37.0673 327.087C39.8587 327.008 42.7503 326.742 45.4827 326.155C48.0325 325.608 50.4809 324.679 52.9033 323.731C53.9569 323.319 55.3001 322.557 56.3856 322.383C56.7782 322.32 57.1675 322.395 57.5535 322.455C59.9376 320.774 62.6242 319.909 65.123 318.453C66.2901 317.773 67.3761 316.628 68.5337 316.052C69.0934 315.773 69.7995 315.618 70.4013 315.448Z"/>
	<defs>
		<linearGradient id="gradient_12" gradientUnits="userSpaceOnUse" x1="338.9039" y1="383.59961" x2="366.55246" y2="417.72928">
			<stop offset="0" stop-color="#51007B"/>
			<stop offset="1" stop-color="#B5009F"/>
		</linearGradient>
	</defs>
	<path fill="url(#gradient_12)" transform="scale(2 2)" d="M356.585 369.725C359.038 371.546 361.367 373.505 363.864 375.296C366.271 377.184 368.374 379.488 370.612 381.573C373.047 383.842 375.702 385.858 378.183 388.073C380.933 390.528 383.522 393.156 386.433 395.423Q387.53 396.34 388.646 397.234C388.19 397.854 387.854 398.435 387.528 399.133C386.542 401.249 384.849 402.921 383.356 404.678C381.791 403.941 377.092 401.141 375.541 401.515C374.077 404.035 372.958 406.737 371.002 408.931C368.28 411.983 355.603 421.08 356.286 424.793C356.416 425.499 356.994 425.828 357.439 426.328C357.488 426.383 357.523 426.449 357.565 426.509C346.426 422.946 334.114 417.207 324.556 410.463C316.721 404.934 309.877 398.462 303.326 391.495C302.609 390.733 300.425 388.793 300.255 387.8C301.788 388.433 313.073 402.22 317.773 404.467C317.609 403.902 317.579 404.154 317.76 403.706C319.229 402.958 320.603 401.588 321.967 400.612C326.978 397.026 330.819 391.811 335.587 387.885C340.322 383.987 345.814 381.287 350.369 377.261C352.08 375.748 354 373.145 355.074 371.119C355.492 370.328 355.716 370.016 356.585 369.725Z"/>
	<path fill="#A83AE6" transform="scale(2 2)" d="M9.74083 274.852C9.7574 274.249 9.67376 273.324 9.90633 272.786C10.5239 273.985 10.0413 277.217 11.1776 277.773C11.971 278.162 12.9355 278.002 13.752 277.829L13.9958 277.427L14.1533 277.175C14.2816 276.965 14.3822 276.74 14.4966 276.522C15.2275 275.132 19.029 273.729 20.5021 273.381C27.5416 271.718 33.5485 277.186 39.287 277.231C40.0058 277.237 40.5135 277.32 41.177 276.966C46.0788 288.808 60.1401 307.644 70.4013 315.448C69.7995 315.618 69.0934 315.773 68.5337 316.052C67.3761 316.628 66.2901 317.773 65.123 318.453C62.6242 319.909 59.9376 320.774 57.5535 322.455C57.1675 322.395 56.7782 322.32 56.3856 322.383C55.3001 322.557 53.9569 323.319 52.9033 323.731C50.4809 324.679 48.0325 325.608 45.4827 326.155C42.7503 326.742 39.8587 327.008 37.0673 327.087C35.5596 327.13 33.7994 326.936 32.3482 327.268C31.9216 327.633 31.8181 327.924 31.2342 327.885C29.84 327.794 28.356 326.968 26.9723 327.133C26.3221 327.211 23.8081 327.971 23.3971 327.818C22.8731 327.623 23.0754 326.915 22.3827 327.562C22.0984 327.827 21.8536 328.255 21.6282 328.576C21.1511 328.122 21.017 327.748 20.7834 327.148L20.1664 326.692C19.0796 324.594 18.4936 321.541 17.8362 319.238C13.7174 304.808 10.7296 289.838 9.74083 274.852Z"/>
	<path fill="#E917A3" transform="scale(2 2)" d="M194.389 143.087C194.471 143.001 194.558 142.919 194.636 142.829C195.075 142.326 195.151 141.579 195.305 140.951C195.432 140.433 195.353 140.639 195.644 140.183C196.133 141.147 196.988 141.281 197.986 141.614C202.615 143.159 208.413 142.643 213.245 142.951C215.193 143.076 217.145 143.449 219.062 143.805C219.51 148.594 218.535 157.936 220.21 162.038C220.539 160.207 219.862 157.912 219.715 156.027C219.491 153.126 219.336 141.737 220.909 140.007C222.404 139.232 234.728 139.015 237.065 139.172C240.361 139.392 244.124 140.933 247.356 139.714C247.759 139.562 247.547 139.609 248.1 139.674C249.195 143.145 248.775 156.417 248.785 160.874C249.345 155.453 248.63 149.914 249.177 144.479C249.39 146.295 248.637 149.676 249.865 151.086C249.843 148.855 249.916 146.655 250.058 144.429C250.308 145.654 250.272 146.92 250.297 148.166C250.275 151.972 250.616 156.08 250.218 159.844C250.019 157.186 249.999 154.515 249.71 151.865L249.523 152.322L249.675 151.755C249.69 152.114 249.75 152.209 249.571 152.512C248.947 153.571 249.02 171.417 249.155 173.87C248.283 182.575 248.089 191.358 247.211 200.081C246.99 202.277 247.072 204.725 246.527 206.842C243.874 208.242 239.177 209.438 236.219 208.755C234.264 204.553 230.161 190.391 227.058 188.218C225.567 185.855 224.529 183.226 222.92 180.916C221.028 178.201 218.502 175.718 216.294 173.252C211.848 168.29 207.24 163.078 201.921 159.017C198.744 156.593 195.209 154.551 191.923 152.267C193.236 149.542 193.432 145.993 194.389 143.087Z"/>
	<defs>
		<linearGradient id="gradient_13" gradientUnits="userSpaceOnUse" x1="157.25687" y1="383.1467" x2="128.09882" y2="424.73935">
			<stop offset="0" stop-color="#4F007B"/>
			<stop offset="1" stop-color="#C900A8"/>
		</linearGradient>
	</defs>
	<path fill="url(#gradient_13)" transform="scale(2 2)" d="M134.708 376.815C136.876 375.535 138.959 373.028 140.862 371.328C142.608 373.527 141.203 375.232 144.158 377.656C147.6 380.479 151.411 381.678 155.333 383.59C157.276 384.538 159.125 385.773 160.913 386.985C163.155 388.506 165.323 390.13 167.555 391.661C168.939 392.61 170.46 393.4 171.781 394.435C173.952 396.136 176.107 398.03 178.182 399.855C179.4 400.927 180.577 402.4 181.99 403.196C182.217 403.324 182.363 403.375 182.637 403.435C183.072 403.53 183.632 403.023 183.957 402.753C187.901 399.484 191.554 395.571 194.903 391.706C196.19 390.221 197.251 388.578 198.636 387.178C198.999 386.811 199.268 386.393 199.573 385.98C199.833 385.628 199.735 385.754 200.155 385.446C199.972 388.071 186.3 401.229 183.53 403.631C166.6 418.312 144.159 427.383 122.17 430.964C122.197 430.77 122.289 430.573 122.356 430.388C125.628 429.742 129.332 429.373 132.442 428.226L132.567 427.796C132.283 426.217 131.426 424.795 130.522 423.489C129.696 422.295 128.679 421.141 127.566 420.206C126.648 419.435 125.442 419.049 124.472 418.27C122.587 416.754 112.275 407.524 111.481 407.259C109.282 406.524 107.324 409.043 105.217 408.532C104.715 408.41 104.906 408.503 104.586 408.018L105.025 407.893C104.806 407.4 102.997 406.946 102.453 406.374C102.348 406.264 102.261 406.136 102.146 406.037C101.015 405.063 98.3322 409.754 96.8208 409.852C98.3301 407.629 103.585 403.644 105.811 401.447C110.183 397.941 114.049 394.039 118.26 390.378C123.607 385.728 129.247 381.338 134.708 376.815Z"/>
	<defs>
		<linearGradient id="gradient_14" gradientUnits="userSpaceOnUse" x1="288.72284" y1="199.13585" x2="263.22034" y2="137.58038">
			<stop offset="0" stop-color="#830096"/>
			<stop offset="1" stop-color="#FF16A7"/>
		</linearGradient>
	</defs>
	<path fill="url(#gradient_14)" transform="scale(2 2)" d="M250.297 148.166L250.579 148.102C250.959 147.511 250.756 146.647 250.707 145.974L250.596 146.079L251.303 145.898C251.573 146.191 251.389 146.068 251.92 146.144C252.581 145.714 253.355 145.216 254.149 145.101C255.513 144.903 257.098 145.107 258.488 145.129L269.47 145.336C271.428 145.379 273.508 145.622 275.449 145.406C276.69 145.268 277.971 144.77 279.152 144.37Q279.2 145.555 279.294 146.738L278.91 146.676L279.645 146.516C279.338 144.627 279.454 142.616 279.39 140.701C279.29 137.667 279.101 134.68 278.762 131.664C279.255 131.372 279.428 131.554 279.966 131.674C282.737 130.444 285.725 131.243 288.629 130.917C291.198 130.628 296.707 128.334 298.631 126.575C298.973 126.262 299.29 126.359 299.742 126.331Q302.448 132.477 304.207 138.958C305.152 142.336 306.379 149.149 307.98 151.948C305.571 153.422 302.935 154.531 300.62 156.153C297.265 158.505 294.234 161.247 291.254 164.049C278.445 176.093 270.174 189.951 264.309 206.414C263.377 207.514 263.313 209.111 262.451 210.012C259.217 210.104 256.041 210.432 252.864 209.689C248.865 203.969 250.605 188.128 250.049 180.83L250.032 180.627C250.705 173.822 250.253 166.686 250.218 159.844C250.616 156.08 250.275 151.972 250.297 148.166Z"/>
	<path fill="#E917A3" transform="scale(2 2)" d="M74.3617 362.055C75.6344 361.021 75.3796 359.523 76.4198 358.376C77.4824 358.577 77.9712 359.434 78.5603 360.288C78.8917 360.768 79.0815 361.129 79.2143 361.691C78.8969 363.024 78.6388 364.016 78.6866 365.417L78.3255 367.316L78.6366 367.87L78.8688 366.981C79.3245 366.748 79.1158 366.748 79.5809 366.907C81.9317 367.71 83.703 370.269 86.0422 371.11L86.0068 371.535L86.0677 371.459C85.6725 372.039 85.1917 372.605 84.986 373.278L85.1565 373.489C85.8867 372.529 86.6895 371.29 87.635 370.538C90.8656 367.97 102.718 363.14 106.755 362.638C107.951 362.489 108.97 362.486 110.094 362.961C114.085 364.646 117.763 367.6 121.681 369.578C125.194 371.351 129.518 372.403 132.598 374.863C133.317 375.437 134.172 376.071 134.708 376.815C129.247 381.338 123.607 385.728 118.26 390.378C114.049 394.039 110.183 397.941 105.811 401.447C103.585 403.644 98.3301 407.629 96.8208 409.852C98.3322 409.754 101.015 405.063 102.146 406.037C102.261 406.136 102.348 406.264 102.453 406.374C102.997 406.946 104.806 407.4 105.025 407.893L104.586 408.018C104.906 408.503 104.715 408.41 105.217 408.532C107.324 409.043 109.282 406.524 111.481 407.259C112.275 407.524 122.587 416.754 124.472 418.27C125.442 419.049 126.648 419.435 127.566 420.206C128.679 421.141 129.696 422.295 130.522 423.489C131.426 424.795 132.283 426.217 132.567 427.796L132.442 428.226C129.332 429.373 125.628 429.742 122.356 430.388C122.289 430.573 122.197 430.77 122.17 430.964C109.926 432.996 97.9984 433.722 85.5955 433.764C82.3581 433.775 78.3794 434.18 75.3182 433.105C74.7737 432.913 74.4277 432.356 74.2015 431.851C72.9799 429.12 72.5675 425.573 71.9534 422.639Q71.2701 419.523 70.7552 416.375Q70.2403 413.227 69.8953 410.056Q69.5504 406.885 69.3764 403.7Q69.2024 400.515 69.1999 397.325Q69.1974 394.135 69.3663 390.95Q69.5352 387.765 69.8751 384.593Q70.215 381.421 70.7249 378.273Q71.2348 375.124 71.9132 372.007C72.6094 368.695 73.2197 365.245 74.3617 362.055Z"/>
	<path fill="#B4019B" transform="scale(2 2)" d="M78.3255 367.316L78.6366 367.87L78.8688 366.981C79.3245 366.748 79.1158 366.748 79.5809 366.907C81.9317 367.71 83.703 370.269 86.0422 371.11L86.0068 371.535L86.0677 371.459C85.6725 372.039 85.1917 372.605 84.986 373.278L85.1565 373.489C83.4099 376.986 81.226 380.739 80.1005 384.489C79.7868 384.755 79.5392 385.315 79.3194 385.673C79.4901 385.069 79.6304 384.424 79.8911 383.853C79.9195 383.79 79.9537 383.731 79.985 383.67C78.9373 383.31 77.7315 382.95 77.0897 381.973C77.0159 381.861 76.9488 381.744 76.8784 381.63L76.3073 382.088C76.0619 380.348 76.5188 377.593 76.8494 375.839C77.3841 373 77.6795 370.139 78.3255 367.316Z"/>
	<defs>
		<linearGradient id="gradient_15" gradientUnits="userSpaceOnUse" x1="115.33902" y1="364.96536" x2="103.33044" y2="386.3739">
			<stop offset="0" stop-color="#7D008D"/>
			<stop offset="1" stop-color="#CA00A3"/>
		</linearGradient>
	</defs>
	<path fill="url(#gradient_15)" transform="scale(2 2)" d="M85.1565 373.489C85.8867 372.529 86.6895 371.29 87.635 370.538C90.8656 367.97 102.718 363.14 106.755 362.638C107.951 362.489 108.97 362.486 110.094 362.961C114.085 364.646 117.763 367.6 121.681 369.578C125.194 371.351 129.518 372.403 132.598 374.863C133.317 375.437 134.172 376.071 134.708 376.815C129.247 381.338 123.607 385.728 118.26 390.378C114.049 394.039 110.183 397.941 105.811 401.447C106.184 400.095 114.635 393.158 116.33 391.422C111.643 388.452 109.634 388.706 105.112 386.753C101.187 385.057 97.447 382.878 93.6383 380.936C90.9605 379.57 88.1837 375.713 85.1908 375.744C83.3128 375.763 81.8553 382.835 80.3837 384.235C80.292 384.323 80.1949 384.404 80.1005 384.489C81.226 380.739 83.4099 376.986 85.1565 373.489Z"/>
	<path fill="#FC269F" transform="scale(2 2)" d="M223.953 345.337C227.53 345.86 230.269 341.097 233.5 340.775C235.11 340.614 237.122 341.161 238.765 341.285C241.267 341.473 243.859 341.463 246.366 341.371C249.271 341.265 252.493 341.042 255.343 340.472C257.708 339.998 260.046 339.231 262.449 338.973C265.53 338.642 266.431 340.382 268.707 342.222C269.882 343.172 272.258 345.028 273.794 344.872C276.576 345.579 279.125 347.021 281.964 347.696C290.841 349.805 298.507 349.061 304.471 357.147C296.01 358.631 288.399 362.804 283.426 369.951C277.616 378.301 276.857 384.958 267.451 391.158C265.104 392.705 262.582 394.026 259.797 394.548C258.178 394.851 256.534 394.803 254.897 394.724C252.648 392.161 251.283 388.74 249.838 385.675C248.731 388.089 246.503 393.318 243.86 394.45C241.477 395.47 237.27 394.274 235.029 393.2C232.8 392.131 230.779 390.6 228.929 388.974C222.899 383.679 221.319 379.056 217.517 372.505C212.383 363.656 204.185 358.617 194.149 357.083C200.971 349.033 207.383 350.295 216.621 347.832C218.889 347.227 221.78 345.631 223.953 345.337Z"/>
	<defs>
		<linearGradient id="gradient_16" gradientUnits="userSpaceOnUse" x1="433.33755" y1="418.6387" x2="386.21783" y2="387.17923">
			<stop offset="0" stop-color="#FF319C"/>
			<stop offset="1" stop-color="#CB00A1"/>
		</linearGradient>
	</defs>
	<path fill="url(#gradient_16)" transform="scale(2 2)" d="M420.055 362.792C420.093 362.318 420.119 361.905 420.054 361.432C419.933 360.54 419.754 359.811 420.229 358.976C420.646 358.242 421.972 357.669 422.753 357.422C423.116 357.807 423.043 357.639 423.185 358.084C423.389 358.724 423.491 359.247 423.969 359.752C424.078 359.867 424.192 359.976 424.304 360.088C428.128 372.295 430.77 390.496 430.07 403.224C429.744 409.146 428.686 415.027 427.674 420.862C427.094 424.204 426.794 428.938 425.261 431.93C424.913 432.61 424.589 433.046 423.842 433.277C421.788 433.913 418.733 433.619 416.575 433.646C403.398 433.81 390.411 433.252 377.403 431.07C375.212 430.702 372.368 430.433 370.323 429.598C366.227 429.26 361.474 427.793 357.565 426.509C357.523 426.449 357.488 426.383 357.439 426.328C356.994 425.828 356.416 425.499 356.286 424.793C355.603 421.08 368.28 411.983 371.002 408.931C372.958 406.737 374.077 404.035 375.541 401.515C377.092 401.141 381.791 403.941 383.356 404.678C384.849 402.921 386.542 401.249 387.528 399.133C387.854 398.435 388.19 397.854 388.646 397.234Q387.53 396.34 386.433 395.423C383.522 393.156 380.933 390.528 378.183 388.073C375.702 385.858 373.047 383.842 370.612 381.573C368.374 379.488 366.271 377.184 363.864 375.296C364.69 374.313 365.85 373.512 366.961 372.883C370.693 370.773 375.191 369.603 378.739 367.314C381.306 365.658 385.025 362.048 387.993 361.677C392.343 361.132 407.025 367.078 410.533 369.937L410.665 369.752C410.479 369.419 410.586 369.534 410.271 369.29C410.196 369.232 410.117 369.177 410.04 369.12C410.149 368.908 410.177 368.824 410.367 368.635C411.664 367.345 418.249 363.037 419.666 363.077Q419.895 363.73 420.104 364.39L420.396 364.035L420.055 362.792Z"/>
	<path fill="#B4019B" transform="scale(2 2)" d="M410.533 369.937L410.665 369.752C410.479 369.419 410.586 369.534 410.271 369.29C410.196 369.232 410.117 369.177 410.04 369.12C410.149 368.908 410.177 368.824 410.367 368.635C411.664 367.345 418.249 363.037 419.666 363.077Q419.895 363.73 420.104 364.39L420.396 364.035C421.468 368.346 423.454 379.136 423.106 383.338C422.654 382.701 423.105 382.353 422.373 381.695C421.164 381.523 420.111 381.932 419.025 382.427L418.582 381.555C416.694 377.14 413.618 373.546 410.533 369.937Z"/>
	<path fill="#B4019B" transform="scale(2 2)" d="M388.646 397.234C390.958 399.177 393.781 401.273 395.655 403.628C394.627 403.864 394.117 402.848 393.189 404.252C393.017 404.513 392.921 404.886 392.827 405.176C392.713 405.202 392.6 405.226 392.487 405.255C391.063 405.619 389.957 407.001 388.491 407.187C388.414 407.197 388.339 407.217 388.262 407.227C385.372 407.613 384.855 404.561 382.106 407.836C380.663 409.553 379.391 411.566 377.789 413.128C375.522 415.338 372.817 417.011 370.494 419.129C369.073 420.426 364.926 424.923 365.083 426.749C365.115 427.126 365.433 427.568 365.735 427.8C367.071 428.829 369.229 428.299 370.323 429.598C366.227 429.26 361.474 427.793 357.565 426.509C357.523 426.449 357.488 426.383 357.439 426.328C356.994 425.828 356.416 425.499 356.286 424.793C355.603 421.08 368.28 411.983 371.002 408.931C372.958 406.737 374.077 404.035 375.541 401.515C377.092 401.141 381.791 403.941 383.356 404.678C384.849 402.921 386.542 401.249 387.528 399.133C387.854 398.435 388.19 397.854 388.646 397.234Z"/>
	<defs>
		<linearGradient id="gradient_17" gradientUnits="userSpaceOnUse" x1="382.62122" y1="363.87793" x2="394.68893" y2="385.46585">
			<stop offset="0" stop-color="#7D008D"/>
			<stop offset="1" stop-color="#C900A3"/>
		</linearGradient>
	</defs>
	<path fill="url(#gradient_17)" transform="scale(2 2)" d="M363.864 375.296C364.69 374.313 365.85 373.512 366.961 372.883C370.693 370.773 375.191 369.603 378.739 367.314C381.306 365.658 385.025 362.048 387.993 361.677C392.343 361.132 407.025 367.078 410.533 369.937C413.618 373.546 416.694 377.14 418.582 381.555C418.478 381.496 418.372 381.44 418.271 381.377C416.823 380.48 413.576 372.569 412.046 372.965C409.67 373.578 405.807 378.351 403.716 380.016C402.293 381.148 400.672 382.478 399.037 383.285C395.419 385.069 385.554 387.687 383.904 391.36C383.734 391.738 383.647 392.011 383.809 392.398C384.321 393.617 385.791 394.141 386.433 395.423C383.522 393.156 380.933 390.528 378.183 388.073C375.702 385.858 373.047 383.842 370.612 381.573C368.374 379.488 366.271 377.184 363.864 375.296Z"/>
	<defs>
		<linearGradient id="gradient_18" gradientUnits="userSpaceOnUse" x1="246.44612" y1="151.11633" x2="249.37517" y2="84.195755">
			<stop offset="0" stop-color="#FE1499"/>
			<stop offset="1" stop-color="#FF78BA"/>
		</linearGradient>
	</defs>
	<path fill="url(#gradient_18)" transform="scale(2 2)" d="M266.036 82.7854C269.59 85.9895 273.329 89.0314 276.766 92.3583C281.578 97.017 285.915 102.27 289.823 107.702C292.302 111.804 294.512 116.063 296.777 120.285C297.62 121.858 298.412 123.753 299.42 125.213L299.742 126.331C299.29 126.359 298.973 126.262 298.631 126.575C296.707 128.334 291.198 130.628 288.629 130.917C285.725 131.243 282.737 130.444 279.966 131.674C279.428 131.554 279.255 131.372 278.762 131.664C279.101 134.68 279.29 137.667 279.39 140.701C279.454 142.616 279.338 144.627 279.645 146.516L278.91 146.676L279.294 146.738Q279.2 145.555 279.152 144.37C277.971 144.77 276.69 145.268 275.449 145.406C273.508 145.622 271.428 145.379 269.47 145.336L258.488 145.129C257.098 145.107 255.513 144.903 254.149 145.101C253.355 145.216 252.581 145.714 251.92 146.144C251.389 146.068 251.573 146.191 251.303 145.898L250.596 146.079L250.707 145.974C250.756 146.647 250.959 147.511 250.579 148.102L250.297 148.166C250.272 146.92 250.308 145.654 250.058 144.429C249.916 146.655 249.843 148.855 249.865 151.086C248.637 149.676 249.39 146.295 249.177 144.479C248.63 149.914 249.345 155.453 248.785 160.874C248.775 156.417 249.195 143.145 248.1 139.674C247.547 139.609 247.759 139.562 247.356 139.714C244.124 140.933 240.361 139.392 237.065 139.172C234.728 139.015 222.404 139.232 220.909 140.007C219.336 141.737 219.491 153.126 219.715 156.027C219.862 157.912 220.539 160.207 220.21 162.038C218.535 157.936 219.51 148.594 219.062 143.805C217.145 143.449 215.193 143.076 213.245 142.951C208.413 142.643 202.615 143.159 197.986 141.614C196.988 141.281 196.133 141.147 195.644 140.183C195.353 140.639 195.432 140.433 195.305 140.951C195.151 141.579 195.075 142.326 194.636 142.829C194.558 142.919 194.471 143.001 194.389 143.087C194.845 137.757 198.163 130.281 200.136 125.196Q203.667 117.39 207.917 109.952C212.723 102.908 220.27 93.6827 226.917 88.5512L227.052 89.1834C227.492 89.5333 228.002 89.578 228.538 89.6771C230.563 90.0514 232.059 91.2951 233.98 91.7669C236.315 92.3404 238.705 91.9886 241.061 91.9597C244.764 91.9142 248.313 92.2211 252.033 91.795C256.337 91.302 263.239 89.8077 266.044 86.2053C266.105 86.1259 266.164 86.0444 266.227 85.9654C266.323 85.8435 266.422 85.7242 266.519 85.6029L266.698 85.3738L267.586 85.2732L267.427 84.7581C266.652 84.0831 266.236 83.8362 266.036 82.7854Z"/>
	<defs>
		<linearGradient id="gradient_19" gradientUnits="userSpaceOnUse" x1="249.98349" y1="488.65189" x2="249.72722" y2="400.89203">
			<stop offset="0" stop-color="#0F0094"/>
			<stop offset="1" stop-color="#4E09C9"/>
		</linearGradient>
	</defs>
	<path fill="url(#gradient_19)" transform="scale(2 2)" d="M114.083 451.258C115.633 449.431 127.499 448.839 130.391 448.359Q138.247 447.101 145.895 444.91Q153.543 442.719 160.873 439.627C174.656 433.78 191.118 422.919 201.852 412.5C205.853 408.617 209.243 404.115 213.037 400.037C216 402.573 218.945 405.342 222.199 407.489C231.763 413.801 243.803 415.319 255 414.475C263.039 413.87 272.732 411.432 279.222 406.428C281.669 404.543 283.764 402.131 286.329 400.423C290.439 404.118 293.482 408.781 297.587 412.491C314.46 427.742 334.394 440.255 356.605 445.909C362.628 447.442 368.83 448.319 374.979 449.173C376.895 449.439 383.359 449.99 384.804 450.858C385.142 451.061 385.299 451.521 385.488 451.854C383.636 453.978 380.708 455.518 378.352 457.041C373.804 459.982 369.284 462.903 364.466 465.391C360.905 467.23 357.189 468.754 353.596 470.528C344.403 475.066 335.07 479.462 325.226 482.441C311.091 487.535 298.604 490.078 283.877 492.479C278.125 493.416 272.526 494.313 266.689 494.681C259.66 495.125 252.433 494.932 245.387 494.859C237.356 494.776 229.336 494.599 221.35 493.656Q210.484 492.263 199.788 489.895Q189.092 487.526 178.654 484.202C174.455 483.176 170.122 481.295 166.108 479.684Q154.695 475.158 143.776 469.541Q132.858 463.924 122.539 457.27C119.767 455.509 116.254 453.735 114.083 451.258Z"/>
	<path fill="#180095" transform="scale(2 2)" d="M177.979 440.1C177.96 440.007 177.937 439.915 177.924 439.821C177.739 438.406 177.142 435.871 178.175 434.712C179.399 433.339 182.115 433.887 183.766 433.939C181.525 434.782 179.853 435.892 178.758 438.12C178.451 438.744 178.198 439.441 177.979 440.1Z"/>
	<path fill="#E917A3" transform="scale(2 2)" d="M307.127 443.243C308.501 443.197 310.054 443.408 311.318 443.964C312.705 444.575 313.851 445.728 314.395 447.147C314.914 448.502 314.947 450.113 314.318 451.438C313.554 453.05 312.081 454.003 310.446 454.559C309.256 454.73 307.997 454.957 306.821 454.602Q306.514 454.51 306.219 454.386Q305.923 454.262 305.642 454.108Q305.361 453.955 305.098 453.773Q304.834 453.591 304.591 453.383Q304.347 453.174 304.127 452.942Q303.906 452.709 303.711 452.455Q303.516 452.201 303.348 451.929Q303.181 451.656 303.042 451.367C302.388 449.995 302.249 448.333 302.793 446.901C303.598 444.781 305.185 444.065 307.127 443.243Z"/>
	<path fill="#E917A3" transform="scale(2 2)" d="M316.274 451.554C317.702 451.422 319.333 451.177 320.683 451.768C322.099 452.387 323.145 453.47 323.711 454.909C324.406 456.678 324.446 458.849 323.681 460.602C322.982 462.203 321.99 463.001 320.391 463.619C319.647 463.686 318.864 463.73 318.119 463.679C316.411 463.562 314.647 462.598 313.61 461.243Q313.435 461.011 313.283 460.764Q313.131 460.516 313.004 460.255Q312.877 459.993 312.776 459.721Q312.676 459.448 312.603 459.167Q312.529 458.886 312.484 458.599Q312.439 458.312 312.422 458.022Q312.405 457.731 312.416 457.441Q312.428 457.151 312.468 456.863C312.817 454.43 314.407 452.944 316.274 451.554Z"/>
	<path fill="#E917A3" transform="scale(2 2)" d="M299.751 452.778C300.777 452.753 301.753 452.835 302.73 453.173C304.206 453.682 305.454 454.658 306.121 456.092C306.844 457.643 306.816 459.518 306.15 461.082C305.213 463.28 303.585 464.285 301.458 465.089C300.647 465.11 299.831 465.132 299.04 464.925C297.39 464.493 295.883 463.352 295.09 461.836Q294.948 461.568 294.834 461.287Q294.721 461.006 294.637 460.714Q294.554 460.423 294.501 460.124Q294.449 459.826 294.428 459.523Q294.407 459.22 294.418 458.917Q294.429 458.614 294.472 458.314Q294.515 458.014 294.589 457.72Q294.663 457.426 294.767 457.141C295.644 454.775 297.583 453.728 299.751 452.778Z"/>
	<path fill="#FAF6FB" transform="scale(2 2)" d="M224.912 429.278C226.232 429.203 227.477 429.14 228.756 429.568C230.496 430.15 231.983 431.415 232.721 433.109Q232.874 433.463 232.99 433.831Q233.106 434.199 233.183 434.577Q233.26 434.955 233.298 435.34Q233.336 435.724 233.333 436.109Q233.331 436.495 233.288 436.879Q233.246 437.262 233.164 437.639Q233.083 438.017 232.962 438.383Q232.842 438.75 232.684 439.102C231.74 441.162 230.041 442.182 227.987 442.929C226.414 443.227 225.054 443.231 223.571 442.534C221.79 441.697 220.498 440.122 219.887 438.265C219.281 436.424 219.363 434.369 220.286 432.644C221.334 430.684 222.896 429.916 224.912 429.278Z"/>
	<path fill="#FAF6FB" transform="scale(2 2)" d="M248.414 429.027C249.641 428.983 250.721 429.034 251.885 429.461C253.731 430.139 255.241 431.453 256.033 433.268Q256.17 433.585 256.274 433.915Q256.378 434.245 256.448 434.584Q256.518 434.922 256.553 435.266Q256.588 435.61 256.587 435.956Q256.587 436.302 256.551 436.646Q256.515 436.99 256.445 437.328Q256.374 437.667 256.269 437.996Q256.164 438.326 256.026 438.643C255.027 440.953 253.17 442.105 250.914 442.946C249.475 443.223 248.233 443.149 246.893 442.512C245.094 441.657 243.77 440.091 243.122 438.216C242.5 436.417 242.547 434.452 243.417 432.742C244.482 430.647 246.284 429.718 248.414 429.027Z"/>
	<path fill="#E917A3" transform="scale(2 2)" d="M183.766 433.939C186.016 433.917 188.289 433.856 190.021 435.55C191.462 436.959 192.49 439.36 192.439 441.385C192.399 442.967 191.681 444.386 190.511 445.436C188.887 446.893 186.635 447.569 184.475 447.346C182.517 447.145 180.52 446.275 179.269 444.717C178.088 443.246 177.935 441.931 177.979 440.1C178.198 439.441 178.451 438.744 178.758 438.12C179.853 435.892 181.525 434.782 183.766 433.939Z"/>
	<path fill="#FDBBF6" transform="scale(2 2)" d="M247.295 450.298C248.561 450.171 249.883 450.073 251.124 450.42Q251.479 450.519 251.822 450.652Q252.166 450.786 252.494 450.953Q252.822 451.12 253.133 451.319Q253.443 451.518 253.731 451.747Q254.02 451.976 254.285 452.232Q254.549 452.489 254.787 452.771Q255.024 453.052 255.233 453.356Q255.441 453.66 255.618 453.983C256.519 455.633 256.845 457.682 256.206 459.481C255.397 461.761 253.62 462.848 251.583 463.888C250.071 464.253 248.719 464.382 247.227 463.815C245.432 463.134 244.04 461.708 243.259 459.968C242.471 458.21 242.316 456.125 243.028 454.317C243.849 452.232 245.338 451.188 247.295 450.298Z"/>
	<path fill="#E917A3" transform="scale(2 2)" d="M223.825 450.036C225.474 449.907 227.076 449.787 228.636 450.439C230.548 451.238 231.96 452.799 232.702 454.722C233.409 456.557 233.528 458.661 232.708 460.48C231.813 462.469 229.989 463.747 227.994 464.473C226.123 464.839 224.367 464.868 222.631 463.988C220.863 463.092 219.529 461.425 218.92 459.551Q218.803 459.188 218.722 458.815Q218.641 458.442 218.597 458.063Q218.552 457.684 218.545 457.303Q218.538 456.921 218.569 456.541Q218.599 456.161 218.667 455.785Q218.734 455.41 218.838 455.042Q218.942 454.675 219.081 454.32Q219.221 453.965 219.394 453.625C220.391 451.697 221.828 450.723 223.825 450.036Z"/>
	<path fill="#FDBBF6" transform="scale(2 2)" d="M264.828 440.841C268.748 440.502 291.831 440.315 294.225 441.654C295.376 442.297 296.175 443.405 296.518 444.669Q296.589 444.936 296.632 445.208Q296.676 445.481 296.692 445.756Q296.708 446.031 296.696 446.307Q296.683 446.583 296.644 446.856Q296.604 447.129 296.536 447.396Q296.469 447.664 296.375 447.923Q296.281 448.183 296.161 448.431Q296.041 448.68 295.897 448.915C295.034 450.332 293.985 450.952 292.42 451.367C288.493 451.59 284.435 451.32 280.489 451.298C274.609 451.266 268.206 451.755 262.428 450.75C260.987 449.577 259.966 448.38 259.732 446.47C259.57 445.15 259.89 443.749 260.743 442.708C261.903 441.293 263.064 440.967 264.828 440.841Z"/>
	<path fill="#180095" transform="scale(2 2)" d="M178.654 484.202C180.613 483.381 184.182 484.086 186.36 484.117C186.557 484.52 186.7 484.727 187.052 485.006L187.289 484.759C187.303 484.292 187.393 483.921 187.526 483.474C188.174 483.291 188.871 483.624 189.518 483.796L189.31 484.464C190.52 484.807 191.992 484.432 193.265 484.617C194.126 484.741 194.853 484.999 195.359 485.705C195.36 486.286 195.399 486.752 195.55 487.313C196.782 488.523 198.048 487.863 199.481 488.216C199.975 488.337 200.349 488.614 200.808 488.798C203.279 489.789 205.834 485.161 210.716 485.272C217.086 485.418 223.625 486.419 230.004 486.889C230.953 486.959 231.925 487.202 232.861 487.23C234.952 487.293 237.071 486.986 239.161 487.116C241.415 487.255 243.67 487.939 245.926 488.182C247.804 488.384 249.72 488.12 251.607 488.186C255.766 488.333 260.195 489.284 264.311 488.429C268.185 487.624 270.807 485.021 274.406 483.903C275.343 483.612 276.438 483.393 277.422 483.466C278.757 483.564 283.208 484.359 284.315 484.953C284.334 485.251 284.331 485.48 284.276 485.777C284.26 485.863 284.24 485.949 284.221 486.035C284.509 486.205 284.508 486.228 284.879 486.321C286.278 486.673 288.604 485.385 290.183 485.321C292.999 485.206 295.622 485.974 298.369 486.454C298.218 487.02 298.131 487.525 298.091 488.11C298.513 488.591 298.729 488.702 299.377 488.758C300.755 488.878 301.619 488.649 302.682 487.785C303.121 487.428 303.28 487.263 303.834 487.103C304.326 486.96 304.393 486.884 304.757 486.54C305.145 486.173 305.344 485.987 305.889 485.87C306.158 486.12 306.36 486.342 306.577 486.643C306.649 486.742 306.717 486.842 306.786 486.942L307.161 486.903L307.851 486.048C312.635 485.824 312.419 482.691 314.865 482.233C316.897 481.852 318.892 483.444 320.754 482.782L320.734 482.611Q319.678 482.162 318.611 481.739L318.882 481.467C319.521 481.325 320.936 480.701 321.466 480.906L321.106 481.6L321.922 482.312C322.525 482.411 322.534 482.433 323.061 482.133C323.235 481.682 323.418 481.247 323.63 480.812C324.959 481.005 324.404 481.559 325.226 482.441C311.091 487.535 298.604 490.078 283.877 492.479C278.125 493.416 272.526 494.313 266.689 494.681C259.66 495.125 252.433 494.932 245.387 494.859C237.356 494.776 229.336 494.599 221.35 493.656Q210.484 492.263 199.788 489.895Q189.092 487.526 178.654 484.202Z"/>
	<defs>
		<linearGradient id="gradient_20" gradientUnits="userSpaceOnUse" x1="130.00851" y1="270.26016" x2="111.4958" y2="32.533394">
			<stop offset="0" stop-color="#935BF5"/>
			<stop offset="1" stop-color="#32C7FF"/>
		</linearGradient>
	</defs>
	<path fill="url(#gradient_20)" transform="scale(2 2)" d="M163.205 29.1C163.29 29.0976 163.375 29.0964 163.46 29.0927C164.666 29.0406 166.054 28.3245 167.154 28.3808C169.57 28.5046 176.137 34.5265 178.103 36.2683C180.375 38.2811 182.457 41.4579 185.241 42.7571C192.758 46.2655 206.069 45.0986 214.438 45.2008C216.04 45.2204 217.625 45.5309 219.223 45.6015C222.28 45.7366 224.994 45.3678 227.978 46.4414C229.276 46.9082 229.777 47.4076 230.36 48.6208C230.679 49.2843 230.853 49.6615 231.524 50.0417C232.191 49.9396 232.649 49.7424 233.252 49.4586C233.644 49.5092 233.915 49.561 234.291 49.6988C227.115 54.7174 219.825 60.1865 213.47 66.2119C207.574 71.8014 202.517 77.7752 197.541 84.1818C185.679 99.4571 175.009 117.052 171.582 136.362L170.507 142.757C164.539 140.277 158.005 139.061 151.613 138.327C127.727 135.584 104.159 141.031 82.1407 150.104C65.5625 156.936 51.6237 165.06 36.8469 175.159C31.9003 178.54 24.9441 182.341 22.5641 188.175C22.4705 188.405 22.3879 188.639 22.3042 188.872C23.5737 193.675 25.4071 198.23 27.3662 202.786C28.9476 206.463 31.0581 210.379 31.731 214.348C32.6146 219.561 31.3172 225.294 31.3014 230.571C31.2702 241.01 32.3891 251.914 35.4668 261.923C37.0515 267.077 39.1369 271.986 41.177 276.966C40.5135 277.32 40.0058 277.237 39.287 277.231C33.5485 277.186 27.5416 271.718 20.5021 273.381C19.029 273.729 15.2275 275.132 14.4966 276.522C14.3822 276.74 14.2816 276.965 14.1533 277.175L13.9958 277.427L13.752 277.829C12.9355 278.002 11.971 278.162 11.1776 277.773C10.0413 277.217 10.5239 273.985 9.90633 272.786C9.67376 273.324 9.7574 274.249 9.74083 274.852C8.36928 268.818 8.87404 261.976 8.8296 255.802C8.7317 242.202 9.41673 230.005 11.2212 216.539C11.7585 212.529 12.1595 208.465 12.9739 204.501C14.3446 197.828 16.3229 191.269 18.2665 184.745C20.1457 178.437 22.1172 172.063 24.5587 165.946C26.7055 160.568 29.2634 155.37 31.8142 150.175Q32.8336 148.103 33.8914 146.05Q34.9491 143.997 36.0449 141.965Q37.1407 139.932 38.2742 137.92Q39.4076 135.908 40.5783 133.918Q41.749 131.927 42.9566 129.959Q44.1641 127.991 45.4081 126.045Q46.6521 124.1 47.932 122.178Q49.212 120.255 50.5275 118.358Q51.843 116.46 53.1936 114.587Q54.5443 112.714 55.9295 110.866Q57.3148 109.018 58.7342 107.197Q60.1536 105.375 61.6066 103.581Q63.0597 101.786 64.5459 100.018Q66.0321 98.251 67.5509 96.5116Q69.0698 94.7721 70.6207 93.0613Q72.1717 91.3504 73.7542 89.6687Q75.3368 87.987 76.9503 86.335Q78.5639 84.6831 80.2079 83.0614Q81.852 81.4398 83.5259 79.849Q85.1998 78.2583 86.9031 76.6989Q88.6063 75.1396 90.3383 73.6123Q92.0703 72.0849 93.8304 70.5901Q95.5905 69.0952 97.3781 67.6334Q99.1657 66.1716 100.98 64.7432Q102.795 63.3149 104.636 61.9207Q106.476 60.5264 108.343 59.1666Q110.209 57.8068 112.101 56.482Q113.992 55.1572 115.908 53.8678Q117.824 52.5785 119.763 51.325Q121.702 50.0715 123.665 48.8543Q125.627 47.6372 127.612 46.4567Q129.597 45.2763 131.603 44.133C141.822 38.2966 152.424 33.7479 163.205 29.1Z"/>
	<path fill="#40BEFE" transform="scale(2 2)" d="M151.509 42.5098C152.806 42.4976 155.472 42.3794 156.521 43.1189L156.522 43.6115C155.947 44.5247 155.026 44.9711 154.127 45.523C153.229 45.6871 152.197 46.0232 151.292 45.836C151 45.5735 150.712 45.448 150.652 45.0329C150.527 44.1715 151.055 43.2159 151.509 42.5098Z"/>
	<path fill="#FAF6FB" transform="scale(2 2)" d="M115.093 114.557C116.154 114.476 117.24 114.529 118.305 114.535C119.8 115.415 120.952 116.522 121.694 118.11C122.398 119.617 122.569 121.39 121.913 122.946C121.074 124.934 119.365 125.951 117.453 126.712C117.044 126.724 116.634 126.735 116.225 126.72C114.625 126.661 112.922 125.929 111.841 124.734C110.135 122.848 110.193 120.667 110.303 118.304C111.581 116.344 112.873 115.305 115.093 114.557Z"/>
	<path fill="#FAF6FB" transform="scale(2 2)" d="M84.0168 100.295C84.9564 100.228 85.9478 100.159 86.8811 100.319C88.565 100.607 90.18 101.76 91.0674 103.207Q91.2333 103.479 91.3706 103.767Q91.5079 104.054 91.6151 104.354Q91.7224 104.654 91.7986 104.963Q91.8748 105.273 91.9191 105.588Q91.9634 105.904 91.9753 106.222Q91.9872 106.541 91.9666 106.858Q91.946 107.176 91.8931 107.491Q91.8403 107.805 91.7557 108.112C91.1052 110.436 89.5643 111.759 87.5435 112.879C86.3734 113.135 85.3151 113.301 84.1546 112.891Q83.8318 112.778 83.5225 112.633Q83.2133 112.487 82.9209 112.31Q82.6285 112.133 82.3562 111.926Q82.0839 111.719 81.8347 111.485Q81.5855 111.251 81.362 110.992Q81.1386 110.733 80.9434 110.453Q80.7482 110.172 80.5833 109.873Q80.4185 109.573 80.2858 109.258C79.5425 107.514 79.514 105.443 80.2712 103.697C81.0589 101.882 82.2479 101.046 84.0168 100.295Z"/>
	<path fill="#FAF6FB" transform="scale(2 2)" d="M137.483 114.302C138.984 114.201 140.333 114.285 141.681 115.029Q141.961 115.183 142.223 115.365Q142.486 115.547 142.728 115.755Q142.97 115.963 143.189 116.196Q143.409 116.428 143.603 116.682Q143.796 116.936 143.963 117.208Q144.129 117.481 144.266 117.77Q144.404 118.058 144.51 118.359Q144.616 118.66 144.691 118.971C145.106 120.629 144.889 122.495 143.951 123.941C142.826 125.675 141.327 126.268 139.375 126.647Q138.736 126.679 138.096 126.677Q137.801 126.674 137.508 126.641Q137.215 126.608 136.927 126.546Q136.639 126.484 136.358 126.393Q136.078 126.303 135.808 126.184Q135.538 126.066 135.281 125.921Q135.024 125.776 134.784 125.606Q134.543 125.436 134.32 125.242Q134.098 125.049 133.896 124.834C132.163 122.994 131.998 120.906 132.045 118.533C132.164 118.334 132.289 118.138 132.421 117.947C133.796 115.965 135.05 114.787 137.483 114.302Z"/>
	<path fill="#FAF6FB" transform="scale(2 2)" d="M115.189 94.8162C116.065 94.8343 116.958 94.8489 117.81 95.079C119.474 95.5289 120.974 96.7374 121.769 98.2645C122.615 99.8918 122.807 101.985 122.187 103.72C121.358 106.043 119.455 107.096 117.371 108.109C116.394 108.294 115.436 108.203 114.505 107.855C112.809 107.22 111.54 106.021 110.827 104.352Q110.686 104.024 110.578 103.683Q110.47 103.342 110.397 102.993Q110.324 102.643 110.287 102.288Q110.249 101.932 110.247 101.575Q110.246 101.218 110.28 100.862Q110.314 100.506 110.383 100.156Q110.453 99.8055 110.557 99.4638Q110.662 99.1221 110.8 98.7926C111.655 96.7695 113.197 95.6083 115.189 94.8162Z"/>
	<path fill="#FAF6FB" transform="scale(2 2)" d="M137.302 94.821C138.242 94.7719 139.214 94.7414 140.142 94.9257C141.768 95.2489 143.322 96.2046 144.17 97.6519C145.489 99.9057 145.028 102.714 144.359 105.096C143.028 106.564 141.693 107.384 139.915 108.177C138.562 108.306 137.438 108.314 136.19 107.705Q135.86 107.545 135.548 107.352Q135.237 107.159 134.946 106.935Q134.656 106.711 134.39 106.459Q134.123 106.207 133.884 105.929Q133.645 105.651 133.435 105.351Q133.225 105.05 133.047 104.729Q132.869 104.409 132.725 104.072Q132.58 103.735 132.471 103.385C131.902 101.574 132.061 99.4989 133.029 97.8491C133.99 96.2105 135.498 95.2774 137.302 94.821Z"/>
	<path fill="#E917A3" transform="scale(2 2)" d="M153.653 107.071C154.921 107.059 156.087 107.094 157.294 107.526C159.318 108.249 161.157 109.652 162.035 111.66C162.701 113.184 162.651 114.885 161.982 116.398C160.946 118.743 158.806 120.126 156.499 121.021C155.043 121.35 153.8 121.267 152.446 120.627C150.547 119.731 149.012 117.946 148.403 115.934C147.87 114.17 148.19 112.349 149.047 110.743C150.032 108.898 151.665 107.641 153.653 107.071Z"/>
	<defs>
		<linearGradient id="gradient_21" gradientUnits="userSpaceOnUse" x1="146.84547" y1="261.67743" x2="97.895935" y2="169.08141">
			<stop offset="0" stop-color="#FF249B"/>
			<stop offset="1" stop-color="#FF6CB8"/>
		</linearGradient>
	</defs>
	<path fill="url(#gradient_21)" transform="scale(2 2)" d="M50.7664 195.561C54.803 192.533 58.8866 189.535 63.3057 187.081C70.3175 183.187 77.4476 179.739 84.7596 176.459C109.146 165.522 135.874 158.003 162.387 165.574C175.085 169.2 190.829 178.418 199.293 188.6C201.915 191.754 203.85 195.214 205.838 198.782C206.398 200.056 207.08 201.285 207.625 202.559Q207.022 202.096 206.402 201.656C205.72 201.971 205.286 202.838 204.894 203.475C204.519 204.084 204.16 204.489 203.582 204.915C201.219 206.657 198.517 207.961 196.04 209.524C193.239 211.292 190.576 213.406 187.89 215.348C187.138 215.447 186.547 215.102 185.977 214.636C185.919 214.589 185.867 214.534 185.811 214.483C187.604 217.346 189.679 220.003 191.339 222.951C193.213 225.978 194.593 228.928 195.853 232.249C191.504 235.234 188.487 238.423 185.173 242.515C181.649 247.516 178.163 252.227 175.11 257.555C171.292 256.021 167.337 254.765 163.503 253.217C158.953 251.233 154.168 249.062 149.447 247.559L149.146 247.719C150.33 248.344 151.566 248.807 152.815 249.284C152.784 250.577 151.823 251.749 151.872 252.972C151.938 254.65 152.443 256.51 152.737 258.174C153.278 261.233 153.767 264.326 154.011 267.424C154.314 271.271 153.309 275.032 153.285 278.859C153.26 282.924 154.066 286.98 154.02 291.041C153.993 293.369 153.004 295.405 152.657 297.662C152.303 299.97 153.356 302.202 153.307 304.474C153.247 307.22 151.819 310.061 152.02 312.741C152.135 314.273 153.637 315.809 154.619 316.912C154.649 318.734 155.027 321.26 153.94 322.798C152.279 323.823 149.726 322.917 147.381 324.687C145.681 324.999 143.914 325.129 142.188 325.198C135.255 325.475 127.438 324.534 120.764 322.647C109.779 319.54 95.4123 311.877 87.0549 304.08C86.9723 304.031 86.8862 303.987 86.8069 303.932C84.8084 302.554 82.9022 300.581 81.1011 298.955C67.8034 286.952 57.4815 271.015 53.1419 253.507C53.6101 252.149 51.6872 245.689 51.405 243.768C50.2457 235.878 50.1776 228.609 50.924 220.692L51.4665 220.652C51.9414 220.259 51.8856 219.866 52 219.281C51.948 218.705 52.0275 218.477 52.3018 217.972C53.0235 217.754 52.9743 218.202 53.7403 218.183L54.6446 217.222C54.8608 217.595 54.743 217.497 55.0841 217.713C55.3624 217.89 55.2872 217.754 55.3591 217.977L54.9375 217.955C54.6796 214.51 55.0848 210.668 55.2574 207.2C54.8321 203.391 52.8664 198.75 50.7664 195.561Z"/>
	<path fill="#FDBBF6" transform="scale(2 2)" d="M55.2574 207.2C55.6222 208.825 55.7054 210.542 55.6534 212.202C55.433 219.235 54.889 226.214 55.042 233.26Q55.1232 237.493 55.4218 241.716C55.527 243.099 55.8844 244.594 55.7937 245.964L55.5424 245.846C54.6921 241.908 54.5958 233.795 54.6233 229.705C54.6392 227.36 55.3269 220.382 54.7741 218.861L54.3789 218.682L54.553 218.877C54.4773 218.895 54.401 218.911 54.3261 218.932C53.9712 219.032 54.1004 218.987 53.7625 219.232C53.1366 219.198 52.6209 219.154 52 219.281C51.948 218.705 52.0275 218.477 52.3018 217.972C53.0235 217.754 52.9743 218.202 53.7403 218.183L54.6446 217.222C54.8608 217.595 54.743 217.497 55.0841 217.713C55.3624 217.89 55.2872 217.754 55.3591 217.977L54.9375 217.955C54.6796 214.51 55.0848 210.668 55.2574 207.2Z"/>
	<path fill="#FC269F" transform="scale(2 2)" d="M174.244 235.452L175.244 235.827C177.22 237.114 184.535 240.527 185.173 242.515C181.649 247.516 178.163 252.227 175.11 257.555C171.292 256.021 167.337 254.765 163.503 253.217L163.409 252.776C163.666 252.674 163.839 252.622 164.066 252.478C166.433 250.975 173.006 240.387 173.57 237.611C173.724 236.851 173.967 236.176 174.244 235.452Z"/>
	<path fill="#E917A3" transform="scale(2 2)" d="M174.244 235.452C171.513 234.025 168.995 232.218 166.284 230.76C157.202 225.876 146.731 221.055 137.077 217.478C135.021 216.716 131.958 216.036 130.241 214.74C130.046 213.337 131.251 211.923 132.095 210.857C134.096 208.326 136.615 205.945 139.168 203.967C141.778 201.945 151.54 196.517 152.599 194.142C152.917 193.43 153.125 192.562 153.371 191.817C153.476 191.828 153.581 191.837 153.685 191.851C155.094 192.041 156.806 193.022 158.132 193.589C161.629 195.083 165.075 196.712 168.299 198.742C173.796 202.203 181.995 209.287 185.811 214.483C187.604 217.346 189.679 220.003 191.339 222.951C193.213 225.978 194.593 228.928 195.853 232.249C191.504 235.234 188.487 238.423 185.173 242.515C184.535 240.527 177.22 237.114 175.244 235.827L174.244 235.452Z"/>
	<path fill="#B4019B" transform="scale(2 2)" d="M175.244 235.827L175.389 235.71C178.762 236.365 182.001 240.106 185.277 241.163C186.191 240.535 186.979 239.214 187.606 238.291C187.152 238.375 186.69 238.516 186.231 238.4C185.907 238.318 186.002 238.259 185.817 237.879C186.019 236.732 186.401 236.105 187.248 235.306C188.602 234.029 192.004 231.464 193.872 231.514L194.143 232.28L194.613 232.463L194.946 232.154C195.023 229.153 192.461 225.651 191.034 223.082L191.339 222.951C193.213 225.978 194.593 228.928 195.853 232.249C191.504 235.234 188.487 238.423 185.173 242.515C184.535 240.527 177.22 237.114 175.244 235.827Z"/>
	<defs>
		<linearGradient id="gradient_22" gradientUnits="userSpaceOnUse" x1="156.44734" y1="273.50571" x2="80.86042" y2="270.48599">
			<stop offset="0" stop-color="#94009D"/>
			<stop offset="1" stop-color="#FF16A5"/>
		</linearGradient>
	</defs>
	<path fill="url(#gradient_22)" transform="scale(2 2)" d="M87.0549 304.08C87.1505 302.545 81.2 298.939 80.1722 297.34C80.3714 297.037 80.572 296.739 80.7867 296.447C81.7644 295.113 80.912 276.787 80.9106 273.457L81.424 273.334L80.9659 273.515L81.0489 273.131L81.0356 273.456L81.5518 273.491C81.5854 271.529 81.7487 269.436 82.2151 267.526C83.2539 263.274 86.7469 254.978 86.1131 250.871C85.7399 248.453 83.2647 246.747 82.6813 244.407C82.4213 243.365 82.7581 243.094 83.2953 242.243C84.9822 239.57 86.3699 230.553 87.1841 227.125C87.4553 225.983 87.9563 224.933 88.1913 223.78C88.4877 222.325 88.5574 220.824 88.725 219.351C88.9891 219.161 89.1827 219.047 89.3619 218.77L88.0931 217.878L88.2519 217.726C94.0534 221.092 100.083 224.12 106.03 227.223C111.441 230.046 116.88 233.04 122.458 235.518C131.421 239.497 140.908 242.658 149.447 247.559L149.146 247.719C150.33 248.344 151.566 248.807 152.815 249.284C152.784 250.577 151.823 251.749 151.872 252.972C151.938 254.65 152.443 256.51 152.737 258.174C153.278 261.233 153.767 264.326 154.011 267.424C154.314 271.271 153.309 275.032 153.285 278.859C153.26 282.924 154.066 286.98 154.02 291.041C153.993 293.369 153.004 295.405 152.657 297.662C152.303 299.97 153.356 302.202 153.307 304.474C153.247 307.22 151.819 310.061 152.02 312.741C152.135 314.273 153.637 315.809 154.619 316.912C154.649 318.734 155.027 321.26 153.94 322.798C152.279 323.823 149.726 322.917 147.381 324.687C145.681 324.999 143.914 325.129 142.188 325.198C135.255 325.475 127.438 324.534 120.764 322.647C109.779 319.54 95.4123 311.877 87.0549 304.08Z"/>
	<defs>
		<linearGradient id="gradient_23" gradientUnits="userSpaceOnUse" x1="350.92184" y1="268.9736" x2="396.01224" y2="168.53241">
			<stop offset="0" stop-color="#FF1C97"/>
			<stop offset="1" stop-color="#FF69B8"/>
		</linearGradient>
	</defs>
	<path fill="url(#gradient_23)" transform="scale(2 2)" d="M293.323 198.528C299.435 187.291 307.988 179.694 318.908 173.264C324.137 170.185 329.445 167.624 335.29 165.9C362.548 157.858 388.624 165.025 413.79 176.256C420.052 179.05 426.122 181.726 432.151 185.036Q437.162 187.844 441.95 191.018C444.147 192.456 446.338 194.11 448.709 195.227C447.274 197.503 446.287 199.977 445.337 202.483C445.357 202.609 445.381 202.735 445.398 202.861C445.687 205.128 442.769 209.126 444.331 211.148C445.209 211.324 447.028 211.246 447.75 210.648C449.443 209.248 448.54 205.906 450.558 204.415C449.956 206.335 449.069 208.39 448.824 210.385C448.331 214.414 448.924 218.825 449.134 222.873C449.437 228.731 449.479 234.855 448.763 240.686C447.364 258.848 436.879 279.292 424.9 292.766C421.607 296.47 417.768 299.79 414.007 303.012C413.388 303.543 412.746 304.237 412.011 304.585C407.011 309.464 398.837 314.331 392.483 317.186C389.89 318.712 386.878 319.738 384.06 320.77C371.566 325.349 358.724 326.862 345.698 323.502C342.527 322.684 336.517 320.879 333.824 319.141C333.198 318.478 332.216 318.047 331.483 317.465C329.723 312.755 330.05 306.144 330.391 301.17C330.515 299.363 330.777 297.563 330.71 295.748C330.659 294.345 330.14 292.884 329.885 291.5C329.606 289.985 329.548 288.419 329.475 286.884C329.491 275.748 328.267 268.557 324.185 258.1L323.604 256.996C323.175 256.067 322.695 255.162 322.23 254.251C319.595 249.909 316.886 245.827 313.814 241.778C310.681 238.19 307.201 235.383 303.491 232.426C303.802 232.063 303.733 232.209 303.886 231.816C305.476 227.721 307.462 223.932 309.836 220.238C310.332 218.377 314.186 214.283 315.452 212.32C314.201 213.346 313.293 214.572 312.33 215.855C304.275 213.412 298.65 210.449 291.341 206.476C290.817 206.191 290.525 206.067 290.128 205.611C291.231 203.281 292.447 200.953 293.323 198.528Z"/>
	<path fill="#FC269F" transform="scale(2 2)" d="M323.604 256.996L324.52 257.116C325.467 256.203 326.165 255.03 326.887 253.937C327.169 254.05 327.455 254.156 327.736 254.272C330.216 255.297 331.958 253.128 334.432 253.879C331.168 255.142 327.134 256.272 324.185 258.1L323.604 256.996Z"/>
	<path fill="#FDBBF6" transform="scale(2 2)" d="M445.337 202.483C445.357 202.609 445.381 202.735 445.398 202.861C445.687 205.128 442.769 209.126 444.331 211.148C445.209 211.324 447.028 211.246 447.75 210.648C449.443 209.248 448.54 205.906 450.558 204.415C449.956 206.335 449.069 208.39 448.824 210.385C448.331 214.414 448.924 218.825 449.134 222.873C449.437 228.731 449.479 234.855 448.763 240.686L448.335 240.64C448.786 236.954 449.199 218.028 448.212 215.384C447.862 215.161 447.754 215.019 447.316 215.016C446.621 215.011 446.01 215.22 445.553 215.759C445.201 216.174 445.057 216.146 444.55 216.314C444.224 216.787 444.197 216.999 444.193 217.589C444.184 219.197 444.644 220.881 444.741 222.506C445.025 227.262 444.795 231.901 444.315 236.622C444.229 237.47 444.327 238.335 444.159 239.171C443.85 235.484 444.627 231.686 444.581 227.946C444.476 219.323 441.835 210.746 445.337 202.483Z"/>
	<path fill="#FC269F" transform="scale(2 2)" d="M313.814 241.778C316.892 239.905 321.267 236.469 324.669 235.551C324.617 235.633 324.567 235.717 324.513 235.798C324.066 236.479 324.538 235.792 324.079 236.319C323.025 237.528 322.231 243.16 322.535 244.885C322.604 245.274 322.697 245.563 322.936 245.883L323.243 244.271C323.93 245.762 323.582 247.263 324.129 248.742C324.426 249.546 324.346 250.358 324.307 251.199L324.884 251.679L324.841 252.004C324.36 251.814 324.227 251.674 323.875 251.313L323.383 251.526L323.327 252.021C323.563 252.259 323.779 252.456 324.046 252.662L323.475 253.761Q322.763 253.185 322.083 252.572L321.934 252.72L322.003 252.928C322.152 253.389 322.297 253.758 322.23 254.251C319.595 249.909 316.886 245.827 313.814 241.778Z"/>
	<path fill="#E917A3" transform="scale(2 2)" d="M315.452 212.32Q316.733 210.854 318.09 209.458Q319.448 208.062 320.878 206.741Q322.308 205.42 323.807 204.177Q325.305 202.934 326.868 201.773Q328.431 200.612 330.054 199.536Q331.677 198.46 333.355 197.473Q335.033 196.485 336.761 195.588Q338.489 194.692 340.263 193.889C341.518 193.318 343.528 192.176 344.913 192.139C344.977 192.137 345.041 192.153 345.105 192.16C344.883 192.262 344.724 192.344 344.537 192.478C343.221 193.424 341.119 192.94 340.17 194.192L340.651 194.015C340.452 194.106 340.169 194.156 340.086 194.364C340.461 194.617 340.672 194.676 341.121 194.712L341.347 195.635C341.869 195.917 341.507 195.793 341.95 195.829C344.303 196.023 362.245 209.015 365.087 211.458C366.342 212.537 367.378 214.007 368.405 215.299C368.392 215.31 357.972 219.321 356.872 219.783Q351.164 222.121 345.601 224.788C343.012 226.035 325.466 235.115 324.765 235.221L324.669 235.551C321.267 236.469 316.892 239.905 313.814 241.778C310.681 238.19 307.201 235.383 303.491 232.426C303.802 232.063 303.733 232.209 303.886 231.816C305.476 227.721 307.462 223.932 309.836 220.238C310.332 218.377 314.186 214.283 315.452 212.32Z"/>
	<path fill="#B4019B" transform="scale(2 2)" d="M309.836 220.238C309.825 220.357 309.817 220.477 309.803 220.595C309.492 223.101 304.43 227.703 305.838 230.043C307.212 232.329 313.792 233.389 315.515 238.269C315.655 238.666 315.871 238.85 316.193 239.101C316.838 239.263 317.333 239.243 317.913 238.897C320.14 237.568 322.237 236.176 324.554 234.95L324.76 235.121L324.765 235.221L324.669 235.551C321.267 236.469 316.892 239.905 313.814 241.778C310.681 238.19 307.201 235.383 303.491 232.426C303.802 232.063 303.733 232.209 303.886 231.816C305.476 227.721 307.462 223.932 309.836 220.238Z"/>
	<path fill="#FC269F" transform="scale(2 2)" d="M391.205 228.136C394.191 226.36 397.445 224.977 400.538 223.389C405.026 221.085 409.512 218.567 413.83 215.957C413.259 217.489 409.482 218.032 409.037 219.439C408.932 219.77 409.655 221.879 409.778 222.443C410.333 224.97 410.357 228.303 411.359 230.639C412.373 233.005 413.091 235.255 413.632 237.789C413.917 239.126 414.014 240.608 414.436 241.899C414.765 242.902 415.521 243.964 416.055 244.879C414.464 248.619 411.051 250.966 410.815 255.422C410.714 257.335 413.078 267.432 413.735 269.594C414.348 271.611 415.207 273.586 415.725 275.624C416.161 277.335 416.605 280.984 416.826 282.886C417.028 284.623 416.981 286.461 416.856 288.203C416.727 289.992 415.653 293.356 416.162 294.929C416.211 295.081 416.269 295.23 416.319 295.381C416.568 296.134 416.485 296.976 416.466 297.758L416.78 298.225C417.485 298.337 417.538 298.234 418.175 297.883L418.234 298.26C416.284 300.357 413.898 301.989 411.928 304.083L412.011 304.585C407.011 309.464 398.837 314.331 392.483 317.186C392.572 315.972 393.635 315.584 394.048 314.564C394.344 313.834 394.133 313.112 393.914 312.396C393.135 309.841 393.886 306.869 394.116 304.244C394.418 300.783 395.414 290.158 393.995 287.522L393.768 287.461L393.727 288.169L393.778 288.02L393.409 287.365L393.533 287.727C391.025 276.296 393.615 266.068 394.567 254.744C395.03 249.236 394.977 243.653 395.271 238.123C395.409 235.543 396.185 229.696 395.807 227.576C395.716 227.069 395.702 227.172 395.322 226.901C393.967 226.928 392.81 227.863 391.441 228.1C391.363 228.113 391.284 228.124 391.205 228.136Z"/>
	<defs>
		<linearGradient id="gradient_24" gradientUnits="userSpaceOnUse" x1="324.66333" y1="274.55734" x2="394.91794" y2="276.00784">
			<stop offset="0" stop-color="#5C0089"/>
			<stop offset="1" stop-color="#FE01AA"/>
		</linearGradient>
	</defs>
	<path fill="url(#gradient_24)" transform="scale(2 2)" d="M391.205 228.136C391.284 228.124 391.363 228.113 391.441 228.1C392.81 227.863 393.967 226.928 395.322 226.901C395.702 227.172 395.716 227.069 395.807 227.576C396.185 229.696 395.409 235.543 395.271 238.123C394.977 243.653 395.03 249.236 394.567 254.744C393.615 266.068 391.025 276.296 393.533 287.727L393.409 287.365L393.778 288.02L393.727 288.169L393.768 287.461L393.995 287.522C395.414 290.158 394.418 300.783 394.116 304.244C393.886 306.869 393.135 309.841 393.914 312.396C394.133 313.112 394.344 313.834 394.048 314.564C393.635 315.584 392.572 315.972 392.483 317.186C389.89 318.712 386.878 319.738 384.06 320.77C371.566 325.349 358.724 326.862 345.698 323.502C342.527 322.684 336.517 320.879 333.824 319.141C333.198 318.478 332.216 318.047 331.483 317.465C329.723 312.755 330.05 306.144 330.391 301.17C330.515 299.363 330.777 297.563 330.71 295.748C330.659 294.345 330.14 292.884 329.885 291.5C329.606 289.985 329.548 288.419 329.475 286.884C329.491 275.748 328.267 268.557 324.185 258.1C327.134 256.272 331.168 255.142 334.432 253.879L364.027 240.809C368.187 239.015 372.522 237.562 376.638 235.681C381.601 233.414 386.155 230.227 391.205 228.136Z"/>
</svg>
